<svg xmlns="http://www.w3.org/2000/svg" width="421.992" height="87.334" viewBox="0 0 421.992 87.334"><g transform="translate(-594 -521)"><path d="M-4533.641,1271.477l2.958,2.674v5.009l-3.272,2.984h-14.224v-19.913h13.229l3.271,2.99v4.407Zm.256-5.689-2.276-1.992h-10.81v7.257h10.952l2.134-1.991Zm-1.28,14.792,2.275-1.991v-3.84l-2.418-2.131h-11.663v7.963Z" transform="translate(5142.458 -734.973)" fill="#fff"/><path d="M-4522.507,1280.58v1.564h-12.232l-3.983-3.7v-12.517l3.983-3.7h12.232v1.564h-11.522l-2.986,2.7v11.379l2.986,2.7Z" transform="translate(5155.419 -734.973)" fill="#fff"/><path d="M-4529.807,1262.232h16.073v1.564H-4528.1v7.541h11.379v1.563H-4528.1v7.681h14.649v1.564h-16.356Z" transform="translate(5167.639 -734.973)" fill="#fff"/><path d="M-4507.609,1275.175h-11.55v6.969h-1.707v-19.913h13.228l3.7,3.416v6.116Zm1.963-8.959-2.7-2.42h-10.811v9.817h10.811l2.7-2.42Z" transform="translate(5179.892 -734.973)" fill="#fff"/><path d="M-4497.66,1282.6h-10.1l-3.982-3.7v-13.083l3.982-3.7h10.1l3.982,3.7v13.083Zm-.712-1.567,2.987-2.7V1266.38l-2.987-2.7h-8.677l-2.986,2.7v11.948l2.986,2.7Z" transform="translate(5192.399 -735.137)" fill="#fff"/><path d="M-4485.732,1280.58v1.564h-12.233l-3.982-3.7v-12.517l3.982-3.7h12.233v1.564h-11.521l-2.987,2.7v11.379l2.987,2.7Z" transform="translate(5205.823 -734.973)" fill="#fff"/><path d="M-4477.231,1280.58v1.564h-12.232l-3.982-3.7v-12.517l3.982-3.7h12.232v1.564h-11.521l-2.987,2.7v11.379l2.987,2.7Z" transform="translate(5217.478 -734.973)" fill="#fff"/><path d="M-4467.177,1282.145h-1.707v-17.208l-14.081,17.208h-1.564v-19.913h1.706v17.213l14.082-17.213h1.564Z" transform="translate(5229.697 -734.973)" fill="#fff"/><path d="M-4457.425,1285.763h-1.707v-17.208l-14.081,17.208h-1.564V1265.85h1.706v17.213l14.082-17.213h1.564Zm-5.035-26.171h1.565v1.707l-2.134,1.991h-5.833l-2.133-1.991v-1.707h1.564v1.14l1.138,1h4.694l1.138-1Z" transform="translate(5243.063 -738.592)" fill="#fff"/><path d="M-4448.939,1280.58v1.564h-12.232l-3.981-3.7v-12.517l3.981-3.7h12.232v1.564h-11.521l-2.987,2.7v11.379l2.987,2.7Z" transform="translate(5256.254 -734.973)" fill="#fff"/><path d="M-4454.531,1272.9v9.245h-1.707v-19.913h1.707v9.105h5.974l6.685-9.105h2.135l-7.255,9.672,7.823,10.241h-2.134l-6.969-9.245Z" transform="translate(5268.476 -734.973)" fill="#fff"/><path d="M-4429.879,1282.145h-1.706v-17.208l-14.081,17.208h-1.565v-19.913h1.706v17.213l14.083-17.213h1.563Z" transform="translate(5280.818 -734.973)" fill="#fff"/><path d="M-4420.127,1285.763h-1.706v-17.208l-14.081,17.208h-1.565V1265.85h1.708v17.213l14.081-17.213h1.563Zm-5.035-26.171h1.565v1.707l-2.134,1.991h-5.831l-2.134-1.991v-1.707h1.563v1.14l1.139,1h4.693l1.138-1Z" transform="translate(5294.185 -738.592)" fill="#fff"/><path d="M-4415.11,1282.145h-1.706V1263.8h-7.824v-1.564h17.354v1.564h-7.823Z" transform="translate(5311.783 -734.973)" fill="#fff"/><path d="M-4398.64,1262.232h1.99l-11.378,19.913h-1.992l3.13-5.545h-.712l-8.393-14.368H-4414l7.681,13.088h.143Z" transform="translate(5323.634 -734.973)" fill="#fff"/><path d="M-4392.771,1275.175h-11.55v6.969h-1.706v-19.913h13.227l3.7,3.416v6.116Zm1.963-8.959-2.7-2.42h-10.811v9.817h10.811l2.7-2.42Z" transform="translate(5337.293 -734.973)" fill="#fff"/><path d="M-4395.105,1272.9v9.245h-1.707v-19.913h1.707v9.105h13.654v-9.105h1.708v19.913h-1.708V1272.9Z" transform="translate(5349.923 -734.973)" fill="#fff"/><path d="M-4369.827,1282.145h-1.708v-17.208l-14.081,17.208h-1.565v-19.913h1.708v17.213l14.081-17.213h1.565Z" transform="translate(5363.126 -734.973)" fill="#fff"/><path d="M-4364.171,1275.175h-11.55v6.969h-1.708v-19.913h13.229l3.7,3.416v6.116Zm1.965-8.959-2.705-2.42h-10.81v9.817h10.81l2.705-2.42Z" transform="translate(5376.491 -734.973)" fill="#fff"/><path d="M-4524.31,1274.232h17.069v19.913h-1.708V1275.8H-4522.6v18.349h-1.707Z" transform="translate(5175.173 -718.526)" fill="#fff"/><path d="M-4500.714,1294.6h-10.1l-3.981-3.7v-13.083l3.981-3.7h10.1l3.983,3.7v13.083Zm-.711-1.567,2.986-2.7V1278.38l-2.986-2.7h-8.677l-2.987,2.7v11.948l2.987,2.7Z" transform="translate(5188.214 -718.689)" fill="#fff"/><path d="M-4491.715,1283.764l8.108,10.381h-2.135l-7.111-8.961-6.97,8.961h-2.133l8.107-10.381-7.538-9.532h2.133l6.4,8.252,6.543-8.252h2.134Z" transform="translate(5205.812 -718.526)" fill="#fff"/><path d="M-4478.9,1294.6h-10.1l-3.981-3.7v-13.083l3.981-3.7h10.1l3.983,3.7v13.083Zm-.708-1.567,2.986-2.7V1278.38l-2.986-2.7h-8.68l-2.986,2.7v11.948l2.986,2.7Z" transform="translate(5218.124 -718.689)" fill="#fff"/><path d="M-4481.34,1284.9v9.245h-1.706v-19.913h1.706v9.105h5.974l6.687-9.105h2.133l-7.254,9.672,7.822,10.241h-2.133l-6.97-9.245Z" transform="translate(5231.729 -718.526)" fill="#fff"/><path d="M-4472.333,1284.9v9.245h-1.707v-19.913h1.707v9.105h5.975l6.685-9.105h2.133l-7.254,9.672,7.823,10.241h-2.134l-6.97-9.245Z" transform="translate(5244.073 -718.526)" fill="#fff"/><path d="M-4465.035,1274.232h16.073v1.564h-14.366v7.541h11.379v1.562h-11.379v7.681h14.65v1.564h-16.357Z" transform="translate(5256.417 -718.526)" fill="#fff"/><path d="M-4454.387,1285.063v9.245h-1.707V1274.4h1.707v9.105h5.974v-5.689l3.983-3.7h8.818l3.982,3.7v13.083l-3.982,3.7h-8.818l-3.983-3.7v-5.832Zm10.668-9.388-2.986,2.7v11.948l2.986,2.7h7.4l2.986-2.7V1278.38l-2.986-2.7Z" transform="translate(5268.669 -718.689)" fill="#fff"/><path d="M-4423.439,1292.581v1.564h-12.233l-3.981-3.7v-12.517l3.981-3.7h12.233v1.564h-11.521l-2.987,2.7v11.379l2.987,2.7Z" transform="translate(5291.204 -718.526)" fill="#fff"/><path d="M-4417.483,1287.176h-11.55v6.969h-1.707v-19.913h13.229l3.7,3.416v6.116Zm1.966-8.959-2.705-2.42h-10.811v9.817h10.811l2.705-2.42Z" transform="translate(5303.423 -718.526)" fill="#fff"/><path d="M-4421.523,1274.232h16.072v1.564h-14.366v7.541h11.38v1.562h-11.38v7.681h14.653v1.564h-16.359Z" transform="translate(5316.054 -718.526)" fill="#fff"/><path d="M-4413.183,1292.581h1.136l3.133-2.845,1.138-15.5h13.8v18.349h2.7v5.832h-1.707v-4.267h-18.493v4.267h-1.705Zm5.975-2.276-2.418,2.276h13.937V1275.8h-10.525Z" transform="translate(5327.486 -718.526)" fill="#fff"/><path d="M-4384.665,1294.145h-1.707v-17.208l-14.081,17.208h-1.564v-19.913h1.707v17.213l14.081-17.213h1.564Z" transform="translate(5342.789 -718.526)" fill="#fff"/><path d="M-4543.746,1302.165l1.138-15.933h14.082v19.913h-1.706V1287.8h-10.811l-1,14.935-3.981,3.7h-2.275v-1.567h1.563Z" transform="translate(5142.296 -702.079)" fill="#fff"/><path d="M-4535.816,1297.063v9.245h-1.708V1286.4h1.708v9.105h5.972v-5.69l3.983-3.7h8.819l3.984,3.7v13.084l-3.984,3.7h-8.819l-3.983-3.7v-5.832Zm10.668-9.388-2.986,2.7v11.948l2.986,2.7h7.4l2.987-2.7V1290.38l-2.987-2.7Z" transform="translate(5157.061 -702.242)" fill="#fff"/><path d="M-4511.235,1306.145h-13.656v-19.913h15.789v1.564h-14.081v6.4h11.948l3.7,3.416v5.118Zm-.712-1.564,2.7-2.416v-3.985l-2.7-2.416h-11.236v8.816Z" transform="translate(5174.378 -702.079)" fill="#fff"/><path d="M-4498.112,1306.145h-1.708v-17.208l-14.081,17.208h-1.563v-19.913h1.706v17.213l14.081-17.213h1.565Z" transform="translate(5187.296 -702.079)" fill="#fff"/><path d="M-4496.748,1306.145h-1.708V1287.8h-7.822v-1.564h17.353v1.564h-7.822Z" transform="translate(5199.888 -702.079)" fill="#fff"/><path d="M-4497.093,1286.232h16.072v1.564h-14.366v7.541h11.379v1.562h-11.379v7.681h14.651v1.564h-16.357Z" transform="translate(5212.478 -702.079)" fill="#fff"/><path d="M-4484.141,1302.165l1.138-15.933h14.081v19.913h-1.707V1287.8h-10.809l-1,14.935-3.981,3.7h-2.276v-1.567h1.564Z" transform="translate(5223.991 -702.079)" fill="#fff"/><path d="M-4476.215,1293.913h11.237l3.7,3.416v5.4l-3.7,3.413h-12.943v-19.913h1.706Zm10.526,10.668,2.7-2.416v-4.27l-2.7-2.418h-10.526v9.1Z" transform="translate(5238.755 -702.079)" fill="#fff"/><path d="M-4452.729,1304.581v1.564h-12.233l-3.981-3.7v-12.517l3.981-3.7h12.233v1.564h-11.521l-2.987,2.7v11.379l2.987,2.7Z" transform="translate(5251.058 -702.079)" fill="#fff"/><path d="M-4458.322,1296.9v9.245h-1.706v-19.913h1.706v9.105h5.974l6.685-9.105h2.135l-7.254,9.672,7.822,10.241h-2.133l-6.97-9.245Z" transform="translate(5263.278 -702.079)" fill="#fff"/><path d="M-4433.67,1306.145h-1.706v-17.208l-14.081,17.208h-1.564v-19.913h1.706v17.213l14.082-17.213h1.563Z" transform="translate(5275.622 -702.079)" fill="#fff"/><path d="M-4431.658,1295.764l8.109,10.381h-2.136l-7.111-8.961-6.968,8.961h-2.133l8.107-10.381-7.539-9.532h2.135l6.4,8.252,6.546-8.252h2.133Z" transform="translate(5288.13 -702.079)" fill="#fff"/><path d="M-4427.05,1296.9v9.245h-1.706v-19.913h1.706v9.105h5.974l6.687-9.105h2.133l-7.254,9.672,7.82,10.241h-2.131l-6.97-9.245Z" transform="translate(5306.14 -702.079)" fill="#fff"/><path d="M-4406.222,1306.6h-10.1l-3.982-3.7v-13.084l3.982-3.7h10.1l3.982,3.7v13.084Zm-.712-1.567,2.988-2.7V1290.38l-2.988-2.7h-8.677l-2.986,2.7v11.948l2.986,2.7Z" transform="translate(5317.726 -702.242)" fill="#fff"/><path d="M-4400.278,1301.025l-8.391-11.8v16.924h-1.707v-19.913h1.707l8.96,12.661,8.961-12.661h1.707v19.913h-1.707v-16.924l-8.393,11.8Z" transform="translate(5331.333 -702.079)" fill="#fff"/><path d="M-4394.882,1300.174l-2.845,5.971h-1.85l9.53-19.913h1.423l9.529,19.913h-1.849l-2.845-5.971Zm10.384-1.565-4.836-10.1-4.836,10.1Z" transform="translate(5346.136 -702.079)" fill="#fff"/><path d="M-4387.428,1296.9v9.245h-1.708v-19.913h1.708v9.105h13.655v-9.105h1.706v19.913h-1.706V1296.9Z" transform="translate(5360.446 -702.079)" fill="#fff"/><path d="M-4380.191,1304.581h1.138l3.129-2.845,1.139-15.5h13.8v18.349h2.7v5.832h-1.706v-4.267h-18.492v4.267h-1.706Zm5.975-2.276-2.418,2.276h13.938V1287.8h-10.525Z" transform="translate(5372.706 -702.079)" fill="#fff"/></g></svg>