<svg xmlns="http://www.w3.org/2000/svg" width="338.526" height="109.04" viewBox="0 0 338.526 109.04"><g transform="translate(-530 -7771)"><path d="M5619.492-2296.929v2.987h8.432l2.92-11.419H5642.6v-7.7h-9.759l2.124-8.231h10.956v-7.7h-8.963l2.192-8.431v-2.988h-8.433l-2.92,11.419h-9.958l2.191-8.431v-2.988h-8.432l-2.921,11.419h-11.75v7.7h9.759l-2.123,8.231H5593.6v7.7h8.961l-2.19,8.432v2.987h8.431l2.921-11.419h9.958Zm-5.775-16.133,2.125-8.231h9.958l-2.125,8.231Z" transform="translate(-5063.602 10111.413)" fill="#fff"/><path d="M5657.534-2313.909v10.549h15.592l2.809-2.809v-4.931l-2.809-2.809Zm15.75,6.641-1.256,1.255h-11.842v-5.246h11.842l1.256,1.255Z" transform="translate(-5056.942 10114.175)" fill="#fff"/><path d="M5684.527-2301.644v-10.429l-6.319-6.318h-17.282v-2.568h20.784v-9.348h-31.287v34.982h27.785Zm-31.452,3.667v-29.677h25.983v4.044h-20.783v7.872h18.833l4.766,4.764v8.232l-4.766,4.766Z" transform="translate(-5057.683 10112.468)" fill="#fff"/><path d="M5713.35-2295.324l7.519-7.521v-19.942l-7.519-7.519h-20.773l-7.521,7.519v19.942l7.521,7.521Zm-25.642-26.364,5.967-5.966h18.576l5.966,5.966v17.745l-5.966,5.967h-18.576l-5.967-5.967Z" transform="translate(-5054.075 10112.468)" fill="#fff"/><path d="M5708.73-2302.653l3.547-3.549v-14.492l-3.547-3.548h-13.014l-3.548,3.548v14.492l3.548,3.549Zm-13.91-16.941,1.994-1.995h10.817l1.995,1.995v12.3l-1.995,1.994h-10.817l-1.994-1.994Z" transform="translate(-5053.335 10113.099)" fill="#fff"/><path d="M5725.249-2305.51l-.56.56h-5.625v10.087H5729.3l6.091-6.092,1.6-20h8.534v25.634h10.5v-34.982h-28.782Zm4.447-22.144h23.683v29.677h-5.2v-25.633h-13.634l-1.721,21.47-4.625,4.624h-6.482v-4.783h4.072l2.026-2.027Z" transform="translate(-5050.533 10112.468)" fill="#fff"/><path d="M5792.026-2301.644v-12.414l-6.318-6.319H5769.3v-9.929h-10.5v34.982h26.909Zm-30.574,3.667v-29.677h5.2v9.929h17.959l4.765,4.764v10.218l-4.765,4.766Z" transform="translate(-5046.394 10112.468)" fill="#fff"/><path d="M5765.91-2315.248v11.659h14.761l2.763-2.764v-6.133l-2.763-2.762Zm14.873,7.8-1.209,1.21h-11.011v-6.354h11.012l1.208,1.209Z" transform="translate(-5045.654 10114.034)" fill="#fff"/><path d="M5841.743-2330.306h-10.5v25.633h-8.524v-25.633h-10.5v25.633h-8.525v-25.633h-10.5v34.982h48.56Zm-2.653,32.33h-43.255v-29.677h5.2v25.633h13.83v-25.633h5.2v25.633h13.829v-25.633h5.2Z" transform="translate(-5042.814 10112.468)" fill="#fff"/><path d="M5874.984-2304.674h-21.06v-3.861h15.517v-8.84h-15.517v-3.583h20.6v-9.348h-31.1v34.982h31.564Zm-2.652,6.7h-26.261v-29.677h25.8v4.044h-20.6v8.886h15.518v3.538h-15.518v9.165h21.061Z" transform="translate(-5037.582 10112.468)" fill="#fff"/><path d="M5714.761-2250.37h-1.266v-38.5H5701.06v52.123h18.615l19.806-38.5h1.267v38.5h12.435v-52.123h-18.615Z" transform="translate(-5052.408 10116.784)" fill="#fff"/><path d="M5756.941-2236.744H5769.6v-41.325h29.635v-10.8h-42.294Z" transform="translate(-5046.588 10116.784)" fill="#fff"/><path d="M5802.78-2288.867v52.123h12.659v-14.52h26.137l9.68-9.68v-18.243l-9.68-9.68Zm35.815,23.38-3.5,3.426h-19.659v-16.009H5835.1l3.5,3.425Z" transform="translate(-5041.813 10116.784)" fill="#fff"/><path d="M5885.259-2288.867h-17.721l-20.552,48.4v3.723H5858.9l4.245-10.573h26.135l4.17,10.573h12.286v-3.723Zm-17.8,30.753,7.968-19.732h1.712l7.819,19.732Z" transform="translate(-5037.209 10116.784)" fill="#fff"/><path d="M5618.208-2290.554l-4.45,4.451v21.511l4.45,4.451h78.327l4.45-4.451V-2286.1l-4.45-4.451Zm21.292,24.712h-4.831v-5.6h-9.377l-3.75-3.751v-10.542h4.83v8.809l1.278,1.279h7.019v-10.087h4.831Zm23.67,0h-17.788v-19.891h17.5v4.12h-12.674v3.836h9.548v3.808h-9.548v4.006h12.958Zm28.869,0h-4.746v-14.378h-.454l-4.631,11.507h-4.774l-4.631-11.507h-.455v14.378H5667.6v-19.891h7.331l4.6,11.509h.625l4.6-11.509h7.274Z" transform="translate(-5061.5 10116.608)" fill="#fff"/></g></svg>