<svg xmlns="http://www.w3.org/2000/svg" width="319.694" height="104.432" viewBox="0 0 319.694 104.432"><g transform="translate(-6125.562 3637.488)"><path d="M6156.7-3637.489h-14.99s12.7,7.081,9.529,16.865l-24.365,75.286c19.08-9.6,43.2-18.829,70.07-26.973l21.1-65.177Z" transform="translate(2.661)" fill="#fbfbfb"/><path d="M6125.563-3585.393h48.167c8.072,0,14.646-4.562,16.983-11.782l4.678-14.448a591.675,591.675,0,0,0-67.681,19.588Z" transform="translate(0 52.336)" fill="#fbfbfb"/><path d="M6258.973-3616.286l-10.941,33.8h-29.4L6228.7-3613.6c-22.8,2.461-44.4,5.783-64.461,9.644l-10.287,31.784h138.908c8.076,0,14.653-4.562,16.989-11.781l11.056-34.158C6299.665-3618.342,6278.953-3617.673,6258.973-3616.286Z" transform="translate(57.444 39.115)" fill="#fbfbfb"/><path d="M6346.927-3602.648c-4.627-1.532-26.681-5.643-24.024-13.855l6.794-20.985H6190.785c-8.073,0-14.648,4.562-16.987,11.785l-14.833,45.824c21.155-5.485,43.419-10.228,65.855-13.95l5.337-16.483c3.165-9.786-15.81-15.5-20.5-16.864h55.357l-9.36,28.915c17.293-2.1,34.429-3.514,50.976-4.088q5.947-.2,11.77-.253c1.566-.018,3.146-.047,4.7-.047,9.253,0,17.377.094,24.521.273C6347.408-3602.466,6347.2-3602.557,6346.927-3602.648Z" transform="translate(67.586)" fill="#fbfbfb"/><path d="M6240.481-3604.857l16.353-4.031-13.735-4.031.856-15.042-8.917,15.042-16.353,4.031,13.735,4.031-.858,15.042,8.919-15.042Z" transform="translate(188.422 19.277)" fill="#fbfbfb"/></g></svg>