<svg xmlns="http://www.w3.org/2000/svg" width="639.727" height="107.934" viewBox="0 0 639.727 107.934"><g transform="translate(-285 -225.847)"><g transform="translate(-4131.755 3751.44)" fill="none"><path d="M5017.834-3497.735l-20.134,5.4,20.134,5.394,5.393,20.132,5.4-20.132,20.131-5.394-20.131-5.4-5.4-20.132Z" stroke="none"/><path d="M 5023.2275390625 -3517.8671875 L 5017.83447265625 -3497.735107421875 L 4997.7001953125 -3492.340087890625 L 5017.83447265625 -3486.9462890625 L 5023.2275390625 -3466.81396484375 L 5028.6240234375 -3486.9462890625 L 5048.7548828125 -3492.340087890625 L 5028.6240234375 -3497.735107421875 L 5023.2275390625 -3517.8671875 M 5023.22705078125 -3525.593994140625 L 5025.1591796875 -3518.385009765625 L 5030.2568359375 -3499.3681640625 L 5049.2724609375 -3494.27197265625 L 5056.48193359375 -3492.33984375 L 5049.2724609375 -3490.408203125 L 5030.2568359375 -3485.313232421875 L 5025.1591796875 -3466.296142578125 L 5023.22705078125 -3459.0869140625 L 5021.2958984375 -3466.29638671875 L 5016.20166015625 -3485.313232421875 L 4997.1826171875 -3490.408203125 L 4989.97216796875 -3492.33984375 L 4997.1826171875 -3494.27197265625 L 5016.201171875 -3499.3681640625 L 5021.2958984375 -3518.384765625 L 5023.22705078125 -3525.593994140625 Z" stroke="none" fill="#fff"/></g><g transform="translate(-4526.682 3788.956)" fill="none"><path d="M4883.162-3506.023l-10.155,10.139v28.575l10.155,10.134h29.913l10.151-10.134v-28.575l-10.151-10.139Zm28.64,34.8-4.429,4.421h-18.515l-4.429-4.421v-20.748l.093-.093,4.336-4.325h18.515l.088.088,4.341,4.33Z" stroke="none"/><path d="M 4883.16162109375 -3506.0234375 L 4873.0068359375 -3495.884765625 L 4873.0068359375 -3467.3095703125 L 4883.16162109375 -3457.17578125 L 4913.07470703125 -3457.17578125 L 4923.22607421875 -3467.3095703125 L 4923.22607421875 -3495.884765625 L 4913.07470703125 -3506.0234375 L 4883.16162109375 -3506.0234375 M 4907.37255859375 -3466.802490234375 L 4888.85791015625 -3466.802490234375 L 4884.4287109375 -3471.2236328125 L 4884.4287109375 -3491.97119140625 L 4884.521484375 -3492.06396484375 L 4888.85791015625 -3496.38916015625 L 4907.37255859375 -3496.38916015625 L 4907.4609375 -3496.30126953125 L 4911.8017578125 -3491.97119140625 L 4911.8017578125 -3471.2236328125 L 4907.37255859375 -3466.802490234375 M 4882.333984375 -3508.0234375 L 4883.16162109375 -3508.0234375 L 4913.07470703125 -3508.0234375 L 4913.90234375 -3508.0234375 L 4914.48828125 -3507.4384765625 L 4924.63916015625 -3497.2998046875 L 4925.22607421875 -3496.7138671875 L 4925.22607421875 -3495.884765625 L 4925.22607421875 -3467.3095703125 L 4925.22607421875 -3466.480224609375 L 4924.63916015625 -3465.89404296875 L 4914.48779296875 -3455.76025390625 L 4913.90234375 -3455.17578125 L 4913.07470703125 -3455.17578125 L 4883.16162109375 -3455.17578125 L 4882.33447265625 -3455.17578125 L 4881.7490234375 -3455.760009765625 L 4871.59423828125 -3465.893798828125 L 4871.0068359375 -3466.47998046875 L 4871.0068359375 -3467.3095703125 L 4871.0068359375 -3495.884765625 L 4871.0068359375 -3496.714111328125 L 4871.59375 -3497.300048828125 L 4881.74853515625 -3507.438720703125 L 4882.333984375 -3508.0234375 Z M 4906.5458984375 -3494.38916015625 L 4889.68505859375 -3494.38916015625 L 4886.4287109375 -3491.1416015625 L 4886.4287109375 -3472.05322265625 L 4889.68505859375 -3468.802490234375 L 4906.54541015625 -3468.802490234375 L 4909.8017578125 -3472.05322265625 L 4909.8017578125 -3491.141357421875 L 4906.5458984375 -3494.38916015625 Z" stroke="none" fill="#fff"/></g><g transform="translate(-4480.945 3788.958)" fill="none"><path d="M4898.867-3484.3v-21.726h-11.417v25.78l9.164,9.147h23.546v13.917h11.415v-48.844h-11.415v25.085H4902.23Z" stroke="none"/><path d="M 4887.44921875 -3506.0224609375 L 4887.44921875 -3480.24267578125 L 4896.61328125 -3471.095458984375 L 4920.1591796875 -3471.095458984375 L 4920.1591796875 -3457.178466796875 L 4931.57421875 -3457.178466796875 L 4931.57421875 -3506.0224609375 L 4920.1591796875 -3506.0224609375 L 4920.1591796875 -3480.9375 L 4902.22998046875 -3480.9375 L 4898.86669921875 -3484.296875 L 4898.86669921875 -3506.0224609375 L 4887.44921875 -3506.0224609375 M 4885.44921875 -3508.0224609375 L 4887.44921875 -3508.0224609375 L 4898.86669921875 -3508.0224609375 L 4900.86669921875 -3508.0224609375 L 4900.86669921875 -3506.0224609375 L 4900.86669921875 -3485.1259765625 L 4903.0576171875 -3482.9375 L 4918.1591796875 -3482.9375 L 4918.1591796875 -3506.0224609375 L 4918.1591796875 -3508.0224609375 L 4920.1591796875 -3508.0224609375 L 4931.57421875 -3508.0224609375 L 4933.57421875 -3508.0224609375 L 4933.57421875 -3506.0224609375 L 4933.57421875 -3457.178466796875 L 4933.57421875 -3455.178466796875 L 4931.57421875 -3455.178466796875 L 4920.1591796875 -3455.178466796875 L 4918.1591796875 -3455.178466796875 L 4918.1591796875 -3457.178466796875 L 4918.1591796875 -3469.095458984375 L 4896.61328125 -3469.095458984375 L 4895.7861328125 -3469.095458984375 L 4895.2001953125 -3469.679931640625 L 4886.0361328125 -3478.8271484375 L 4885.44921875 -3479.4130859375 L 4885.44921875 -3480.24267578125 L 4885.44921875 -3506.0224609375 L 4885.44921875 -3508.0224609375 Z" stroke="none" fill="#fff"/></g><g transform="translate(-4437.144 3788.958)" fill="none"><path d="M4912.7-3506.022h-11.42v48.844h11.42v-19.569h24.4v19.569h11.421v-48.844H4937.1v19.433h-24.4Z" stroke="none"/><path d="M 4901.2763671875 -3506.0224609375 L 4901.2763671875 -3457.178466796875 L 4912.69677734375 -3457.178466796875 L 4912.69677734375 -3476.747802734375 L 4937.0986328125 -3476.747802734375 L 4937.0986328125 -3457.178466796875 L 4948.52001953125 -3457.178466796875 L 4948.52001953125 -3506.0224609375 L 4937.0986328125 -3506.0224609375 L 4937.0986328125 -3486.589111328125 L 4912.69677734375 -3486.589111328125 L 4912.69677734375 -3506.0224609375 L 4901.2763671875 -3506.0224609375 M 4899.2763671875 -3508.0224609375 L 4901.2763671875 -3508.0224609375 L 4912.69677734375 -3508.0224609375 L 4914.69677734375 -3508.0224609375 L 4914.69677734375 -3506.0224609375 L 4914.69677734375 -3488.589111328125 L 4935.0986328125 -3488.589111328125 L 4935.0986328125 -3506.0224609375 L 4935.0986328125 -3508.0224609375 L 4937.0986328125 -3508.0224609375 L 4948.52001953125 -3508.0224609375 L 4950.52001953125 -3508.0224609375 L 4950.52001953125 -3506.0224609375 L 4950.52001953125 -3457.178466796875 L 4950.52001953125 -3455.178466796875 L 4948.52001953125 -3455.178466796875 L 4937.0986328125 -3455.178466796875 L 4935.0986328125 -3455.178466796875 L 4935.0986328125 -3457.178466796875 L 4935.0986328125 -3474.747802734375 L 4914.69677734375 -3474.747802734375 L 4914.69677734375 -3457.178466796875 L 4914.69677734375 -3455.178466796875 L 4912.69677734375 -3455.178466796875 L 4901.2763671875 -3455.178466796875 L 4899.2763671875 -3455.178466796875 L 4899.2763671875 -3457.178466796875 L 4899.2763671875 -3506.0224609375 L 4899.2763671875 -3508.0224609375 Z" stroke="none" fill="#fff"/></g><g transform="translate(-4394.852 3788.958)" fill="none"><path d="M4934.07-3506.021l-19.439,45.68v3.163h10.81l4.038-10.031h25.266l3.963,10.031h11.173v-3.163l-19.37-45.68Zm-.73,29.183,7.82-19.345h2.045l.08.2,7.592,19.148Z" stroke="none"/><path d="M 4934.06982421875 -3506.021484375 L 4914.630859375 -3460.341064453125 L 4914.630859375 -3457.177978515625 L 4925.44091796875 -3457.177978515625 L 4929.478515625 -3467.20849609375 L 4954.74462890625 -3467.20849609375 L 4958.70751953125 -3457.177978515625 L 4969.880859375 -3457.177978515625 L 4969.880859375 -3460.341064453125 L 4950.51123046875 -3506.021484375 L 4934.06982421875 -3506.021484375 M 4950.876953125 -3476.838134765625 L 4933.33935546875 -3476.838134765625 L 4941.1591796875 -3496.182861328125 L 4943.20458984375 -3496.182861328125 L 4943.28466796875 -3495.986328125 L 4950.876953125 -3476.838134765625 M 4932.74755859375 -3508.021484375 L 4934.06982421875 -3508.021484375 L 4950.51123046875 -3508.021484375 L 4951.83544921875 -3508.021484375 L 4952.3525390625 -3506.80224609375 L 4971.72216796875 -3461.121826171875 L 4971.880859375 -3460.74755859375 L 4971.880859375 -3460.341064453125 L 4971.880859375 -3457.177978515625 L 4971.880859375 -3455.177978515625 L 4969.880859375 -3455.177978515625 L 4958.70751953125 -3455.177978515625 L 4957.34716796875 -3455.177978515625 L 4956.84765625 -3456.443115234375 L 4953.38427734375 -3465.20849609375 L 4930.82958984375 -3465.20849609375 L 4927.29638671875 -3456.43115234375 L 4926.7919921875 -3455.177978515625 L 4925.44091796875 -3455.177978515625 L 4914.630859375 -3455.177978515625 L 4912.630859375 -3455.177978515625 L 4912.630859375 -3457.177978515625 L 4912.630859375 -3460.341064453125 L 4912.630859375 -3460.7490234375 L 4912.79052734375 -3461.124267578125 L 4932.2294921875 -3506.8046875 L 4932.74755859375 -3508.021484375 Z M 4947.9326171875 -3478.838134765625 L 4942.1748046875 -3493.359130859375 L 4936.30517578125 -3478.838134765625 L 4947.9326171875 -3478.838134765625 Z" stroke="none" fill="#fff"/></g><g transform="translate(-4347.823 3788.958)" fill="none"><path d="M4929.48-3460.312v3.134h11.205l9.693-15.544h14.71v15.544h11.424v-48.844h-36.877l-9.026,9v14.87l7.8,7.717Zm12.552-32.654.091-.087,3.842-3.767h19.124v14.894h-19.124l-3.933-3.857Z" stroke="none"/><path d="M 4976.513671875 -3457.177978515625 L 4976.513671875 -3506.021484375 L 4939.63623046875 -3506.021484375 L 4930.6103515625 -3497.0205078125 L 4930.6103515625 -3482.15087890625 L 4938.40966796875 -3474.43359375 L 4929.48046875 -3460.311767578125 L 4929.48046875 -3457.177978515625 L 4940.685546875 -3457.177978515625 L 4950.37890625 -3472.721923828125 L 4965.08935546875 -3472.721923828125 L 4965.08935546875 -3457.177978515625 L 4976.513671875 -3457.177978515625 M 4945.96533203125 -3496.8193359375 L 4965.08935546875 -3496.8193359375 L 4965.08935546875 -3481.925537109375 L 4945.96533203125 -3481.925537109375 L 4942.03271484375 -3485.7822265625 L 4942.03271484375 -3492.9658203125 L 4942.12353515625 -3493.052490234375 L 4945.96533203125 -3496.8193359375 M 4978.513671875 -3455.177978515625 L 4976.513671875 -3455.177978515625 L 4965.08935546875 -3455.177978515625 L 4963.08935546875 -3455.177978515625 L 4963.08935546875 -3457.177978515625 L 4963.08935546875 -3470.721923828125 L 4951.48876953125 -3470.721923828125 L 4942.3828125 -3456.11962890625 L 4941.79541015625 -3455.177978515625 L 4940.685546875 -3455.177978515625 L 4929.48046875 -3455.177978515625 L 4927.48046875 -3455.177978515625 L 4927.48046875 -3457.177978515625 L 4927.48046875 -3460.311767578125 L 4927.48046875 -3460.89111328125 L 4927.7900390625 -3461.380615234375 L 4935.85986328125 -3474.14306640625 L 4929.20361328125 -3480.729248046875 L 4928.6103515625 -3481.316162109375 L 4928.6103515625 -3482.15087890625 L 4928.6103515625 -3497.0205078125 L 4928.6103515625 -3497.8505859375 L 4929.1982421875 -3498.436767578125 L 4938.22412109375 -3507.437744140625 L 4938.8095703125 -3508.021484375 L 4939.63623046875 -3508.021484375 L 4976.513671875 -3508.021484375 L 4978.513671875 -3508.021484375 L 4978.513671875 -3506.021484375 L 4978.513671875 -3457.177978515625 L 4978.513671875 -3455.177978515625 Z M 4946.7822265625 -3483.925537109375 L 4963.08935546875 -3483.925537109375 L 4963.08935546875 -3494.8193359375 L 4946.7822265625 -3494.8193359375 L 4944.03271484375 -3492.12353515625 L 4944.03271484375 -3486.6220703125 L 4946.7822265625 -3483.925537109375 Z" stroke="none" fill="#fff"/></g><g transform="translate(-4571.771 3788.958)" fill="none"><path d="M4870.188-3506.022h-11.417v48.844h11.417v-19.569h24.4v19.569h11.42v-48.844h-11.42v19.433h-24.4Z" stroke="none"/><path d="M 4858.77099609375 -3506.0224609375 L 4858.77099609375 -3457.178466796875 L 4870.1884765625 -3457.178466796875 L 4870.1884765625 -3476.747802734375 L 4894.5927734375 -3476.747802734375 L 4894.5927734375 -3457.178466796875 L 4906.0126953125 -3457.178466796875 L 4906.0126953125 -3506.0224609375 L 4894.5927734375 -3506.0224609375 L 4894.5927734375 -3486.589111328125 L 4870.1884765625 -3486.589111328125 L 4870.1884765625 -3506.0224609375 L 4858.77099609375 -3506.0224609375 M 4856.77099609375 -3508.0224609375 L 4858.77099609375 -3508.0224609375 L 4870.1884765625 -3508.0224609375 L 4872.1884765625 -3508.0224609375 L 4872.1884765625 -3506.0224609375 L 4872.1884765625 -3488.589111328125 L 4892.5927734375 -3488.589111328125 L 4892.5927734375 -3506.0224609375 L 4892.5927734375 -3508.0224609375 L 4894.5927734375 -3508.0224609375 L 4906.0126953125 -3508.0224609375 L 4908.0126953125 -3508.0224609375 L 4908.0126953125 -3506.0224609375 L 4908.0126953125 -3457.178466796875 L 4908.0126953125 -3455.178466796875 L 4906.0126953125 -3455.178466796875 L 4894.5927734375 -3455.178466796875 L 4892.5927734375 -3455.178466796875 L 4892.5927734375 -3457.178466796875 L 4892.5927734375 -3474.747802734375 L 4872.1884765625 -3474.747802734375 L 4872.1884765625 -3457.178466796875 L 4872.1884765625 -3455.178466796875 L 4870.1884765625 -3455.178466796875 L 4858.77099609375 -3455.178466796875 L 4856.77099609375 -3455.178466796875 L 4856.77099609375 -3457.178466796875 L 4856.77099609375 -3506.0224609375 L 4856.77099609375 -3508.0224609375 Z" stroke="none" fill="#fff"/></g><g transform="translate(-4192.402 3788.433)" fill="none"><path d="M4989.971-3496.557h28.182v-9.631h-39.6v48.842h11.417Z" stroke="none"/><path d="M 4978.5537109375 -3506.187744140625 L 4978.5537109375 -3457.345703125 L 4989.97119140625 -3457.345703125 L 4989.97119140625 -3496.556884765625 L 5018.15283203125 -3496.556884765625 L 5018.15283203125 -3506.187744140625 L 4978.5537109375 -3506.187744140625 M 4976.5537109375 -3508.187744140625 L 4978.5537109375 -3508.187744140625 L 5018.15283203125 -3508.187744140625 L 5020.15283203125 -3508.187744140625 L 5020.15283203125 -3506.187744140625 L 5020.15283203125 -3496.556884765625 L 5020.15283203125 -3494.556884765625 L 5018.15283203125 -3494.556884765625 L 4991.97119140625 -3494.556884765625 L 4991.97119140625 -3457.345703125 L 4991.97119140625 -3455.345703125 L 4989.97119140625 -3455.345703125 L 4978.5537109375 -3455.345703125 L 4976.5537109375 -3455.345703125 L 4976.5537109375 -3457.345703125 L 4976.5537109375 -3506.187744140625 L 4976.5537109375 -3508.187744140625 Z" stroke="none" fill="#fff"/></g><g transform="translate(-4165.657 3788.433)" fill="none"><path d="M5006.433-3506.188,4987-3460.508v3.162h10.808l4.04-10.03h25.266l.074.2,3.89,9.833h11.161v-3.162l-19.363-45.68Zm-.731,29.182,7.822-19.339h2.048l.076.191,7.594,19.148Z" stroke="none"/><path d="M 5006.4326171875 -3506.187744140625 L 4986.99755859375 -3460.5078125 L 4986.99755859375 -3457.345703125 L 4997.80517578125 -3457.345703125 L 5001.84521484375 -3467.375244140625 L 5027.11083984375 -3467.375244140625 L 5027.1845703125 -3467.17919921875 L 5031.07421875 -3457.345703125 L 5042.23486328125 -3457.345703125 L 5042.23486328125 -3460.5078125 L 5022.87158203125 -3506.187744140625 L 5006.4326171875 -3506.187744140625 M 5023.2412109375 -3477.00537109375 L 5005.701171875 -3477.00537109375 L 5013.5234375 -3496.344482421875 L 5015.5712890625 -3496.344482421875 L 5015.64697265625 -3496.153564453125 L 5023.2412109375 -3477.00537109375 M 5005.10986328125 -3508.187744140625 L 5006.4326171875 -3508.187744140625 L 5022.87158203125 -3508.187744140625 L 5024.1962890625 -3508.187744140625 L 5024.712890625 -3506.96826171875 L 5044.076171875 -3461.288330078125 L 5044.23486328125 -3460.914306640625 L 5044.23486328125 -3460.5078125 L 5044.23486328125 -3457.345703125 L 5044.23486328125 -3455.345703125 L 5042.23486328125 -3455.345703125 L 5031.07421875 -3455.345703125 L 5029.71435546875 -3455.345703125 L 5029.21435546875 -3456.610107421875 L 5025.74755859375 -3465.375244140625 L 5003.19580078125 -3465.375244140625 L 4999.66015625 -3456.598388671875 L 4999.15576171875 -3455.345703125 L 4997.80517578125 -3455.345703125 L 4986.99755859375 -3455.345703125 L 4984.99755859375 -3455.345703125 L 4984.99755859375 -3457.345703125 L 4984.99755859375 -3460.5078125 L 4984.99755859375 -3460.91552734375 L 4985.1572265625 -3461.290771484375 L 5004.59228515625 -3506.970703125 L 5005.10986328125 -3508.187744140625 Z M 5020.29638671875 -3479.00537109375 L 5014.5390625 -3493.52197265625 L 5008.66748046875 -3479.00537109375 L 5020.29638671875 -3479.00537109375 Z" stroke="none" fill="#fff"/></g><g transform="translate(-4289.281 3788.429)" fill="none"><path d="M4947.964-3467.405v10.757h12.358l7.849-7.8,4.5-32.1h17.084v39.214h11.438v-48.849h-38.623l-5.179,36.6-.073.073-2.105,2.106Z" stroke="none"/><path d="M 4960.322265625 -3456.648193359375 L 4968.17138671875 -3464.450439453125 L 4972.6669921875 -3496.55419921875 L 4989.75146484375 -3496.55419921875 L 4989.75146484375 -3457.33984375 L 5001.189453125 -3457.33984375 L 5001.189453125 -3506.1884765625 L 4962.56640625 -3506.1884765625 L 4957.38720703125 -3469.58447265625 L 4957.314453125 -3469.510986328125 L 4955.208984375 -3467.405029296875 L 4947.9638671875 -3467.405029296875 L 4947.9638671875 -3456.648193359375 L 4960.322265625 -3456.648193359375 M 4961.14697265625 -3454.648193359375 L 4960.322265625 -3454.648193359375 L 4947.9638671875 -3454.648193359375 L 4945.9638671875 -3454.648193359375 L 4945.9638671875 -3456.648193359375 L 4945.9638671875 -3467.405029296875 L 4945.9638671875 -3469.405029296875 L 4947.9638671875 -3469.405029296875 L 4954.38037109375 -3469.405029296875 L 4955.50048828125 -3470.525390625 L 4960.5859375 -3506.46875 L 4960.82958984375 -3508.1884765625 L 4962.56640625 -3508.1884765625 L 5001.189453125 -3508.1884765625 L 5003.189453125 -3508.1884765625 L 5003.189453125 -3506.1884765625 L 5003.189453125 -3457.33984375 L 5003.189453125 -3455.33984375 L 5001.189453125 -3455.33984375 L 4989.75146484375 -3455.33984375 L 4987.75146484375 -3455.33984375 L 4987.75146484375 -3457.33984375 L 4987.75146484375 -3494.55419921875 L 4974.40625 -3494.55419921875 L 4970.15185546875 -3464.173095703125 L 4970.05859375 -3463.506591796875 L 4969.58154296875 -3463.031982421875 L 4961.732421875 -3455.229736328125 L 4961.14697265625 -3454.648193359375 Z" stroke="none" fill="#fff"/></g><g transform="translate(-4238.568 3788.431)" fill="none"><path d="M4975.4-3506.188h-11.426v48.847h12.265l22.228-31.678h1.332v31.678h11.426v-48.847h-12.268l-22.22,31.677H4975.4Z" stroke="none"/><path d="M 4963.9755859375 -3506.187744140625 L 4963.9755859375 -3457.341064453125 L 4976.240234375 -3457.341064453125 L 4998.4677734375 -3489.018798828125 L 4999.79931640625 -3489.018798828125 L 4999.79931640625 -3457.341064453125 L 5011.2255859375 -3457.341064453125 L 5011.2255859375 -3506.187744140625 L 4998.95751953125 -3506.187744140625 L 4976.7373046875 -3474.510498046875 L 4975.40185546875 -3474.510498046875 L 4975.40185546875 -3506.187744140625 L 4963.9755859375 -3506.187744140625 M 4961.9755859375 -3508.187744140625 L 4963.9755859375 -3508.187744140625 L 4975.40185546875 -3508.187744140625 L 4977.40185546875 -3508.187744140625 L 4977.40185546875 -3506.187744140625 L 4977.40185546875 -3478.940673828125 L 4997.3203125 -3507.336181640625 L 4997.91748046875 -3508.187744140625 L 4998.95751953125 -3508.187744140625 L 5011.2255859375 -3508.187744140625 L 5013.2255859375 -3508.187744140625 L 5013.2255859375 -3506.187744140625 L 5013.2255859375 -3457.341064453125 L 5013.2255859375 -3455.341064453125 L 5011.2255859375 -3455.341064453125 L 4999.79931640625 -3455.341064453125 L 4997.79931640625 -3455.341064453125 L 4997.79931640625 -3457.341064453125 L 4997.79931640625 -3484.584228515625 L 4977.87744140625 -3456.1923828125 L 4977.2802734375 -3455.341064453125 L 4976.240234375 -3455.341064453125 L 4963.9755859375 -3455.341064453125 L 4961.9755859375 -3455.341064453125 L 4961.9755859375 -3457.341064453125 L 4961.9755859375 -3506.187744140625 L 4961.9755859375 -3508.187744140625 Z" stroke="none" fill="#fff"/></g></g></svg>