<svg xmlns="http://www.w3.org/2000/svg" width="604.51" height="118.229" viewBox="0 0 604.51 118.229"><g transform="translate(-629.999 -4576.001)"><path d="M-4509.552,1429.725v-6.05h4.031v6.05h18.809l7.726,7.048v26.2l-7.726,7.059h-18.809v6.045h-4.031v-6.045h-18.809l-7.724-7.059v-26.2l7.724-7.048Zm0,3.695h-17.127l-5.374,4.7v23.511l5.374,4.7h17.127Zm21.16,0h-17.129v32.915h17.129l5.374-4.7v-23.511Z" transform="translate(5170.449 3152.326)" fill="#fff"/><path d="M-4523.674,1424.274h37.951v3.695h-33.921v17.806h26.871v3.689h-26.871V1467.6h34.595v3.694h-38.624Z" transform="translate(5227.501 3155.085)" fill="#fff"/><path d="M-4476.859,1467.6v3.694h-28.886l-9.4-8.727v-29.556l9.4-8.739h28.886v3.695h-27.205l-7.055,6.387v26.869l7.055,6.376Z" transform="translate(5266.7 3155.085)" fill="#fff"/><path d="M-4484.208,1471.295h-4.032v-43.326h-18.471v-3.695h40.975v3.695h-18.471Z" transform="translate(5305.486 3155.085)" fill="#fff"/><path d="M-4456.551,1471.295h-4.029v-40.633l-33.253,40.633h-3.692v-47.021h4.029v40.645l33.248-40.645h3.7Z" transform="translate(5347.722 3155.085)" fill="#fff"/><path d="M-4453.45,1446.106l6.986,6.313v11.828l-7.724,7.047h-33.587v-47.021h31.237l7.724,7.059v10.406Zm.6-13.435-5.373-4.7h-25.527V1445.1h25.863l5.037-4.7Zm-3.023,34.93,5.374-4.7v-9.068l-5.707-5.033h-27.544v18.8Z" transform="translate(5392.56 3155.085)" fill="#fff"/><path d="M-4467.94,1457.195l-6.719,14.1h-4.366l22.5-47.021h3.356l22.5,47.021h-4.364l-6.718-14.1Zm24.516-3.695-11.419-23.852-11.421,23.852Z" transform="translate(5432.779 3155.085)" fill="#fff"/><path d="M-4458.38,1461.9l2.687-37.622h33.25v47.021h-4.03v-43.326H-4452l-2.35,35.266-9.406,8.738h-5.373v-3.7h3.694Z" transform="translate(5478.297 3155.085)" fill="#fff"/><path d="M-4454.324,1442.411h26.532l8.734,8.066v12.757l-8.734,8.061h-30.563v-47.021h4.031Zm24.855,25.19,6.379-5.7v-10.082l-6.379-5.709h-24.855V1467.6Z" transform="translate(5527.824 3155.085)" fill="#fff"/><path d="M-4512.683,1458.783l19.145,24.513h-5.037l-16.794-21.16-16.456,21.16h-5.037l19.143-24.513-17.8-22.508h5.037l15.113,19.485,15.45-19.485h5.039Z" transform="translate(5166.863 3210.257)" fill="#fff"/><path d="M-4494.63,1484.519h-23.848l-9.4-8.738v-30.9l9.4-8.727h23.848l9.4,8.727v30.9Zm-1.682-3.7,7.055-6.376v-28.212l-7.055-6.388H-4516.8l-7.055,6.388v28.212l7.055,6.376Z" transform="translate(5208.159 3209.71)" fill="#fff"/><path d="M-4513.922,1461.464V1483.3h-4.031v-47.021h4.031v21.5h14.106l15.784-21.5h5.037l-17.129,22.838,18.477,24.182h-5.04l-16.458-21.832Z" transform="translate(5253.798 3210.257)" fill="#fff"/><path d="M-4504.916,1461.464V1483.3h-4.031v-47.021h4.031v21.5h14.106l15.784-21.5h5.04l-17.129,22.838,18.472,24.182h-5.037l-16.456-21.832Z" transform="translate(5295.205 3210.257)" fill="#fff"/><path d="M-4499.943,1436.275h37.953v3.694h-33.923v17.806h26.871v3.689h-26.871V1479.6h34.595v3.695h-38.625Z" transform="translate(5336.616 3210.257)" fill="#fff"/><path d="M-4479.61,1464.486l-8.061-7.383v-12.768l8.734-8.06h29.89V1483.3h-4.029v-18.137h-22.166l-11.418,18.137h-4.7Zm2.355-24.517-6.384,5.715v10.075l6.384,5.7,24.179-.067v-21.427Z" transform="translate(5376.064 3210.257)" fill="#fff"/><path d="M-4442.995,1458.106l6.986,6.314v11.828l-7.729,7.048h-33.584v-47.021h31.234l7.729,7.058v10.406Zm.6-13.435-5.372-4.7h-25.526V1457.1h25.86l5.037-4.7Zm-3.021,34.93,5.373-4.7v-9.068l-5.71-5.033h-27.54v18.8Z" transform="translate(5440.612 3210.257)" fill="#fff"/><path d="M-4425.6,1479.6v3.695h-28.886l-9.4-8.727v-29.556l9.4-8.738h28.886v3.694H-4452.8l-7.055,6.387v26.869l7.055,6.376Z" transform="translate(5502.403 3210.257)" fill="#fff"/><path d="M-4422.078,1484.519h-23.845l-9.4-8.738v-30.9l9.4-8.727h23.845l9.405,8.727v30.9Zm-1.679-3.7,7.053-6.376v-28.212l-7.053-6.388h-20.487l-7.052,6.388v28.212l7.052,6.376Z" transform="translate(5541.74 3209.71)" fill="#fff"/><path d="M-4445.576,1457.775v-21.5h4.031v20.156l6.045,5.374h24.855v-25.531h4.029V1483.3h-4.029v-17.8h-26.534Z" transform="translate(5586.566 3210.257)" fill="#fff"/><path d="M-4395.21,1483.3h-4.03v-40.634L-4432.5,1483.3h-3.692v-47.021h4.033v40.645l33.244-40.645h3.7Z" transform="translate(5629.72 3210.257)" fill="#fff"/></g></svg>