<svg xmlns="http://www.w3.org/2000/svg" width="279.375" height="76.4" viewBox="0 0 279.375 76.4"><g transform="translate(-492.7 -3536.55)"><path d="M55.1,0H5.7V-16.15H19.95v-34.2H5.7V-66.5H40.85v50.35H55.1ZM89.775-51.3l-2.85,2.85v30.4l2.85,2.85h19.95l2.85-2.85v-30.4l-2.85-2.85ZM79.325-67.45h40.85l13.3,12.35v43.7L120.175.95H79.325L66.025-11.4V-55.1Zm63.65,39.9,13.3-12.35h25.65l4.275-3.8v-4.275l-2.375-2.375H145.35V-66.5h50.825L207.1-56.525V-37.05L193.8-24.7H168.15l-4.275,3.8v4.75h40.85V0h-61.75Zm70.775-22.8V-66.5h60.325v13.775L246.05,0H223.725l27.55-50.35Z" transform="translate(497 3605)" fill="none" stroke="#c8132c" stroke-width="2"/><path d="M55.1,0H5.7V-16.15H19.95v-34.2H5.7V-66.5H40.85v50.35H55.1ZM89.775-51.3l-2.85,2.85v30.4l2.85,2.85h19.95l2.85-2.85v-30.4l-2.85-2.85ZM79.325-67.45h40.85l13.3,12.35v43.7L120.175.95H79.325L66.025-11.4V-55.1Zm63.65,39.9,13.3-12.35h25.65l4.275-3.8v-4.275l-2.375-2.375H145.35V-66.5h50.825L207.1-56.525V-37.05L193.8-24.7H168.15l-4.275,3.8v4.75h40.85V0h-61.75Zm70.775-22.8V-66.5h60.325v13.775L246.05,0H223.725l27.55-50.35Z" transform="translate(488 3611)" fill="none" stroke="#1f86ff" stroke-width="2"/></g></svg>