<svg xmlns="http://www.w3.org/2000/svg" width="353.946" height="73.36" viewBox="0 0 353.946 73.36"><g transform="translate(-838.58 -3539.52)"><path d="M3.08-25.52,15.4-36.96H39.16l3.96-3.52v-3.96l-2.2-2.2H5.28V-61.6H52.36l10.12,9.24v18.04L50.16-22.88H26.4l-3.96,3.52v4.4H60.28V0H3.08Zm88.88-22-2.64,2.64v28.16l2.64,2.64h18.48l2.64-2.64V-44.88l-2.64-2.64ZM82.28-62.48h37.84l12.32,11.44v40.48L120.12.88H82.28L69.96-10.56V-51.04Zm80.96,14.96-2.64,2.64v28.16l2.64,2.64h18.48l2.64-2.64V-44.88l-2.64-2.64Zm-9.68-14.96H191.4l12.32,11.44v40.48L191.4.88H153.56L141.24-10.56V-51.04Zm80.96,14.96-2.64,2.64v28.16l2.64,2.64H253l2.64-2.64V-44.88L253-47.52Zm-9.68-14.96h37.84L275-51.04v40.48L262.68.88H224.84L212.52-10.56V-51.04ZM305.8-47.52l-2.64,2.64v28.16l2.64,2.64h18.48l2.64-2.64V-44.88l-2.64-2.64Zm-9.68-14.96h37.84l12.32,11.44v40.48L333.96.88H296.12L283.8-10.56V-51.04Z" transform="translate(836.5 3611)" fill="none" stroke="#1f86ff" stroke-width="2"/><path d="M3.08-25.52,15.4-36.96H39.16l3.96-3.52v-3.96l-2.2-2.2H5.28V-61.6H52.36l10.12,9.24v18.04L50.16-22.88H26.4l-3.96,3.52v4.4H60.28V0H3.08Zm88.88-22-2.64,2.64v28.16l2.64,2.64h18.48l2.64-2.64V-44.88l-2.64-2.64ZM82.28-62.48h37.84l12.32,11.44v40.48L120.12.88H82.28L69.96-10.56V-51.04Zm80.96,14.96-2.64,2.64v28.16l2.64,2.64h18.48l2.64-2.64V-44.88l-2.64-2.64Zm-9.68-14.96H191.4l12.32,11.44v40.48L191.4.88H153.56L141.24-10.56V-51.04Zm80.96,14.96-2.64,2.64v28.16l2.64,2.64H253l2.64-2.64V-44.88L253-47.52Zm-9.68-14.96h37.84L275-51.04v40.48L262.68.88H224.84L212.52-10.56V-51.04ZM305.8-47.52l-2.64,2.64v28.16l2.64,2.64h18.48l2.64-2.64V-44.88l-2.64-2.64Zm-9.68-14.96h37.84l12.32,11.44v40.48L333.96.88H296.12L283.8-10.56V-51.04Z" transform="translate(845.246 3603)" fill="none" stroke="#c8132c" stroke-width="2"/></g></svg>