<svg xmlns="http://www.w3.org/2000/svg" width="249.22" height="130.12" viewBox="0 0 249.22 130.12"><g transform="translate(-177.44 -3482.6)"><path d="M3.44-91.16V-120.4H112.66v24.94L61.92,0H21.5L71.38-91.16ZM146.2,1.72,123.84-18.92V-98.04l24.08-22.36h85.14v29.24H166.84L161.68-86v8.6H219.3l22.36,20.64v37.84L219.3,1.72Zm57.62-46.44-5.16-5.16H161.68v17.2l5.16,5.16h31.82l5.16-5.16Z" transform="translate(184 3604)" fill="none" stroke="#c8132c" stroke-width="2"/><path d="M3.44-91.16V-120.4H112.66v24.94L61.92,0H21.5L71.38-91.16ZM146.2,1.72,123.84-18.92V-98.04l24.08-22.36h85.14v29.24H166.84L161.68-86v8.6H219.3l22.36,20.64v37.84L219.3,1.72Zm57.62-46.44-5.16-5.16H161.68v17.2l5.16,5.16h31.82l5.16-5.16Z" transform="translate(175 3610)" fill="none" stroke="#1f86ff" stroke-width="2"/></g></svg>