<svg xmlns="http://www.w3.org/2000/svg" xmlns:xlink="http://www.w3.org/1999/xlink" width="28.494" height="30" viewBox="0 0 28.494 30"><defs><linearGradient id="a" x1="0.085" y1="0.763" x2="0.937" y2="0.13" gradientUnits="objectBoundingBox"><stop offset="0" stop-color="#ca974d"/><stop offset="0.099" stop-color="#cc9c52"/><stop offset="0.23" stop-color="#d3aa63"/><stop offset="0.379" stop-color="#dfc37e"/><stop offset="0.539" stop-color="#f0e4a4"/><stop offset="0.596" stop-color="#f7f2b4"/><stop offset="0.661" stop-color="#f2e8a8"/><stop offset="0.777" stop-color="#e5ce8b"/><stop offset="0.929" stop-color="#d0a45b"/><stop offset="0.972" stop-color="#ca974d"/><stop offset="1" stop-color="#ca974d"/></linearGradient></defs><path d="M-5099.715,777.346l-3.823,1.926c-2.393,6.362-6.274,7.5-6.274,7.5v-1.663l.262-.146c0-.409-.671-.555-.671-.555v-.584l-1.839-.409v-.233l.438-.263v-.642c0-.35-.642-.525-.642-.525v-.6c8.317-1.488,7.179-8.93,7.179-8.93h.328V771.2l.2-.2v-.569h-18.805V771l.2.2v1.029h.328s-1.138,7.442,7.179,8.93v.6s-.641.175-.641.525v.642l.438.263v.233l-1.839.409v.584s-.671.146-.671.555l.263.146v1.663s-3.881-1.138-6.273-7.5l-3.823-1.926a15.835,15.835,0,0,0,7.85,11.935l-.642.934.146.117,1.81-.058,1.08,1.809h-.38a1.524,1.524,0,0,1-.962,1.255v.408s-.789.058-.789.729v2.6a.945.945,0,0,0-.35.7v.934a1.063,1.063,0,0,0-.38.934c0,.65,5.958.772,6.812.786v0h.1v0c.854-.014,6.811-.136,6.811-.786a1.064,1.064,0,0,0-.379-.934v-.934a.944.944,0,0,0-.351-.7v-2.6c0-.671-.787-.729-.787-.729v-.408a1.524,1.524,0,0,1-.964-1.255h-.379l1.08-1.809,1.81.058.146-.117-.642-.934A15.834,15.834,0,0,0-5099.715,777.346Z" transform="translate(5128.209 -770.43)" fill="url(#a)"/></svg>