<svg xmlns="http://www.w3.org/2000/svg" width="358" height="106.292" viewBox="0 0 358 106.292"><g transform="translate(-125 -829)"><g transform="translate(125 829)"><path d="M-4132.627,1273.575l2.716,2.455v4.6l-3,2.742h-13.058v-18.281h12.144l3,2.742v4.048Zm.234-5.224-2.089-1.828h-9.924v6.66h10.054l1.959-1.828Zm-1.176,13.58,2.09-1.828v-3.526l-2.221-1.958h-10.707v7.312Z" transform="translate(4195.57 -1259.342)" fill="#fff"/><path d="M-4121.631,1281.932v1.437h-11.23l-3.656-3.4v-11.491l3.656-3.4h11.23v1.436h-10.578l-2.741,2.481v10.446l2.741,2.481Z" transform="translate(4206.693 -1259.342)" fill="#fff"/><path d="M-4127.6,1265.087h14.756v1.436h-13.188v6.921h10.446v1.437h-10.446v7.051h13.449v1.437H-4127.6Z" transform="translate(4217.182 -1259.342)" fill="#fff"/><path d="M-4106.491,1276.97h-10.6v6.4h-1.567v-18.281h12.144l3.395,3.134v5.615Zm1.8-8.227-2.48-2.22h-9.924v9.01h9.924l2.48-2.22Z" transform="translate(4227.697 -1259.342)" fill="#fff"/><path d="M-4096.609,1283.771h-9.271l-3.655-3.4v-12.013l3.655-3.4h9.271l3.657,3.4v12.013Zm-.652-1.436,2.742-2.481v-10.969l-2.742-2.481h-7.965l-2.742,2.481v10.969l2.742,2.481Z" transform="translate(4238.431 -1259.483)" fill="#fff"/><path d="M-4084.856,1281.932v1.437h-11.23l-3.656-3.4v-11.491l3.656-3.4h11.23v1.436h-10.578l-2.741,2.481v10.446l2.741,2.481Z" transform="translate(4249.952 -1259.342)" fill="#fff"/><path d="M-4076.354,1281.932v1.437h-11.23l-3.656-3.4v-11.491l3.656-3.4h11.23v1.436h-10.577l-2.742,2.481v10.446l2.742,2.481Z" transform="translate(4259.954 -1259.342)" fill="#fff"/><path d="M-4066.393,1283.369h-1.568v-15.8l-12.927,15.8h-1.437v-18.281h1.568v15.8l12.927-15.8h1.437Z" transform="translate(4270.442 -1259.342)" fill="#fff"/><path d="M-4056.642,1286.474h-1.566v-15.8l-12.929,15.8h-1.436v-18.281h1.566v15.8l12.928-15.8h1.437Zm-4.623-24.027h1.436v1.567l-1.958,1.826h-5.353l-1.96-1.826v-1.567h1.438v1.045l1.045.914h4.308l1.045-.914Z" transform="translate(4281.913 -1262.447)" fill="#fff"/><path d="M-4048.062,1281.932v1.437h-11.229l-3.656-3.4v-11.491l3.656-3.4h11.229v1.436h-10.576l-2.743,2.481v10.446l2.743,2.481Z" transform="translate(4293.234 -1259.342)" fill="#fff"/><path d="M-4052.466,1274.881v8.488h-1.566v-18.281h1.566v8.357h5.485l6.137-8.357h1.958l-6.66,8.879,7.183,9.4h-1.959l-6.4-8.488Z" transform="translate(4303.722 -1259.342)" fill="#fff"/><path d="M-4029.1,1283.369h-1.568v-15.8l-12.927,15.8h-1.437v-18.281h1.567v15.8l12.927-15.8h1.437Z" transform="translate(4314.317 -1259.342)" fill="#fff"/><path d="M-4019.344,1286.474h-1.567v-15.8l-12.927,15.8h-1.437v-18.281h1.567v15.8l12.926-15.8h1.437Zm-4.622-24.027h1.436v1.567l-1.958,1.826h-5.354l-1.959-1.826v-1.567h1.437v1.045l1.044.914h4.309l1.045-.914Z" transform="translate(4325.789 -1262.447)" fill="#fff"/><path d="M-4148.018,1295.368h-1.566v-16.845h-7.183v-1.436h15.931v1.436h-7.182Z" transform="translate(4182.875 -1245.226)" fill="#fff"/><path d="M-4132.19,1277.087h1.828l-10.446,18.281h-1.829l2.875-5.093h-.655l-7.7-13.188h1.828l7.05,12.013h.132Z" transform="translate(4193.044 -1245.226)" fill="#fff"/><path d="M-4125.985,1288.97h-10.6v6.4h-1.567v-18.281h12.143l3.4,3.134v5.615Zm1.8-8.227-2.481-2.22h-9.923v9.01h9.923l2.481-2.22Z" transform="translate(4204.768 -1245.226)" fill="#fff"/><path d="M-4127.373,1286.881v8.488h-1.566v-18.281h1.566v8.357h12.536v-8.357h1.568v18.281h-1.568v-8.488Z" transform="translate(4215.608 -1245.226)" fill="#fff"/><path d="M-4103.377,1295.368h-1.567v-15.8l-12.927,15.8h-1.437v-18.281h1.567v15.8l12.929-15.8h1.435Z" transform="translate(4226.939 -1245.226)" fill="#fff"/><path d="M-4097.385,1288.97h-10.6v6.4h-1.568v-18.281h12.146l3.395,3.134v5.615Zm1.8-8.227-2.481-2.22h-9.925v9.01h9.925l2.481-2.22Z" transform="translate(4238.41 -1245.226)" fill="#fff"/><path d="M-4096.475,1277.087h15.669v18.281h-1.567v-16.845h-12.535v16.845h-1.567Z" transform="translate(4253.795 -1245.226)" fill="#fff"/><path d="M-4074.034,1295.771h-9.273l-3.654-3.4v-12.013l3.654-3.395h9.273l3.655,3.395v12.013Zm-.653-1.437,2.742-2.481v-10.969l-2.742-2.481h-7.965l-2.742,2.481v10.969l2.742,2.481Z" transform="translate(4264.986 -1245.367)" fill="#fff"/><path d="M-4064.72,1285.836l7.442,9.532h-1.958l-6.53-8.226-6.4,8.226h-1.959l7.443-9.532-6.921-8.749h1.958l5.875,7.574,6.007-7.574h1.959Z" transform="translate(4280.089 -1245.226)" fill="#fff"/><path d="M-4052.214,1295.771h-9.271l-3.655-3.4v-12.013l3.655-3.395h9.271l3.657,3.395v12.013Zm-.652-1.437,2.742-2.481v-10.969l-2.742-2.481h-7.965l-2.743,2.481v10.969l2.743,2.481Z" transform="translate(4290.656 -1245.367)" fill="#fff"/><path d="M-4053.646,1286.881v8.488h-1.566v-18.281h1.566v8.357h5.485l6.137-8.357h1.959l-6.66,8.879,7.181,9.4h-1.958l-6.4-8.488Z" transform="translate(4302.335 -1245.226)" fill="#fff"/><path d="M-4044.64,1286.881v8.488h-1.567v-18.281h1.567v8.357h5.483l6.14-8.357h1.957l-6.657,8.879,7.179,9.4h-1.958l-6.4-8.488Z" transform="translate(4312.927 -1245.226)" fill="#fff"/><path d="M-4037.2,1277.087h14.755v1.436h-13.188v6.921h10.447v1.436h-10.447v7.051h13.45v1.436H-4037.2Z" transform="translate(4323.521 -1245.226)" fill="#fff"/><path d="M-4026.7,1287.022v8.488h-1.566v-18.281h1.566v8.357h5.484v-5.224l3.659-3.395h8.1l3.657,3.395v12.013l-3.657,3.4h-8.1l-3.659-3.4v-5.354Zm9.794-8.618-2.742,2.481v10.969l2.742,2.481h6.792l2.742-2.481v-10.969l-2.742-2.481Z" transform="translate(4334.038 -1245.367)" fill="#fff"/><path d="M-4153.875,1305.932v1.436h-11.23l-3.657-3.4v-11.491l3.657-3.4h11.23v1.436h-10.578L-4167.2,1293v10.447l2.742,2.481Z" transform="translate(4168.763 -1231.11)" fill="#fff"/><path d="M-4147.676,1300.97h-10.6v6.4h-1.567v-18.281h12.144l3.4,3.134v5.615Zm1.8-8.227-2.481-2.22h-9.924v9.01h9.924l2.481-2.22Z" transform="translate(4179.25 -1231.11)" fill="#fff"/><path d="M-4150.63,1289.087h14.756v1.436h-13.189v6.921h10.447v1.437h-10.447v7.051h13.45v1.436h-15.017Z" transform="translate(4190.092 -1231.11)" fill="#fff"/><path d="M-4142.291,1305.932h1.044l2.873-2.612,1.045-14.233h12.666v16.845h2.481v5.354h-1.567v-3.917h-16.975v3.917h-1.567Zm5.484-2.089-2.22,2.089h12.8v-15.408h-9.663Z" transform="translate(4199.902 -1231.11)" fill="#fff"/><path d="M-4115.194,1307.368h-1.566v-15.8l-12.928,15.8h-1.437v-18.281h1.567v15.8l12.928-15.8h1.436Z" transform="translate(4213.037 -1231.11)" fill="#fff"/><path d="M-4114.226,1303.712l1.045-14.625h12.927v18.281h-1.567v-16.845h-9.924l-.914,13.711-3.656,3.4h-2.089v-1.436h1.436Z" transform="translate(4228.001 -1231.11)" fill="#fff"/><path d="M-4106.067,1299.022v8.488h-1.564v-18.281h1.564v8.357h5.485v-5.223l3.657-3.395h8.1l3.657,3.395v12.013l-3.657,3.4h-8.1l-3.657-3.4v-5.354Zm9.794-8.619-2.742,2.481v10.969l2.742,2.481h6.791l2.742-2.481v-10.969l-2.742-2.481Z" transform="translate(4240.671 -1231.251)" fill="#fff"/><path d="M-4082.463,1307.368H-4095v-18.281h14.495v1.436h-12.928v5.876h10.969l3.4,3.134v4.7Zm-.653-1.436,2.482-2.22v-3.656l-2.482-2.22h-10.316v8.1Z" transform="translate(4255.533 -1231.11)" fill="#fff"/><path d="M-4069.64,1307.368h-1.566v-15.8l-12.93,15.8h-1.437v-18.281h1.567v15.8l12.926-15.8h1.439Z" transform="translate(4266.62 -1231.11)" fill="#fff"/><path d="M-4067.638,1307.368h-1.566v-16.845h-7.182v-1.436h15.931v1.436h-7.183Z" transform="translate(4277.428 -1231.11)" fill="#fff"/><path d="M-4067.2,1289.087h14.756v1.436h-13.189v6.921h10.446v1.437h-10.446v7.051h13.45v1.436H-4067.2Z" transform="translate(4288.232 -1231.11)" fill="#fff"/><path d="M-4054.623,1303.712l1.045-14.625h12.927v18.281h-1.567v-16.845h-9.924l-.914,13.711-3.657,3.4h-2.089v-1.436h1.437Z" transform="translate(4298.113 -1231.11)" fill="#fff"/><path d="M-4046.461,1296.139h10.315l3.4,3.134v4.962l-3.4,3.134h-11.883v-18.281h1.568Zm9.663,9.793,2.481-2.22v-3.92l-2.481-2.217h-9.663v8.357Z" transform="translate(4310.785 -1231.11)" fill="#fff"/><path d="M-4024.165,1305.932v1.436H-4035.4l-3.656-3.4v-11.491l3.656-3.4h11.233v1.436h-10.58l-2.742,2.481v10.447l2.742,2.481Z" transform="translate(4321.342 -1231.11)" fill="#fff"/><path d="M-4028.57,1298.881v8.488h-1.568v-18.281h1.568v8.357h5.483l6.137-8.357h1.96l-6.66,8.88,7.182,9.4h-1.959l-6.4-8.488Z" transform="translate(4331.831 -1231.11)" fill="#fff"/><path d="M-4005.2,1307.368h-1.567v-15.8l-12.927,15.8h-1.437v-18.281h1.568v15.8l12.927-15.8h1.436Z" transform="translate(4342.425 -1231.11)" fill="#fff"/><path d="M-4002.6,1297.836l7.444,9.532h-1.959l-6.529-8.226-6.4,8.226h-1.958l7.443-9.532-6.921-8.749h1.958l5.876,7.574,6.007-7.574h1.959Z" transform="translate(4353.16 -1231.11)" fill="#fff"/><path d="M-4113.88,1310.881v8.488h-1.567v-18.281h1.567v8.357h5.484l6.136-8.357h1.96l-6.661,8.879,7.182,9.4h-1.959l-6.4-8.488Z" transform="translate(4231.479 -1216.994)" fill="#fff"/><path d="M-4094.067,1319.771h-9.27l-3.657-3.4v-12.013l3.657-3.395h9.27l3.657,3.395v12.013Zm-.652-1.436,2.742-2.481v-10.969l-2.742-2.481h-7.965l-2.742,2.481v10.969l2.742,2.481Z" transform="translate(4241.424 -1217.135)" fill="#fff"/><path d="M-4087.794,1314.667l-7.706-10.838v15.539h-1.566v-18.281h1.566l8.228,11.622,8.226-11.622h1.566v18.281h-1.566v-15.539l-7.7,10.838Z" transform="translate(4253.102 -1216.994)" fill="#fff"/><path d="M-4081.957,1313.884l-2.612,5.484h-1.7l8.748-18.281h1.306l8.75,18.281h-1.7l-2.611-5.484Zm9.532-1.437-4.441-9.271-4.439,9.271Z" transform="translate(4265.806 -1216.994)" fill="#fff"/><path d="M-4074.258,1310.881v8.488h-1.568v-18.281h1.568v8.357h12.536v-8.357h1.566v18.281h-1.566v-8.488Z" transform="translate(4278.087 -1216.994)" fill="#fff"/><path d="M-4066.88,1317.932h1.044l2.872-2.612,1.045-14.233h12.666v16.845h2.481v5.354h-1.567v-3.917h-16.974v3.917h-1.567Zm5.484-2.089-2.22,2.089h12.8v-15.409h-9.663Z" transform="translate(4288.609 -1216.994)" fill="#fff"/></g></g></svg>