<svg xmlns="http://www.w3.org/2000/svg" width="287.002" height="182.905" viewBox="0 0 287.002 182.905"><g transform="translate(-174 -189.273)"><g transform="translate(176 197)"><g transform="translate(-131.379 -1136.17)" fill="none"><path d="M213.911,1249.062l8.543-8.547v-23.881l-8.543-8.547H188.974l-8.547,8.547v23.881l8.547,8.547Zm-23.531-28.974,3.512-3.512h15.1l3.512,3.512v16.977l-3.512,3.508h-15.1l-3.512-3.508Z" stroke="none"/><path d="M 213.9113006591797 1249.06201171875 L 222.4546661376953 1240.514892578125 L 222.4546661376953 1216.6337890625 L 213.9113006591797 1208.087158203125 L 188.9738616943359 1208.087158203125 L 180.4270172119141 1216.6337890625 L 180.4270172119141 1240.514892578125 L 188.9738616943359 1249.06201171875 L 213.9113006591797 1249.06201171875 M 193.8920135498047 1216.57568359375 L 208.9896697998047 1216.57568359375 L 212.5016937255859 1220.087646484375 L 212.5016937255859 1237.06494140625 L 208.9896697998047 1240.572998046875 L 193.8920135498047 1240.572998046875 L 190.3800201416016 1237.06494140625 L 190.3800201416016 1220.087646484375 L 193.8920135498047 1216.57568359375 M 214.7399749755859 1251.06201171875 L 213.9113006591797 1251.06201171875 L 188.9738616943359 1251.06201171875 L 188.1454162597656 1251.06201171875 L 187.5596160888672 1250.476196289063 L 179.0127868652344 1241.929077148438 L 178.4270172119141 1241.34326171875 L 178.4270172119141 1240.514892578125 L 178.4270172119141 1216.6337890625 L 178.4270172119141 1215.805297851563 L 179.0128173828125 1215.219604492188 L 187.5596618652344 1206.672973632813 L 188.1454467773438 1206.087158203125 L 188.9738616943359 1206.087158203125 L 213.9113006591797 1206.087158203125 L 214.7399444580078 1206.087158203125 L 215.3257751464844 1206.673217773438 L 223.8691558837891 1215.219848632813 L 224.4546661376953 1215.805541992188 L 224.4546661376953 1216.6337890625 L 224.4546661376953 1240.514892578125 L 224.4546661376953 1241.343017578125 L 223.8691864013672 1241.928833007813 L 215.3258209228516 1250.475952148438 L 214.7399749755859 1251.06201171875 Z M 194.7197875976563 1238.572998046875 L 208.1619110107422 1238.572998046875 L 210.5016937255859 1236.23583984375 L 210.5016937255859 1220.916137695313 L 208.1612548828125 1218.57568359375 L 194.7204437255859 1218.57568359375 L 192.3800201416016 1220.916137695313 L 192.3800201416016 1236.23583984375 L 194.7197875976563 1238.572998046875 Z" stroke="none" fill="#fff"/></g><g transform="translate(-96.132 -1136.169)" fill="none"><path d="M221.977,1237.53v11.532h9.949v-40.975h-9.949v20.782H207.519l-2.632-2.635v-18.146h-9.953V1229.8l7.726,7.726Z" stroke="none"/><path d="M 231.9263000488281 1249.0625 L 231.9263000488281 1208.08740234375 L 221.9769897460938 1208.08740234375 L 221.9769897460938 1228.869262695313 L 207.5189514160156 1228.869262695313 L 204.8870849609375 1226.233764648438 L 204.8870849609375 1208.08740234375 L 194.9336853027344 1208.08740234375 L 194.9336853027344 1229.80419921875 L 202.6598815917969 1237.530395507813 L 221.9769897460938 1237.530395507813 L 221.9769897460938 1249.0625 L 231.9263000488281 1249.0625 M 233.9263000488281 1251.0625 L 231.9263000488281 1251.0625 L 221.9769897460938 1251.0625 L 219.9769897460938 1251.0625 L 219.9769897460938 1249.0625 L 219.9769897460938 1239.530395507813 L 202.6598815917969 1239.530395507813 L 201.8314514160156 1239.530395507813 L 201.2456665039063 1238.944580078125 L 193.5194702148438 1231.218383789063 L 192.9336853027344 1230.632690429688 L 192.9336853027344 1229.80419921875 L 192.9336853027344 1208.08740234375 L 192.9336853027344 1206.08740234375 L 194.9336853027344 1206.08740234375 L 204.8870849609375 1206.08740234375 L 206.8870849609375 1206.08740234375 L 206.8870849609375 1208.08740234375 L 206.8870849609375 1225.406127929688 L 208.3481903076172 1226.869262695313 L 219.9769897460938 1226.869262695313 L 219.9769897460938 1208.08740234375 L 219.9769897460938 1206.08740234375 L 221.9769897460938 1206.08740234375 L 231.9263000488281 1206.08740234375 L 233.9263000488281 1206.08740234375 L 233.9263000488281 1208.08740234375 L 233.9263000488281 1249.0625 L 233.9263000488281 1251.0625 Z" stroke="none" fill="#fff"/></g><g transform="translate(-62.379 -1136.168)" fill="none"><path d="M238.445,1249.059h9.949v-40.971h-9.949v16.1H218.774v-16.1h-9.949v40.971h9.949v-16.21h19.671Z" stroke="none"/><path d="M 248.39453125 1249.05908203125 L 248.39453125 1208.087646484375 L 238.4451904296875 1208.087646484375 L 238.4451904296875 1224.18408203125 L 218.7744140625 1224.18408203125 L 218.7744140625 1208.087646484375 L 208.8255310058594 1208.087646484375 L 208.8255310058594 1249.05908203125 L 218.7744140625 1249.05908203125 L 218.7744140625 1232.848876953125 L 238.4451904296875 1232.848876953125 L 238.4451904296875 1249.05908203125 L 248.39453125 1249.05908203125 M 250.39453125 1251.05908203125 L 248.39453125 1251.05908203125 L 238.4451904296875 1251.05908203125 L 236.4451904296875 1251.05908203125 L 236.4451904296875 1249.05908203125 L 236.4451904296875 1234.848876953125 L 220.7744140625 1234.848876953125 L 220.7744140625 1249.05908203125 L 220.7744140625 1251.05908203125 L 218.7744140625 1251.05908203125 L 208.8255310058594 1251.05908203125 L 206.8255310058594 1251.05908203125 L 206.8255310058594 1249.05908203125 L 206.8255310058594 1208.087646484375 L 206.8255310058594 1206.087646484375 L 208.8255310058594 1206.087646484375 L 218.7744140625 1206.087646484375 L 220.7744140625 1206.087646484375 L 220.7744140625 1208.087646484375 L 220.7744140625 1222.18408203125 L 236.4451904296875 1222.18408203125 L 236.4451904296875 1208.087646484375 L 236.4451904296875 1206.087646484375 L 238.4451904296875 1206.087646484375 L 248.39453125 1206.087646484375 L 250.39453125 1206.087646484375 L 250.39453125 1208.087646484375 L 250.39453125 1249.05908203125 L 250.39453125 1251.05908203125 Z" stroke="none" fill="#fff"/></g><g transform="translate(-29.788 -1136.17)" fill="none"><path d="M238.4,1208.087l-16.157,38.046v2.929h9.367l3.337-8.314H255.49l3.275,8.314h9.658v-2.929l-16.1-38.046Zm-.062,24.173,6.266-15.509h1.348l6.143,15.509Z" stroke="none"/><path d="M 238.3963775634766 1208.087158203125 L 222.239013671875 1246.1328125 L 222.239013671875 1249.06201171875 L 231.6055908203125 1249.06201171875 L 234.9426422119141 1240.748046875 L 255.4900665283203 1240.748046875 L 258.7654418945313 1249.06201171875 L 268.4235229492188 1249.06201171875 L 268.4235229492188 1246.1328125 L 252.3278961181641 1208.087158203125 L 238.3963775634766 1208.087158203125 M 252.0912322998047 1232.259765625 L 238.3347015380859 1232.259765625 L 244.6007537841797 1216.750732421875 L 245.9485931396484 1216.750732421875 L 252.0912322998047 1232.259765625 M 237.0728607177734 1206.087158203125 L 238.3963775634766 1206.087158203125 L 252.3278961181641 1206.087158203125 L 253.6533966064453 1206.087158203125 L 254.1698455810547 1207.307861328125 L 270.2654724121094 1245.353515625 L 270.4235229492188 1245.727172851563 L 270.4235229492188 1246.1328125 L 270.4235229492188 1249.06201171875 L 270.4235229492188 1251.06201171875 L 268.4235229492188 1251.06201171875 L 258.7654418945313 1251.06201171875 L 257.4037475585938 1251.06201171875 L 256.9046325683594 1249.795043945313 L 254.1283874511719 1242.748046875 L 236.2949676513672 1242.748046875 L 233.461669921875 1249.807006835938 L 232.9579162597656 1251.06201171875 L 231.6055908203125 1251.06201171875 L 222.239013671875 1251.06201171875 L 220.239013671875 1251.06201171875 L 220.239013671875 1249.06201171875 L 220.239013671875 1246.1328125 L 220.239013671875 1245.725708007813 L 220.3981323242188 1245.35107421875 L 236.5555114746094 1207.305419921875 L 237.0728607177734 1206.087158203125 Z M 249.1479339599609 1230.259765625 L 245.2629089355469 1220.450805664063 L 241.2998199462891 1230.259765625 L 249.1479339599609 1230.259765625 Z" stroke="none" fill="#fff"/></g><g transform="translate(6.456 -1136.167)" fill="none"><path d="M238.089,1215.7v12.525l6.379,6.321-7.312,11.593v2.925h9.655l8.019-12.879H266.6v12.879h9.946v-40.972H245.7Zm9.953,3.57,3.1-3.042H266.6v11.822H251.146l-3.1-3.045Z" stroke="none"/><path d="M 245.6994018554688 1208.088012695313 L 238.0888671875 1215.6953125 L 238.0888671875 1228.220336914063 L 244.4681091308594 1234.54150390625 L 237.1560363769531 1246.134155273438 L 237.1560363769531 1249.0595703125 L 246.8106079101563 1249.0595703125 L 254.8293151855469 1236.180908203125 L 266.6000671386719 1236.180908203125 L 266.6000671386719 1249.0595703125 L 276.5462341308594 1249.0595703125 L 276.5462341308594 1208.088012695313 L 245.6994018554688 1208.088012695313 M 266.6000671386719 1228.045288085938 L 251.1458129882813 1228.045288085938 L 248.0419006347656 1225.000122070313 L 248.0419006347656 1219.265747070313 L 251.1458129882813 1216.223266601563 L 266.6000671386719 1216.223266601563 L 266.6000671386719 1228.045288085938 M 244.8712158203125 1206.088012695313 L 245.6994018554688 1206.088012695313 L 276.5462341308594 1206.088012695313 L 278.5462341308594 1206.088012695313 L 278.5462341308594 1208.088012695313 L 278.5462341308594 1249.0595703125 L 278.5462341308594 1251.0595703125 L 276.5462341308594 1251.0595703125 L 266.6000671386719 1251.0595703125 L 264.6000671386719 1251.0595703125 L 264.6000671386719 1249.0595703125 L 264.6000671386719 1238.180908203125 L 255.9400329589844 1238.180908203125 L 248.5083923339844 1250.11669921875 L 247.9213256835938 1251.0595703125 L 246.8106079101563 1251.0595703125 L 237.1560363769531 1251.0595703125 L 235.1560363769531 1251.0595703125 L 235.1560363769531 1249.0595703125 L 235.1560363769531 1246.134155273438 L 235.1560363769531 1245.556030273438 L 235.4644165039063 1245.067138671875 L 241.9201049804688 1234.832275390625 L 236.6811218261719 1229.640991210938 L 236.0888671875 1229.054077148438 L 236.0888671875 1228.220336914063 L 236.0888671875 1215.6953125 L 236.0888671875 1214.866577148438 L 236.6749572753906 1214.28076171875 L 244.2854919433594 1206.673461914063 L 244.8712158203125 1206.088012695313 Z M 264.6000671386719 1218.223266601563 L 251.9625549316406 1218.223266601563 L 250.0419006347656 1220.10595703125 L 250.0419006347656 1224.160522460938 L 251.9630737304688 1226.045288085938 L 264.6000671386719 1226.045288085938 L 264.6000671386719 1218.223266601563 Z" stroke="none" fill="#fff"/></g><g transform="translate(-166.126 -1136.168)" fill="none"><path d="M195.743,1224.184H176.076v-16.1h-9.949v40.971h9.949v-16.21h19.667v16.21H205.7v-40.971h-9.953Z" stroke="none"/><path d="M 166.126220703125 1208.087646484375 L 166.126220703125 1249.05908203125 L 176.0755004882813 1249.05908203125 L 176.0755004882813 1232.848876953125 L 195.7425842285156 1232.848876953125 L 195.7425842285156 1249.05908203125 L 205.695556640625 1249.05908203125 L 205.695556640625 1208.087646484375 L 195.7425842285156 1208.087646484375 L 195.7425842285156 1224.18408203125 L 176.0755004882813 1224.18408203125 L 176.0755004882813 1208.087646484375 L 166.126220703125 1208.087646484375 M 164.126220703125 1206.087646484375 L 166.126220703125 1206.087646484375 L 176.0755004882813 1206.087646484375 L 178.0755004882813 1206.087646484375 L 178.0755004882813 1208.087646484375 L 178.0755004882813 1222.18408203125 L 193.7425842285156 1222.18408203125 L 193.7425842285156 1208.087646484375 L 193.7425842285156 1206.087646484375 L 195.7425842285156 1206.087646484375 L 205.695556640625 1206.087646484375 L 207.695556640625 1206.087646484375 L 207.695556640625 1208.087646484375 L 207.695556640625 1249.05908203125 L 207.695556640625 1251.05908203125 L 205.695556640625 1251.05908203125 L 195.7425842285156 1251.05908203125 L 193.7425842285156 1251.05908203125 L 193.7425842285156 1249.05908203125 L 193.7425842285156 1234.848876953125 L 178.0755004882813 1234.848876953125 L 178.0755004882813 1249.05908203125 L 178.0755004882813 1251.05908203125 L 176.0755004882813 1251.05908203125 L 166.126220703125 1251.05908203125 L 164.126220703125 1251.05908203125 L 164.126220703125 1249.05908203125 L 164.126220703125 1208.087646484375 L 164.126220703125 1206.087646484375 Z" stroke="none" fill="#fff"/></g><g transform="translate(-55.217 -1093.867)" fill="none"><path d="M245.022,1225.5H211.773v40.971h9.949v-32.483h23.3Z" stroke="none"/><path d="M 211.7734680175781 1225.497802734375 L 211.7734680175781 1266.468994140625 L 221.7228088378906 1266.468994140625 L 221.7228088378906 1233.985595703125 L 245.022216796875 1233.985595703125 L 245.022216796875 1225.497802734375 L 211.7734680175781 1225.497802734375 M 209.7734680175781 1223.497802734375 L 211.7734680175781 1223.497802734375 L 245.022216796875 1223.497802734375 L 247.022216796875 1223.497802734375 L 247.022216796875 1225.497802734375 L 247.022216796875 1233.985595703125 L 247.022216796875 1235.985595703125 L 245.022216796875 1235.985595703125 L 223.7228088378906 1235.985595703125 L 223.7228088378906 1266.468994140625 L 223.7228088378906 1268.468994140625 L 221.7228088378906 1268.468994140625 L 211.7734680175781 1268.468994140625 L 209.7734680175781 1268.468994140625 L 209.7734680175781 1266.468994140625 L 209.7734680175781 1225.497802734375 L 209.7734680175781 1223.497802734375 Z" stroke="none" fill="#fff"/></g><g transform="translate(-34.609 -1093.866)" fill="none"><path d="M236.409,1225.5l-16.154,38.045v2.926h9.363l3.341-8.314H253.5l3.279,8.314h9.658v-2.926l-16.1-38.045Zm-.058,24.172,6.266-15.513h1.348l6.143,15.513Z" stroke="none"/><path d="M 236.4089050292969 1225.498291015625 L 220.2550048828125 1263.54345703125 L 220.2550048828125 1266.46923828125 L 229.6181030273438 1266.46923828125 L 232.9586486816406 1258.155517578125 L 253.5026245117188 1258.155517578125 L 256.7814331054688 1266.46923828125 L 266.4394836425781 1266.46923828125 L 266.4394836425781 1263.54345703125 L 250.3438415527344 1225.498291015625 L 236.4089050292969 1225.498291015625 M 250.1072082519531 1249.670654296875 L 236.3506469726563 1249.670654296875 L 242.61669921875 1234.15771484375 L 243.9645690917969 1234.15771484375 L 250.1072082519531 1249.670654296875 M 235.0852813720703 1223.498291015625 L 236.4089050292969 1223.498291015625 L 250.3438415527344 1223.498291015625 L 251.6693267822266 1223.498291015625 L 252.185791015625 1224.718994140625 L 268.2814331054688 1262.76416015625 L 268.4394836425781 1263.137817382813 L 268.4394836425781 1263.54345703125 L 268.4394836425781 1266.46923828125 L 268.4394836425781 1268.46923828125 L 266.4394836425781 1268.46923828125 L 256.7814331054688 1268.46923828125 L 255.4202880859375 1268.46923828125 L 254.9208984375 1267.203002929688 L 252.1414794921875 1260.155517578125 L 234.3104400634766 1260.155517578125 L 231.4738922119141 1267.214965820313 L 230.9698944091797 1268.46923828125 L 229.6181030273438 1268.46923828125 L 220.2550048828125 1268.46923828125 L 218.2550048828125 1268.46923828125 L 218.2550048828125 1266.46923828125 L 218.2550048828125 1263.54345703125 L 218.2550048828125 1263.136474609375 L 218.4140625 1262.761840820313 L 234.5679779052734 1224.716674804688 L 235.0852813720703 1223.498291015625 Z M 247.1641845703125 1247.670654296875 L 243.2788543701172 1237.858520507813 L 239.3154754638672 1247.670654296875 L 247.1641845703125 1247.670654296875 Z" stroke="none" fill="#fff"/></g><g transform="translate(-129.873 -1093.869)" fill="none"><path d="M188.85,1255.956l-1.671,1.671h-6.132v9.42h10.571l6.629-6.6,3.7-26.457h13.645v32.483h9.972V1225.5H193.153Z" stroke="none"/><path d="M 191.6179351806641 1267.046875 L 198.2469329833984 1260.4462890625 L 201.9430694580078 1233.989013671875 L 215.5876617431641 1233.989013671875 L 215.5876617431641 1266.472412109375 L 225.5591888427734 1266.472412109375 L 225.5591888427734 1225.496826171875 L 193.1530303955078 1225.496826171875 L 188.8503265380859 1255.95556640625 L 187.1790618896484 1257.626953125 L 181.0468292236328 1257.626953125 L 181.0468292236328 1267.046875 L 191.6179351806641 1267.046875 M 192.44384765625 1269.046875 L 191.6179351806641 1269.046875 L 181.0468292236328 1269.046875 L 179.0468292236328 1269.046875 L 179.0468292236328 1267.046875 L 179.0468292236328 1257.626953125 L 179.0468292236328 1255.626953125 L 181.0468292236328 1255.626953125 L 186.3505859375 1255.626953125 L 186.9634704589844 1255.014038085938 L 191.1726837158203 1225.217041015625 L 191.4156951904297 1223.496826171875 L 193.1530303955078 1223.496826171875 L 225.5591888427734 1223.496826171875 L 227.5591888427734 1223.496826171875 L 227.5591888427734 1225.496826171875 L 227.5591888427734 1266.472412109375 L 227.5591888427734 1268.472412109375 L 225.5591888427734 1268.472412109375 L 215.5876617431641 1268.472412109375 L 213.5876617431641 1268.472412109375 L 213.5876617431641 1266.472412109375 L 213.5876617431641 1235.989013671875 L 203.6830902099609 1235.989013671875 L 200.2276916503906 1260.723022460938 L 200.1346435546875 1261.389038085938 L 199.6580963134766 1261.863525390625 L 193.0291137695313 1268.464111328125 L 192.44384765625 1269.046875 Z" stroke="none" fill="#fff"/></g><g transform="translate(-90.794 -1093.867)" fill="none"><path d="M207.8,1251.738h-.714V1225.5h-9.953v40.975h10.527l18.375-26.241h.714v26.241H236.7V1225.5H226.173Z" stroke="none"/><path d="M 236.699951171875 1266.472412109375 L 236.699951171875 1225.497314453125 L 226.1728820800781 1225.497314453125 L 207.7979431152344 1251.737548828125 L 207.0836486816406 1251.737548828125 L 207.0836486816406 1225.497314453125 L 197.1309814453125 1225.497314453125 L 197.1309814453125 1266.472412109375 L 207.6576538085938 1266.472412109375 L 226.0330505371094 1240.2314453125 L 226.7469482421875 1240.2314453125 L 226.7469482421875 1266.472412109375 L 236.699951171875 1266.472412109375 M 238.699951171875 1268.472412109375 L 236.699951171875 1268.472412109375 L 226.7469482421875 1268.472412109375 L 224.7469482421875 1268.472412109375 L 224.7469482421875 1266.472412109375 L 224.7469482421875 1245.554809570313 L 209.2959289550781 1267.61962890625 L 208.6987457275391 1268.472412109375 L 207.6576538085938 1268.472412109375 L 197.1309814453125 1268.472412109375 L 195.1309814453125 1268.472412109375 L 195.1309814453125 1266.472412109375 L 195.1309814453125 1225.497314453125 L 195.1309814453125 1223.497314453125 L 197.1309814453125 1223.497314453125 L 207.0836486816406 1223.497314453125 L 209.0836486816406 1223.497314453125 L 209.0836486816406 1225.497314453125 L 209.0836486816406 1246.414794921875 L 224.5346221923828 1224.35009765625 L 225.1317901611328 1223.497314453125 L 226.1728820800781 1223.497314453125 L 236.699951171875 1223.497314453125 L 238.699951171875 1223.497314453125 L 238.699951171875 1225.497314453125 L 238.699951171875 1266.472412109375 L 238.699951171875 1268.472412109375 Z" stroke="none" fill="#fff"/></g><g transform="translate(-80.765 -1187.118)" fill="none"><path d="M226.707,1203.687l-4.44-16.569-4.44,16.569-16.569,4.439,16.569,4.44,4.44,16.57,4.44-16.57,16.57-4.44Z" stroke="none"/><path d="M 222.2671508789063 1187.1181640625 L 217.8275146484375 1203.687255859375 L 201.2582702636719 1208.126708984375 L 217.8275146484375 1212.56689453125 L 222.2671508789063 1229.136474609375 L 226.7072448730469 1212.56689453125 L 243.2769165039063 1208.126708984375 L 226.7072448730469 1203.687255859375 L 222.2671508789063 1187.1181640625 M 222.2670593261719 1179.39111328125 L 224.1989898681641 1186.600463867188 L 228.3401947021484 1202.05419921875 L 243.7945098876953 1206.19482421875 L 251.0043334960938 1208.126586914063 L 243.7945861816406 1210.05859375 L 228.3402252197266 1214.199829101563 L 224.1989898681641 1229.654174804688 L 222.2670593261719 1236.86376953125 L 220.3352966308594 1229.654052734375 L 216.1944885253906 1214.199829101563 L 200.7405853271484 1210.05859375 L 193.5310363769531 1208.126586914063 L 200.7406616210938 1206.19482421875 L 216.1945343017578 1202.05419921875 L 220.3352966308594 1186.6005859375 L 222.2670593261719 1179.39111328125 Z" stroke="none" fill="#fff"/></g></g></g></svg>