<svg xmlns="http://www.w3.org/2000/svg" width="49.111" height="42.718" viewBox="0 0 49.111 42.718"><path d="M412.22,1864.63c.16.545.324,1.081.5,1.6a28.055,28.055,0,0,0,2.632,5.876h8.994a28.013,28.013,0,0,0,2.633-5.876c.172-.519.336-1.055.5-1.6a64.585,64.585,0,0,0-6.775-.433v-5.055c.014,0,.028.006.042.011v-5.1c-2.581.851-5.161,4.762-7.743,5.612,2.047.675,4.095-.572,6.142-.695v5.228A64.526,64.526,0,0,0,412.22,1864.63Z" transform="translate(-395.29 -1854.051)" fill="#2a313c"/><path d="M437.949,1874.363a36.305,36.305,0,0,1-7.8,4.861l1.269,1.393c-3.122,1.476-8.743,2.845-16.207,2.845-7.566,0-13.231-1.406-16.326-2.9l1.179-1.293a36.331,36.331,0,0,1-7.89-4.9,4.515,4.515,0,0,0-1.667,3.237c0,.524,3.589,12.6,3.589,12.6h.065c.639,2.457,4.128,4.591,9.175,5.905q-.853,1.575-1.7,3.121a45.667,45.667,0,0,0,26.851,0q-.837-1.531-1.684-3.1c5.326-1.373,8.934-3.656,9.329-6.273l3.462-11.584s.023-.448.023-.674A4.513,4.513,0,0,0,437.949,1874.363Zm-15.275,15.88v5.985a48.693,48.693,0,0,1-15.226,0q0-2.993,0-5.985A48.693,48.693,0,0,0,422.674,1890.244Z" transform="translate(-390.506 -1858.526)" fill="#2a313c"/><path d="M422.364,1881.512a5.435,5.435,0,0,0-2.159,0,3.747,3.747,0,0,0-.616.18c-.511.2-.837.489-.837.812,0,.607,1.134,1.1,2.532,1.1s2.532-.493,2.532-1.1c0-.324-.327-.611-.837-.812A3.76,3.76,0,0,0,422.364,1881.512Z" transform="translate(-396.729 -1860.077)" fill="#2a313c"/><path d="M434.714,1863.215c1.369-.178,2.738-.759,4.107-.84v4.369a45.659,45.659,0,0,0-4.767-1.025,35.329,35.329,0,0,1-2.856,7.137h4.6a1.878,1.878,0,0,1,1.359.492l.3.333a33.943,33.943,0,0,0,7.5-4.479,23.063,23.063,0,0,0-4.578-1.991v-4.662c.014,0,.028.006.041.011v-5.1c-1.779.586-3.558,2.626-5.338,4.117a7.783,7.783,0,0,1-2.4,1.494A4.513,4.513,0,0,0,434.714,1863.215Z" transform="translate(-399.471 -1854.802)" fill="#2a313c"/><path d="M399.589,1862.375v4.763a23.464,23.464,0,0,0-4.812,2.064,33.964,33.964,0,0,0,7.59,4.519l.341-.373a1.875,1.875,0,0,1,1.358-.492h4.471a35.376,35.376,0,0,1-2.856-7.137,46.232,46.232,0,0,0-4.533.961v-4.131l.041.011v-5.1c-2.581.85-5.161,4.761-7.742,5.612C395.495,1863.745,397.542,1862.5,399.589,1862.375Z" transform="translate(-391.154 -1854.802)" fill="#2a313c"/></svg>