<svg xmlns="http://www.w3.org/2000/svg" width="644.333" height="56.588" viewBox="0 0 644.333 56.588"><g transform="translate(-92.973 -88.508)"><path d="M193.669,132.916l4.624-4.615V106l-4.624-4.615H173.795L169.171,106v22.3l4.624,4.615Zm-37.6-.078V101.463l11.248-11.229h32.831l11.243,11.229v31.375l-11.243,11.229H167.316Z" transform="translate(2.472 0.029)" fill="none" stroke="#fff" stroke-miterlimit="10" stroke-width="2"/><path d="M254.654,128.916H229.227l-10.173-10.148V90.235h13.1v23.84l3.466,3.461h19.036v-27.3h13.1v53.828h-13.1Z" transform="translate(4.979 0.029)" fill="none" stroke="#fff" stroke-miterlimit="10" stroke-width="2"/><path d="M279.372,90.236h13.1v21.149H318.36V90.236h13.1v53.828h-13.1v-21.3H292.47v21.3h-13.1Z" transform="translate(7.38 0.029)" fill="none" stroke="#fff" stroke-miterlimit="10" stroke-width="2"/><path d="M358.807,122h18.1l-8.085-20.38h-1.777Zm18.414-31.76,21.192,49.983v3.845H385.695l-4.312-10.917H354.339l-4.4,10.917H337.615v-3.845l21.27-49.983Z" transform="translate(9.698 0.029)" fill="none" stroke="#fff" stroke-miterlimit="10" stroke-width="2"/><path d="M441.137,116.459V100.922H420.8l-4.084,4v7.534l4.084,4Zm-38.755,23.763L412.01,125l-8.4-8.308V100.231l10.017-9.993h40.609v53.829h-13.1v-16.92H425.649L415.1,144.067H402.382Z" transform="translate(12.277 0.029)" fill="none" stroke="#fff" stroke-miterlimit="10" stroke-width="2"/><path d="M93.973,90.236h13.1v21.149h25.889V90.236h13.1v53.828h-13.1v-21.3H107.071v21.3h-13.1Z" transform="translate(0 0.029)" fill="none" stroke="#fff" stroke-miterlimit="10" stroke-width="2"/><path d="M616.421,89.511h43.767v11.151H629.519V143.34h-13.1Z" transform="translate(20.798)" fill="none" stroke="#fff" stroke-miterlimit="10" stroke-width="2"/><path d="M674.441,121.271h18.1l-8.085-20.379h-1.777Zm18.414-31.76,21.187,49.984v3.845H701.329l-4.312-10.918H669.973l-4.4,10.918H653.249v-3.845l21.27-49.984Z" transform="translate(22.264)" fill="none" stroke="#fff" stroke-miterlimit="10" stroke-width="2"/><path d="M541.6,89.508v53.833H528.48V100.664H510.514l-4.867,34.763-8.722,8.669H483V131.718h8.08l2.2-2.2,5.661-40.015Z" transform="translate(15.486)" fill="none" stroke="#fff" stroke-miterlimit="10" stroke-width="2"/><path d="M591.075,89.509l-24.186,34.476h-.944V89.509h-13.1v53.833H566.7l24.191-34.476h.939v34.476h13.1V89.509Z" transform="translate(18.267)" fill="none" stroke="#fff" stroke-miterlimit="10" stroke-width="2"/></g></svg>