<svg width="25" height="38" xmlns="http://www.w3.org/2000/svg" viewBox="0 0 25 38">
    <defs><linearGradient id="a" x1="-0.04" y1="0.751" x2="1.034" y2="0.171" gradientUnits="objectBoundingBox"><stop offset="0" stop-color="#705b3f"/><stop offset="0.382" stop-color="#a69370"/><stop offset="0.562" stop-color="#e0dcc5"/><stop offset="0.846" stop-color="#968771"/><stop offset="1" stop-color="#968771"/></linearGradient></defs><path d="M-3655.943,1519.384l5.952-8.3-3.648-5.849-8.167,11.387-8.167-11.387-3.647,5.849,5.952,8.3a12.749,12.749,0,0,0-5.174,17.125,12.415,12.415,0,0,0,16.9,5.244,12.75,12.75,0,0,0,5.175-17.126,12.588,12.588,0,0,0-5.175-5.243Zm-3.8,13.278-2.067,7.814-2.069-7.814-7.71-2.094,7.71-2.1,1.965-7.422.1-.166.106.169,1.962,7.419,7.712,2.1Zm-3.592-22.307-3.871-5.09h10.8l-3.725,5.117Z" transform="translate(3674.305 -1505.236)" fill="url(#a)"/>
</svg>