<svg xmlns="http://www.w3.org/2000/svg" width="25" height="38" viewBox="0 0 25 38">
    <defs><linearGradient id="a" x1="-0.04" y1="0.751" x2="1.034" y2="0.171" gradientUnits="objectBoundingBox"><stop offset="0" stop-color="#ca974d"/><stop offset="0.099" stop-color="#cc9c52"/><stop offset="0.23" stop-color="#d3aa63"/><stop offset="0.379" stop-color="#dfc37e"/><stop offset="0.539" stop-color="#f0e4a4"/><stop offset="0.596" stop-color="#f7f2b4"/><stop offset="0.661" stop-color="#f2e8a8"/><stop offset="0.777" stop-color="#e5ce8b"/><stop offset="0.929" stop-color="#d0a45b"/><stop offset="0.972" stop-color="#ca974d"/><stop offset="1" stop-color="#ca974d"/></linearGradient></defs><path d="M-3557.292,1519.384l5.951-8.3-3.647-5.849-8.168,11.387-8.167-11.387-3.646,5.849,5.951,8.3a12.749,12.749,0,0,0-5.174,17.125,12.416,12.416,0,0,0,16.9,5.244,12.75,12.75,0,0,0,5.174-17.126,12.582,12.582,0,0,0-5.174-5.243Zm-3.8,13.278-2.068,7.814-2.068-7.814-7.71-2.094,7.71-2.1,1.965-7.422.1-.166.106.169,1.963,7.419,7.711,2.1Zm-3.592-22.307-3.872-5.09h10.8l-3.725,5.117Z" transform="translate(3575.655 -1505.236)" fill="url(#a)"/>
</svg>