<svg xmlns="http://www.w3.org/2000/svg" width="25" height="38" viewBox="0 0 25 38">
    <defs><linearGradient id="a" x1="-0.04" y1="0.751" x2="1.034" y2="0.171" gradientUnits="objectBoundingBox"><stop offset="0" stop-color="#777578"/><stop offset="0.043" stop-color="#a6a5a7"/><stop offset="0.624" stop-color="#f8f9fa"/><stop offset="0.867" stop-color="#c6c6c9"/><stop offset="0.933" stop-color="#a1a0a2"/><stop offset="0.948" stop-color="#a4a3a5"/><stop offset="0.962" stop-color="#b0afb1"/><stop offset="0.976" stop-color="#c3c2c4"/><stop offset="0.989" stop-color="#dddddf"/><stop offset="1" stop-color="#f8f9fa"/></linearGradient></defs><path d="M-3606.834,1519.384l5.952-8.3-3.648-5.849-8.167,11.387-8.167-11.387-3.647,5.849,5.952,8.3a12.749,12.749,0,0,0-5.174,17.125,12.414,12.414,0,0,0,16.9,5.244,12.749,12.749,0,0,0,5.175-17.126,12.578,12.578,0,0,0-5.175-5.243Zm-3.794,13.278-2.068,7.814-2.068-7.814-7.71-2.094,7.71-2.1,1.965-7.422.1-.166.106.169,1.963,7.419,7.711,2.1Zm-3.593-22.307-3.871-5.09h10.8l-3.725,5.117Z" transform="translate(3625.196 -1505.236)" fill="url(#a)"/>
</svg>