<svg xmlns="http://www.w3.org/2000/svg" width="23" height="23" viewBox="0 0 23 23">
    <path d="M21.7291 0.00100708H1.2694C0.568808 0.00100708 0 0.568689 0 1.27043V21.7304C0 22.4322 0.568808 23.0006 1.2694 23.0006H12.2843V14.0938H9.28725V10.6222H12.2843V8.06216C12.2843 5.09196 14.0979 3.47375 16.748 3.47375C18.0186 3.47375 19.1081 3.5688 19.4258 3.61008V6.71472L17.5876 6.71548C16.1467 6.71548 15.8687 7.40056 15.8687 8.40527V10.6211H19.3065L18.857 14.0923H15.8683V22.9995H21.7287C22.4301 22.9995 22.9992 22.4303 22.9992 21.7304V1.26967C22.9989 0.568689 22.4304 0.00100708 21.7291 0.00100708Z" fill="#FFFFFF"/>
</svg>