<svg xmlns="http://www.w3.org/2000/svg">
    <g id="vk" viewBox="0 0 22 13">
        <path d="M-596.615,2492.106q0-.872,0-1.741c0-.264.007-.529-.007-.791a1.608,1.608,0,0,0-.083-.414.471.471,0,0,0-.386-.32,1.775,1.775,0,0,0-.306-.025q-1.852,0-3.7,0c-.063,0-.127,0-.189.009a.565.565,0,0,0-.42.886,4.061,4.061,0,0,0,.244.329,2.629,2.629,0,0,1,.531,1.048,3.384,3.384,0,0,1,.1.8v3.44c0,.112,0,.226-.007.337a2.5,2.5,0,0,1-.066.417.32.32,0,0,1-.37.262.7.7,0,0,1-.29-.083,1.958,1.958,0,0,1-.33-.24,5.518,5.518,0,0,1-.788-.9,17.651,17.651,0,0,1-1.557-2.645,24.585,24.585,0,0,1-1.112-2.674,3.68,3.68,0,0,0-.244-.546.791.791,0,0,0-.634-.417,1.661,1.661,0,0,0-.189-.013c-.849,0-1.7,0-2.547,0a1.449,1.449,0,0,0-.389.058.528.528,0,0,0-.4.489,1.316,1.316,0,0,0,.011.364c.051.272.106.546.182.813a16.981,16.981,0,0,0,1,2.606,27.694,27.694,0,0,0,1.972,3.487,20.29,20.29,0,0,0,1.461,2.013,10.543,10.543,0,0,0,3.707,2.846,7.359,7.359,0,0,0,3.734.656,1.981,1.981,0,0,0,.692-.169.6.6,0,0,0,.356-.454,2,2,0,0,0,.029-.349c0-.712,0-1.424,0-2.136a2.938,2.938,0,0,1,.033-.452.431.431,0,0,1,.45-.414,1.2,1.2,0,0,1,.643.1,4.316,4.316,0,0,1,.551.3,9.406,9.406,0,0,1,1.546,1.316c.425.438.83.895,1.248,1.338.194.206.392.41.6.6a1.327,1.327,0,0,0,.951.351c.39-.007.781,0,1.171,0s.81.006,1.215,0a1.939,1.939,0,0,0,.476-.062.611.611,0,0,0,.462-.7,1.8,1.8,0,0,0-.1-.4,3.882,3.882,0,0,0-.519-.914,22.689,22.689,0,0,0-2.116-2.5c-.308-.32-.63-.626-.935-.948a2.505,2.505,0,0,1-.3-.409.55.55,0,0,1-.017-.574,3.639,3.639,0,0,1,.224-.375c.811-1.173,1.6-2.355,2.32-3.588a10.59,10.59,0,0,0,.814-1.62,3.165,3.165,0,0,0,.166-.635.5.5,0,0,0-.414-.594,1.919,1.919,0,0,0-.435-.045c-.781-.005-1.561,0-2.342,0a2.032,2.032,0,0,0-.306.021.994.994,0,0,0-.753.523,1.863,1.863,0,0,0-.082.171q-.466,1.075-1.03,2.1a17.562,17.562,0,0,1-1.589,2.437,5.574,5.574,0,0,1-1.027,1.036.947.947,0,0,1-.438.192.3.3,0,0,1-.327-.146,1.028,1.028,0,0,1-.114-.3,1.631,1.631,0,0,1-.027-.335Q-596.617,2493.313-596.615,2492.106Z" transform="translate(609.766 -2488.815)" fill="#2a313c"/><path d="M-596.615,2492.106q0,1.208,0,2.416a1.631,1.631,0,0,0,.027.335,1.028,1.028,0,0,0,.114.3.3.3,0,0,0,.327.146.947.947,0,0,0,.438-.192,5.574,5.574,0,0,0,1.027-1.036,17.562,17.562,0,0,0,1.589-2.437q.565-1.024,1.03-2.1a1.863,1.863,0,0,1,.082-.171.994.994,0,0,1,.753-.523,2.032,2.032,0,0,1,.306-.021c.781,0,1.561,0,2.342,0a1.919,1.919,0,0,1,.435.045.5.5,0,0,1,.414.594,3.165,3.165,0,0,1-.166.635,10.59,10.59,0,0,1-.814,1.62c-.715,1.233-1.508,2.415-2.32,3.588a3.639,3.639,0,0,0-.224.375.55.55,0,0,0,.017.574,2.505,2.505,0,0,0,.3.409c.306.322.628.628.935.948a22.689,22.689,0,0,1,2.116,2.5,3.882,3.882,0,0,1,.519.914,1.8,1.8,0,0,1,.1.4.611.611,0,0,1-.462.7,1.939,1.939,0,0,1-.476.062c-.406.009-.81,0-1.215,0s-.781-.006-1.171,0a1.327,1.327,0,0,1-.951-.351c-.209-.189-.407-.393-.6-.6-.418-.443-.823-.9-1.248-1.338a9.406,9.406,0,0,0-1.546-1.316,4.316,4.316,0,0,0-.551-.3,1.2,1.2,0,0,0-.643-.1.431.431,0,0,0-.45.414,2.938,2.938,0,0,0-.033.452c0,.712,0,1.424,0,2.136a2,2,0,0,1-.029.349.6.6,0,0,1-.356.454,1.981,1.981,0,0,1-.692.169,7.359,7.359,0,0,1-3.734-.656,10.543,10.543,0,0,1-3.707-2.846,20.29,20.29,0,0,1-1.461-2.013,27.694,27.694,0,0,1-1.972-3.487,16.981,16.981,0,0,1-1-2.606c-.076-.267-.131-.541-.182-.813a1.316,1.316,0,0,1-.011-.364.528.528,0,0,1,.4-.489,1.449,1.449,0,0,1,.389-.058c.849-.005,1.7,0,2.547,0a1.661,1.661,0,0,1,.189.013.791.791,0,0,1,.634.417,3.68,3.68,0,0,1,.244.546,24.585,24.585,0,0,0,1.112,2.674,17.651,17.651,0,0,0,1.557,2.645,5.518,5.518,0,0,0,.788.9,1.958,1.958,0,0,0,.33.24.7.7,0,0,0,.29.083.32.32,0,0,0,.37-.262,2.5,2.5,0,0,0,.066-.417c.011-.111.007-.225.007-.337v-3.44a3.384,3.384,0,0,0-.1-.8,2.629,2.629,0,0,0-.531-1.048,4.061,4.061,0,0,1-.244-.329.565.565,0,0,1,.42-.886c.062-.006.126-.009.189-.009q1.852,0,3.7,0a1.775,1.775,0,0,1,.306.025.471.471,0,0,1,.386.32,1.608,1.608,0,0,1,.083.414c.013.262.007.527.007.791Q-596.613,2491.235-596.615,2492.106Z" transform="translate(609.766 -2488.815)" fill="#2a313c"/>
    </g>
    <g id="vk-white" viewBox="0 0 22 13">
        <path d="M-596.615,2492.106q0-.872,0-1.741c0-.264.007-.529-.007-.791a1.608,1.608,0,0,0-.083-.414.471.471,0,0,0-.386-.32,1.775,1.775,0,0,0-.306-.025q-1.852,0-3.7,0c-.063,0-.127,0-.189.009a.565.565,0,0,0-.42.886,4.061,4.061,0,0,0,.244.329,2.629,2.629,0,0,1,.531,1.048,3.384,3.384,0,0,1,.1.8v3.44c0,.112,0,.226-.007.337a2.5,2.5,0,0,1-.066.417.32.32,0,0,1-.37.262.7.7,0,0,1-.29-.083,1.958,1.958,0,0,1-.33-.24,5.518,5.518,0,0,1-.788-.9,17.651,17.651,0,0,1-1.557-2.645,24.585,24.585,0,0,1-1.112-2.674,3.68,3.68,0,0,0-.244-.546.791.791,0,0,0-.634-.417,1.661,1.661,0,0,0-.189-.013c-.849,0-1.7,0-2.547,0a1.449,1.449,0,0,0-.389.058.528.528,0,0,0-.4.489,1.316,1.316,0,0,0,.011.364c.051.272.106.546.182.813a16.981,16.981,0,0,0,1,2.606,27.694,27.694,0,0,0,1.972,3.487,20.29,20.29,0,0,0,1.461,2.013,10.543,10.543,0,0,0,3.707,2.846,7.359,7.359,0,0,0,3.734.656,1.981,1.981,0,0,0,.692-.169.6.6,0,0,0,.356-.454,2,2,0,0,0,.029-.349c0-.712,0-1.424,0-2.136a2.938,2.938,0,0,1,.033-.452.431.431,0,0,1,.45-.414,1.2,1.2,0,0,1,.643.1,4.316,4.316,0,0,1,.551.3,9.406,9.406,0,0,1,1.546,1.316c.425.438.83.895,1.248,1.338.194.206.392.41.6.6a1.327,1.327,0,0,0,.951.351c.39-.007.781,0,1.171,0s.81.006,1.215,0a1.939,1.939,0,0,0,.476-.062.611.611,0,0,0,.462-.7,1.8,1.8,0,0,0-.1-.4,3.882,3.882,0,0,0-.519-.914,22.689,22.689,0,0,0-2.116-2.5c-.308-.32-.63-.626-.935-.948a2.505,2.505,0,0,1-.3-.409.55.55,0,0,1-.017-.574,3.639,3.639,0,0,1,.224-.375c.811-1.173,1.6-2.355,2.32-3.588a10.59,10.59,0,0,0,.814-1.62,3.165,3.165,0,0,0,.166-.635.5.5,0,0,0-.414-.594,1.919,1.919,0,0,0-.435-.045c-.781-.005-1.561,0-2.342,0a2.032,2.032,0,0,0-.306.021.994.994,0,0,0-.753.523,1.863,1.863,0,0,0-.082.171q-.466,1.075-1.03,2.1a17.562,17.562,0,0,1-1.589,2.437,5.574,5.574,0,0,1-1.027,1.036.947.947,0,0,1-.438.192.3.3,0,0,1-.327-.146,1.028,1.028,0,0,1-.114-.3,1.631,1.631,0,0,1-.027-.335Q-596.617,2493.313-596.615,2492.106Z" transform="translate(609.766 -2488.815)" fill="#B5BAC3"/>
        <path d="M-596.615,2492.106q0,1.208,0,2.416a1.631,1.631,0,0,0,.027.335,1.028,1.028,0,0,0,.114.3.3.3,0,0,0,.327.146.947.947,0,0,0,.438-.192,5.574,5.574,0,0,0,1.027-1.036,17.562,17.562,0,0,0,1.589-2.437q.565-1.024,1.03-2.1a1.863,1.863,0,0,1,.082-.171.994.994,0,0,1,.753-.523,2.032,2.032,0,0,1,.306-.021c.781,0,1.561,0,2.342,0a1.919,1.919,0,0,1,.435.045.5.5,0,0,1,.414.594,3.165,3.165,0,0,1-.166.635,10.59,10.59,0,0,1-.814,1.62c-.715,1.233-1.508,2.415-2.32,3.588a3.639,3.639,0,0,0-.224.375.55.55,0,0,0,.017.574,2.505,2.505,0,0,0,.3.409c.306.322.628.628.935.948a22.689,22.689,0,0,1,2.116,2.5,3.882,3.882,0,0,1,.519.914,1.8,1.8,0,0,1,.1.4.611.611,0,0,1-.462.7,1.939,1.939,0,0,1-.476.062c-.406.009-.81,0-1.215,0s-.781-.006-1.171,0a1.327,1.327,0,0,1-.951-.351c-.209-.189-.407-.393-.6-.6-.418-.443-.823-.9-1.248-1.338a9.406,9.406,0,0,0-1.546-1.316,4.316,4.316,0,0,0-.551-.3,1.2,1.2,0,0,0-.643-.1.431.431,0,0,0-.45.414,2.938,2.938,0,0,0-.033.452c0,.712,0,1.424,0,2.136a2,2,0,0,1-.029.349.6.6,0,0,1-.356.454,1.981,1.981,0,0,1-.692.169,7.359,7.359,0,0,1-3.734-.656,10.543,10.543,0,0,1-3.707-2.846,20.29,20.29,0,0,1-1.461-2.013,27.694,27.694,0,0,1-1.972-3.487,16.981,16.981,0,0,1-1-2.606c-.076-.267-.131-.541-.182-.813a1.316,1.316,0,0,1-.011-.364.528.528,0,0,1,.4-.489,1.449,1.449,0,0,1,.389-.058c.849-.005,1.7,0,2.547,0a1.661,1.661,0,0,1,.189.013.791.791,0,0,1,.634.417,3.68,3.68,0,0,1,.244.546,24.585,24.585,0,0,0,1.112,2.674,17.651,17.651,0,0,0,1.557,2.645,5.518,5.518,0,0,0,.788.9,1.958,1.958,0,0,0,.33.24.7.7,0,0,0,.29.083.32.32,0,0,0,.37-.262,2.5,2.5,0,0,0,.066-.417c.011-.111.007-.225.007-.337v-3.44a3.384,3.384,0,0,0-.1-.8,2.629,2.629,0,0,0-.531-1.048,4.061,4.061,0,0,1-.244-.329.565.565,0,0,1,.42-.886c.062-.006.126-.009.189-.009q1.852,0,3.7,0a1.775,1.775,0,0,1,.306.025.471.471,0,0,1,.386.32,1.608,1.608,0,0,1,.083.414c.013.262.007.527.007.791Q-596.613,2491.235-596.615,2492.106Z" transform="translate(609.766 -2488.815)" fill="#B5BAC3"/>
    </g>
    <g id="vk-hover" viewBox="0 0 22 13">
        <path d="M-596.615,2492.106q0-.872,0-1.741c0-.264.007-.529-.007-.791a1.608,1.608,0,0,0-.083-.414.471.471,0,0,0-.386-.32,1.775,1.775,0,0,0-.306-.025q-1.852,0-3.7,0c-.063,0-.127,0-.189.009a.565.565,0,0,0-.42.886,4.061,4.061,0,0,0,.244.329,2.629,2.629,0,0,1,.531,1.048,3.384,3.384,0,0,1,.1.8v3.44c0,.112,0,.226-.007.337a2.5,2.5,0,0,1-.066.417.32.32,0,0,1-.37.262.7.7,0,0,1-.29-.083,1.958,1.958,0,0,1-.33-.24,5.518,5.518,0,0,1-.788-.9,17.651,17.651,0,0,1-1.557-2.645,24.585,24.585,0,0,1-1.112-2.674,3.68,3.68,0,0,0-.244-.546.791.791,0,0,0-.634-.417,1.661,1.661,0,0,0-.189-.013c-.849,0-1.7,0-2.547,0a1.449,1.449,0,0,0-.389.058.528.528,0,0,0-.4.489,1.316,1.316,0,0,0,.011.364c.051.272.106.546.182.813a16.981,16.981,0,0,0,1,2.606,27.694,27.694,0,0,0,1.972,3.487,20.29,20.29,0,0,0,1.461,2.013,10.543,10.543,0,0,0,3.707,2.846,7.359,7.359,0,0,0,3.734.656,1.981,1.981,0,0,0,.692-.169.6.6,0,0,0,.356-.454,2,2,0,0,0,.029-.349c0-.712,0-1.424,0-2.136a2.938,2.938,0,0,1,.033-.452.431.431,0,0,1,.45-.414,1.2,1.2,0,0,1,.643.1,4.316,4.316,0,0,1,.551.3,9.406,9.406,0,0,1,1.546,1.316c.425.438.83.895,1.248,1.338.194.206.392.41.6.6a1.327,1.327,0,0,0,.951.351c.39-.007.781,0,1.171,0s.81.006,1.215,0a1.939,1.939,0,0,0,.476-.062.611.611,0,0,0,.462-.7,1.8,1.8,0,0,0-.1-.4,3.882,3.882,0,0,0-.519-.914,22.689,22.689,0,0,0-2.116-2.5c-.308-.32-.63-.626-.935-.948a2.505,2.505,0,0,1-.3-.409.55.55,0,0,1-.017-.574,3.639,3.639,0,0,1,.224-.375c.811-1.173,1.6-2.355,2.32-3.588a10.59,10.59,0,0,0,.814-1.62,3.165,3.165,0,0,0,.166-.635.5.5,0,0,0-.414-.594,1.919,1.919,0,0,0-.435-.045c-.781-.005-1.561,0-2.342,0a2.032,2.032,0,0,0-.306.021.994.994,0,0,0-.753.523,1.863,1.863,0,0,0-.082.171q-.466,1.075-1.03,2.1a17.562,17.562,0,0,1-1.589,2.437,5.574,5.574,0,0,1-1.027,1.036.947.947,0,0,1-.438.192.3.3,0,0,1-.327-.146,1.028,1.028,0,0,1-.114-.3,1.631,1.631,0,0,1-.027-.335Q-596.617,2493.313-596.615,2492.106Z" transform="translate(609.766 -2488.815)" fill="#4680c2"/><path d="M-596.615,2492.106q0,1.208,0,2.416a1.631,1.631,0,0,0,.027.335,1.028,1.028,0,0,0,.114.3.3.3,0,0,0,.327.146.947.947,0,0,0,.438-.192,5.574,5.574,0,0,0,1.027-1.036,17.562,17.562,0,0,0,1.589-2.437q.565-1.024,1.03-2.1a1.863,1.863,0,0,1,.082-.171.994.994,0,0,1,.753-.523,2.032,2.032,0,0,1,.306-.021c.781,0,1.561,0,2.342,0a1.919,1.919,0,0,1,.435.045.5.5,0,0,1,.414.594,3.165,3.165,0,0,1-.166.635,10.59,10.59,0,0,1-.814,1.62c-.715,1.233-1.508,2.415-2.32,3.588a3.639,3.639,0,0,0-.224.375.55.55,0,0,0,.017.574,2.505,2.505,0,0,0,.3.409c.306.322.628.628.935.948a22.689,22.689,0,0,1,2.116,2.5,3.882,3.882,0,0,1,.519.914,1.8,1.8,0,0,1,.1.4.611.611,0,0,1-.462.7,1.939,1.939,0,0,1-.476.062c-.406.009-.81,0-1.215,0s-.781-.006-1.171,0a1.327,1.327,0,0,1-.951-.351c-.209-.189-.407-.393-.6-.6-.418-.443-.823-.9-1.248-1.338a9.406,9.406,0,0,0-1.546-1.316,4.316,4.316,0,0,0-.551-.3,1.2,1.2,0,0,0-.643-.1.431.431,0,0,0-.45.414,2.938,2.938,0,0,0-.033.452c0,.712,0,1.424,0,2.136a2,2,0,0,1-.029.349.6.6,0,0,1-.356.454,1.981,1.981,0,0,1-.692.169,7.359,7.359,0,0,1-3.734-.656,10.543,10.543,0,0,1-3.707-2.846,20.29,20.29,0,0,1-1.461-2.013,27.694,27.694,0,0,1-1.972-3.487,16.981,16.981,0,0,1-1-2.606c-.076-.267-.131-.541-.182-.813a1.316,1.316,0,0,1-.011-.364.528.528,0,0,1,.4-.489,1.449,1.449,0,0,1,.389-.058c.849-.005,1.7,0,2.547,0a1.661,1.661,0,0,1,.189.013.791.791,0,0,1,.634.417,3.68,3.68,0,0,1,.244.546,24.585,24.585,0,0,0,1.112,2.674,17.651,17.651,0,0,0,1.557,2.645,5.518,5.518,0,0,0,.788.9,1.958,1.958,0,0,0,.33.24.7.7,0,0,0,.29.083.32.32,0,0,0,.37-.262,2.5,2.5,0,0,0,.066-.417c.011-.111.007-.225.007-.337v-3.44a3.384,3.384,0,0,0-.1-.8,2.629,2.629,0,0,0-.531-1.048,4.061,4.061,0,0,1-.244-.329.565.565,0,0,1,.42-.886c.062-.006.126-.009.189-.009q1.852,0,3.7,0a1.775,1.775,0,0,1,.306.025.471.471,0,0,1,.386.32,1.608,1.608,0,0,1,.083.414c.013.262.007.527.007.791Q-596.613,2491.235-596.615,2492.106Z" transform="translate(609.766 -2488.815)" fill="#4680c2"/>
    </g>
    <g id="yt" viewBox="0 0 21 16">
        <path d="M252.328,17.269a3.376,3.376,0,0,0,2.228.943c1.628.171,6.942.257,6.942.257s4.285,0,7.2-.257a3.036,3.036,0,0,0,2.057-.943,5.091,5.091,0,0,0,.771-2.228s.172-1.8.172-3.6V9.728c0-1.8-.172-3.6-.172-3.6a5.093,5.093,0,0,0-.771-2.228,3.036,3.036,0,0,0-2.057-.943c-2.828-.257-7.2-.257-7.2-.257s-4.285,0-7.2.257a3.036,3.036,0,0,0-2.057.943,5.093,5.093,0,0,0-.771,2.228s-.171,1.8-.171,3.6v1.714c0,1.8.171,3.6.171,3.6A5.26,5.26,0,0,0,252.328,17.269Zm13.541-6.6-7.113,3.514V7.071Z" transform="translate(-251.3 -2.7)" fill="#2a313c"/>
    </g>
    <g id="yt-white" viewBox="0 0 21 16">
        <path d="M252.328,17.269a3.376,3.376,0,0,0,2.228.943c1.628.171,6.942.257,6.942.257s4.285,0,7.2-.257a3.036,3.036,0,0,0,2.057-.943,5.091,5.091,0,0,0,.771-2.228s.172-1.8.172-3.6V9.728c0-1.8-.172-3.6-.172-3.6a5.093,5.093,0,0,0-.771-2.228,3.036,3.036,0,0,0-2.057-.943c-2.828-.257-7.2-.257-7.2-.257s-4.285,0-7.2.257a3.036,3.036,0,0,0-2.057.943,5.093,5.093,0,0,0-.771,2.228s-.171,1.8-.171,3.6v1.714c0,1.8.171,3.6.171,3.6A5.26,5.26,0,0,0,252.328,17.269Zm13.541-6.6-7.113,3.514V7.071Z" transform="translate(-251.3 -2.7)" fill="#B5BAC3"/>
    </g>
    <g id="yt-hover" viewBox="0 0 21 16">
        <path d="M252.328,17.269a3.376,3.376,0,0,0,2.228.943c1.628.171,6.942.257,6.942.257s4.285,0,7.2-.257a3.036,3.036,0,0,0,2.057-.943,5.091,5.091,0,0,0,.771-2.228s.172-1.8.172-3.6V9.728c0-1.8-.172-3.6-.172-3.6a5.093,5.093,0,0,0-.771-2.228,3.036,3.036,0,0,0-2.057-.943c-2.828-.257-7.2-.257-7.2-.257s-4.285,0-7.2.257a3.036,3.036,0,0,0-2.057.943,5.093,5.093,0,0,0-.771,2.228s-.171,1.8-.171,3.6v1.714c0,1.8.171,3.6.171,3.6A5.26,5.26,0,0,0,252.328,17.269Zm13.541-6.6-7.113,3.514V7.071Z" transform="translate(-251.3 -2.7)" fill="red"/>
    </g>
    <g id="ig" viewBox="0 0 20 20">
        <path d="M-1972.1-398.236a7.662,7.662,0,0,0-.478-2.291,4.359,4.359,0,0,0-1.049-1.527,5.46,5.46,0,0,0-1.528-1.05,7.7,7.7,0,0,0-2.291-.477c-1.146-.1-1.527-.1-4.391-.1h-.954a31.06,31.06,0,0,0-3.436.1,7.707,7.707,0,0,0-2.291.477,4.363,4.363,0,0,0-1.528,1.05,5.478,5.478,0,0,0-1.05,1.527,7.706,7.706,0,0,0-.477,2.291c-.1,1.145-.1,1.528-.1,4.391s0,3.245.1,4.39a7.7,7.7,0,0,0,.477,2.291,5.087,5.087,0,0,0,2.577,2.577,7.658,7.658,0,0,0,2.291.477c1.145.1,1.527.1,4.39.1s3.246,0,4.391-.1a7.65,7.65,0,0,0,2.291-.477,5.079,5.079,0,0,0,2.577-2.577,7.652,7.652,0,0,0,.478-2.291c.1-1.146.1-1.527.1-4.39S-1972-397.086-1972.1-398.236Zm-3.437,0a1.718,1.718,0,0,1-1.718-1.718,1.718,1.718,0,0,1,1.718-1.718,1.718,1.718,0,0,1,1.718,1.718h0A1.774,1.774,0,0,1-1975.535-398.236Zm-6.2,10.214a5.727,5.727,0,0,1-5.727-5.727,5.727,5.727,0,0,1,5.727-5.727,5.727,5.727,0,0,1,5.727,5.727h0a5.743,5.743,0,0,1-5.727,5.73Zm0-9.064a3.245,3.245,0,0,1,3.246,3.245,3.245,3.245,0,0,1-3.246,3.245,3.246,3.246,0,0,1-3.246-3.245A3.246,3.246,0,0,1-1981.739-397.086Z" transform="translate(1991.667 403.688)" fill="#2a313c"/>
    </g>
    <g id="ig-white" viewBox="0 0 20 20">
        <path d="M-1972.1-398.236a7.662,7.662,0,0,0-.478-2.291,4.359,4.359,0,0,0-1.049-1.527,5.46,5.46,0,0,0-1.528-1.05,7.7,7.7,0,0,0-2.291-.477c-1.146-.1-1.527-.1-4.391-.1h-.954a31.06,31.06,0,0,0-3.436.1,7.707,7.707,0,0,0-2.291.477,4.363,4.363,0,0,0-1.528,1.05,5.478,5.478,0,0,0-1.05,1.527,7.706,7.706,0,0,0-.477,2.291c-.1,1.145-.1,1.528-.1,4.391s0,3.245.1,4.39a7.7,7.7,0,0,0,.477,2.291,5.087,5.087,0,0,0,2.577,2.577,7.658,7.658,0,0,0,2.291.477c1.145.1,1.527.1,4.39.1s3.246,0,4.391-.1a7.65,7.65,0,0,0,2.291-.477,5.079,5.079,0,0,0,2.577-2.577,7.652,7.652,0,0,0,.478-2.291c.1-1.146.1-1.527.1-4.39S-1972-397.086-1972.1-398.236Zm-3.437,0a1.718,1.718,0,0,1-1.718-1.718,1.718,1.718,0,0,1,1.718-1.718,1.718,1.718,0,0,1,1.718,1.718h0A1.774,1.774,0,0,1-1975.535-398.236Zm-6.2,10.214a5.727,5.727,0,0,1-5.727-5.727,5.727,5.727,0,0,1,5.727-5.727,5.727,5.727,0,0,1,5.727,5.727h0a5.743,5.743,0,0,1-5.727,5.73Zm0-9.064a3.245,3.245,0,0,1,3.246,3.245,3.245,3.245,0,0,1-3.246,3.245,3.246,3.246,0,0,1-3.246-3.245A3.246,3.246,0,0,1-1981.739-397.086Z" transform="translate(1991.667 403.688)" fill="#B5BAC3"/>
    </g>
    <g id="ig-hover" viewBox="0 0 20 20">
        <linearGradient id="a" x1="0.298" y1="1" x2="1" y2="0.259" gradientUnits="objectBoundingBox"><stop offset="0" stop-color="#fbb750"/><stop offset="1" stop-color="#9536ae"/></linearGradient><path d="M-1972.1-398.236a7.662,7.662,0,0,0-.478-2.291,4.359,4.359,0,0,0-1.049-1.527,5.46,5.46,0,0,0-1.528-1.05,7.7,7.7,0,0,0-2.291-.477c-1.146-.1-1.527-.1-4.391-.1h-.954a31.06,31.06,0,0,0-3.436.1,7.707,7.707,0,0,0-2.291.477,4.363,4.363,0,0,0-1.528,1.05,5.478,5.478,0,0,0-1.05,1.527,7.706,7.706,0,0,0-.477,2.291c-.1,1.145-.1,1.528-.1,4.391s0,3.245.1,4.39a7.7,7.7,0,0,0,.477,2.291,5.087,5.087,0,0,0,2.577,2.577,7.658,7.658,0,0,0,2.291.477c1.145.1,1.527.1,4.39.1s3.246,0,4.391-.1a7.65,7.65,0,0,0,2.291-.477,5.079,5.079,0,0,0,2.577-2.577,7.652,7.652,0,0,0,.478-2.291c.1-1.146.1-1.527.1-4.39S-1972-397.086-1972.1-398.236Zm-3.437,0a1.718,1.718,0,0,1-1.718-1.718,1.718,1.718,0,0,1,1.718-1.718,1.718,1.718,0,0,1,1.718,1.718h0A1.774,1.774,0,0,1-1975.535-398.236Zm-6.2,10.214a5.727,5.727,0,0,1-5.727-5.727,5.727,5.727,0,0,1,5.727-5.727,5.727,5.727,0,0,1,5.727,5.727h0a5.743,5.743,0,0,1-5.727,5.73Zm0-9.064a3.245,3.245,0,0,1,3.246,3.245,3.245,3.245,0,0,1-3.246,3.245,3.246,3.246,0,0,1-3.246-3.245A3.246,3.246,0,0,1-1981.739-397.086Z" transform="translate(1991.667 403.688)" fill="url(#a)"/>
    </g>
    <g id="fb" viewBox="0 0 18 18">
        <clipPath id="a-path">
            <path d="M-592,2398.914H-604.85a2.665,2.665,0,0,0-2.662,2.662v12.846a2.665,2.665,0,0,0,2.662,2.662h5.359v-6.423h-2.129v-3.194h2.129V2405.3a3.2,3.2,0,0,1,3.194-3.194h3.229v3.194H-596.3v2.165h3.229l-.532,3.194h-2.7v6.423H-592a2.664,2.664,0,0,0,2.661-2.662v-12.846A2.665,2.665,0,0,0-592,2398.914Z" transform="translate(607.512 -2398.914)" fill="#2a313c" clip-rule="evenodd"/>
        </clipPath>
        <g clip-path="url(#a-path)">
            <g transform="translate(-30.369 -58.403)">
                <rect width="475.394" height="467.222" fill="#2a313c"/>
            </g>
        </g>
    </g>
    <g id="fb-white" viewBox="0 0 18 18">
        <clipPath id="c-path">
            <path d="M-592,2398.914H-604.85a2.665,2.665,0,0,0-2.662,2.662v12.846a2.665,2.665,0,0,0,2.662,2.662h5.359v-6.423h-2.129v-3.194h2.129V2405.3a3.2,3.2,0,0,1,3.194-3.194h3.229v3.194H-596.3v2.165h3.229l-.532,3.194h-2.7v6.423H-592a2.664,2.664,0,0,0,2.661-2.662v-12.846A2.665,2.665,0,0,0-592,2398.914Z" transform="translate(607.512 -2398.914)" fill="#B5BAC3" clip-rule="evenodd"/>
        </clipPath>
        <g clip-path="url(#c-path)">
            <g transform="translate(-30.369 -58.403)">
                <rect width="475.394" height="467.222" fill="#B5BAC3"/>
            </g>
        </g>
    </g>
    <g id="fb-hover" viewBox="0 0 18 18">
        <clipPath id="b-path">
            <path d="M-592,2398.914H-604.85a2.665,2.665,0,0,0-2.662,2.662v12.846a2.665,2.665,0,0,0,2.662,2.662h5.359v-6.423h-2.129v-3.194h2.129V2405.3a3.2,3.2,0,0,1,3.194-3.194h3.229v3.194H-596.3v2.165h3.229l-.532,3.194h-2.7v6.423H-592a2.664,2.664,0,0,0,2.661-2.662v-12.846A2.665,2.665,0,0,0-592,2398.914Z" transform="translate(607.512 -2398.914)" fill="#3B5998" clip-rule="evenodd"/>
        </clipPath>
        <g clip-path="url(#b-path)">
            <g transform="translate(-30.369 -58.403)">
                <rect width="475.394" height="467.222" fill="#3B5998"/>
            </g>
        </g>
    </g>
    <g id="tg" viewBox="0 0 21 18">
        <path d="M-5079.307-77.72l-18.21,7.14c-1.28.524-1.271,1.254-.233,1.579l4.813,1.535,11.028-7.135c.361-.308.824.053.593.309l-8.895,8.177.022.017v6.368a1.189,1.189,0,0,0,.959-.414l2.994-2.969,3.869,2.921c.891.5,1.541.243,1.765-.85l3.193-15.377C-5077.084-77.759-5078.451-78.118-5079.307-77.72Z" transform="translate(5098.505 77.873)" fill="#2a313c"/>
    </g>
    <g id="tg-white" viewBox="0 0 21 18">
        <path d="M-5079.307-77.72l-18.21,7.14c-1.28.524-1.271,1.254-.233,1.579l4.813,1.535,11.028-7.135c.361-.308.824.053.593.309l-8.895,8.177.022.017v6.368a1.189,1.189,0,0,0,.959-.414l2.994-2.969,3.869,2.921c.891.5,1.541.243,1.765-.85l3.193-15.377C-5077.084-77.759-5078.451-78.118-5079.307-77.72Z" transform="translate(5098.505 77.873)" fill="#B5BAC3"/>
    </g>
    <g id="tg-hover" viewBox="0 0 21 18">
        <path d="M-5079.307-77.72l-18.21,7.14c-1.28.524-1.271,1.254-.233,1.579l4.813,1.535,11.028-7.135c.361-.308.824.053.593.309l-8.895,8.177.022.017v6.368a1.189,1.189,0,0,0,.959-.414l2.994-2.969,3.869,2.921c.891.5,1.541.243,1.765-.85l3.193-15.377C-5077.084-77.759-5078.451-78.118-5079.307-77.72Z" transform="translate(5098.505 77.873)" fill="#2b9fd9"/>
    </g>
    <style>
        svg>g {display:none}
        :target {display:inline}
    </style>
</svg>