<svg xmlns="http://www.w3.org/2000/svg">
    <g id="vk" viewBox="0 0 36 21">
        <path d="M-588.88,2494.041q0-1.384,0-2.764c0-.419.011-.84-.011-1.256a2.553,2.553,0,0,0-.132-.657.747.747,0,0,0-.614-.508,2.854,2.854,0,0,0-.485-.039q-2.941,0-5.881,0c-.1,0-.2,0-.3.014a.9.9,0,0,0-.667,1.408,6.362,6.362,0,0,0,.388.522,4.175,4.175,0,0,1,.843,1.664,5.38,5.38,0,0,1,.157,1.266v5.462c0,.179.006.358-.011.535a4.021,4.021,0,0,1-.105.662.508.508,0,0,1-.588.416,1.113,1.113,0,0,1-.461-.133,3.084,3.084,0,0,1-.524-.382,8.726,8.726,0,0,1-1.252-1.432,28.016,28.016,0,0,1-2.473-4.2,39.1,39.1,0,0,1-1.766-4.246,5.82,5.82,0,0,0-.388-.867,1.255,1.255,0,0,0-1.008-.663,2.566,2.566,0,0,0-.3-.021c-1.348,0-2.7-.006-4.044,0a2.266,2.266,0,0,0-.618.093.838.838,0,0,0-.632.776,2.083,2.083,0,0,0,.017.578c.081.433.168.868.288,1.292a26.945,26.945,0,0,0,1.588,4.139,44.029,44.029,0,0,0,3.131,5.539,32.168,32.168,0,0,0,2.321,3.2,16.74,16.74,0,0,0,5.887,4.521,11.681,11.681,0,0,0,5.93,1.042,3.159,3.159,0,0,0,1.1-.268.96.96,0,0,0,.565-.721,3.171,3.171,0,0,0,.046-.554c0-1.13,0-2.261,0-3.392a4.676,4.676,0,0,1,.052-.718.683.683,0,0,1,.714-.657,1.906,1.906,0,0,1,1.021.159,6.976,6.976,0,0,1,.875.478,14.925,14.925,0,0,1,2.455,2.091c.675.7,1.318,1.42,1.982,2.124.308.327.623.651.954.951a2.105,2.105,0,0,0,1.51.557c.62-.01,1.24,0,1.86,0,.643,0,1.286.01,1.93,0a3.066,3.066,0,0,0,.756-.1.97.97,0,0,0,.733-1.115,2.868,2.868,0,0,0-.154-.629,6.17,6.17,0,0,0-.825-1.451,35.995,35.995,0,0,0-3.36-3.971c-.488-.508-1-.994-1.486-1.5a3.994,3.994,0,0,1-.482-.65.874.874,0,0,1-.027-.911,5.864,5.864,0,0,1,.356-.6c1.288-1.863,2.548-3.74,3.684-5.7a16.773,16.773,0,0,0,1.293-2.573,5.008,5.008,0,0,0,.264-1.008.788.788,0,0,0-.658-.944,3.068,3.068,0,0,0-.69-.071c-1.24-.009-2.479-.006-3.719,0a3.2,3.2,0,0,0-.486.033,1.579,1.579,0,0,0-1.2.831,2.973,2.973,0,0,0-.13.272q-.74,1.707-1.635,3.337a27.887,27.887,0,0,1-2.524,3.871,8.83,8.83,0,0,1-1.63,1.646,1.5,1.5,0,0,1-.695.3.48.48,0,0,1-.519-.231,1.63,1.63,0,0,1-.182-.47,2.584,2.584,0,0,1-.043-.531Q-588.883,2495.958-588.88,2494.041Z" transform="translate(609.766 -2488.815)" fill="#F3F4F6"/><path d="M-588.88,2494.041q0,1.92,0,3.837a2.584,2.584,0,0,0,.043.531,1.63,1.63,0,0,0,.182.47.48.48,0,0,0,.519.231,1.5,1.5,0,0,0,.695-.3,8.83,8.83,0,0,0,1.63-1.646,27.887,27.887,0,0,0,2.524-3.871q.9-1.627,1.635-3.337a2.973,2.973,0,0,1,.13-.272,1.579,1.579,0,0,1,1.2-.831,3.2,3.2,0,0,1,.486-.033c1.239,0,2.479,0,3.719,0a3.068,3.068,0,0,1,.69.071.788.788,0,0,1,.658.944,5.008,5.008,0,0,1-.264,1.008,16.773,16.773,0,0,1-1.293,2.573c-1.136,1.959-2.4,3.836-3.684,5.7a5.864,5.864,0,0,0-.356.6.874.874,0,0,0,.027.911,3.994,3.994,0,0,0,.482.65c.486.511,1,1,1.486,1.5a35.995,35.995,0,0,1,3.36,3.971,6.17,6.17,0,0,1,.825,1.451,2.868,2.868,0,0,1,.154.629.97.97,0,0,1-.733,1.115,3.066,3.066,0,0,1-.756.1c-.644.014-1.287,0-1.93,0-.62,0-1.24-.009-1.86,0a2.105,2.105,0,0,1-1.51-.557c-.331-.3-.646-.624-.954-.951-.664-.7-1.307-1.429-1.982-2.124a14.925,14.925,0,0,0-2.455-2.091,6.976,6.976,0,0,0-.875-.478,1.906,1.906,0,0,0-1.021-.159.683.683,0,0,0-.714.657,4.676,4.676,0,0,0-.052.718c-.006,1.131,0,2.262,0,3.392a3.171,3.171,0,0,1-.046.554.96.96,0,0,1-.565.721,3.159,3.159,0,0,1-1.1.268,11.681,11.681,0,0,1-5.93-1.042,16.74,16.74,0,0,1-5.887-4.521,32.168,32.168,0,0,1-2.321-3.2,44.029,44.029,0,0,1-3.131-5.539,26.945,26.945,0,0,1-1.588-4.139c-.121-.424-.208-.859-.288-1.292a2.083,2.083,0,0,1-.017-.578.838.838,0,0,1,.632-.776,2.266,2.266,0,0,1,.618-.093c1.348-.008,2.7-.006,4.044,0a2.566,2.566,0,0,1,.3.021,1.255,1.255,0,0,1,1.008.663,5.82,5.82,0,0,1,.388.867,39.1,39.1,0,0,0,1.766,4.246,28.016,28.016,0,0,0,2.473,4.2,8.726,8.726,0,0,0,1.252,1.432,3.084,3.084,0,0,0,.524.382,1.113,1.113,0,0,0,.461.133.508.508,0,0,0,.588-.416,4.021,4.021,0,0,0,.105-.662c.017-.177.011-.356.011-.535v-5.462a5.38,5.38,0,0,0-.157-1.266,4.175,4.175,0,0,0-.843-1.664,6.362,6.362,0,0,1-.388-.522.9.9,0,0,1,.667-1.408c.1-.01.2-.014.3-.014q2.941,0,5.881,0a2.854,2.854,0,0,1,.485.039.747.747,0,0,1,.614.508,2.553,2.553,0,0,1,.132.657c.021.416.011.837.011,1.256Q-588.878,2492.658-588.88,2494.041Z" transform="translate(609.766 -2488.815)" fill="#F3F4F6"/>
    </g>
    <g id="ig" viewBox="0 0 29 29">
        <path d="M-1962.828-395.652a11.281,11.281,0,0,0-.7-3.376,6.43,6.43,0,0,0-1.547-2.251,8.035,8.035,0,0,0-2.251-1.547,11.342,11.342,0,0,0-3.376-.7c-1.688-.141-2.251-.141-6.472-.141h-1.406a45.819,45.819,0,0,0-5.064.141,11.36,11.36,0,0,0-3.376.7,6.433,6.433,0,0,0-2.251,1.547,8.066,8.066,0,0,0-1.547,2.251,11.357,11.357,0,0,0-.7,3.376c-.141,1.688-.141,2.251-.141,6.471s0,4.782.141,6.471a11.342,11.342,0,0,0,.7,3.376,7.5,7.5,0,0,0,3.8,3.8,11.291,11.291,0,0,0,3.376.7c1.688.141,2.251.141,6.471.141s4.783,0,6.472-.141a11.274,11.274,0,0,0,3.376-.7,7.489,7.489,0,0,0,3.8-3.8,11.266,11.266,0,0,0,.7-3.376c.141-1.688.141-2.251.141-6.471S-1962.688-393.958-1962.828-395.652Zm-5.064,0a2.532,2.532,0,0,1-2.532-2.532,2.532,2.532,0,0,1,2.532-2.532,2.532,2.532,0,0,1,2.532,2.532h0A2.614,2.614,0,0,1-1967.892-395.652Zm-9.144,15.052a8.441,8.441,0,0,1-8.441-8.441,8.441,8.441,0,0,1,8.441-8.441,8.441,8.441,0,0,1,8.441,8.441h0a8.464,8.464,0,0,1-8.441,8.445Zm0-13.359a4.783,4.783,0,0,1,4.784,4.782,4.783,4.783,0,0,1-4.784,4.782,4.783,4.783,0,0,1-4.783-4.782A4.783,4.783,0,0,1-1977.035-393.958Z" transform="translate(1991.667 403.688)" fill="#F3F4F6"/>
    </g>
    <g id="yt" viewBox="0 0 31 24">
        <path d="M252.874,24.993a5.165,5.165,0,0,0,3.409,1.442c2.492.262,10.622.393,10.622.393s6.557,0,11.015-.393a4.645,4.645,0,0,0,3.147-1.442,7.79,7.79,0,0,0,1.18-3.409s.262-2.754.262-5.508V13.453c0-2.754-.262-5.508-.262-5.508a7.793,7.793,0,0,0-1.18-3.409,4.645,4.645,0,0,0-3.147-1.442C273.593,2.7,266.905,2.7,266.905,2.7s-6.557,0-11.015.393a4.645,4.645,0,0,0-3.147,1.442,7.793,7.793,0,0,0-1.18,3.409s-.262,2.754-.262,5.508v2.623c0,2.754.262,5.508.262,5.508S251.956,24.075,252.874,24.993Zm20.719-10.1-10.884,5.376V9.388Z" transform="translate(-251.3 -2.7)" fill="#F3F4F6"/>
    </g>
    <g id="fb" viewBox="0 0 26 26">
        <clipPath id="a-path">
            <path d="M-584.919,2398.914h-18.715a3.883,3.883,0,0,0-3.878,3.878v18.715a3.883,3.883,0,0,0,3.878,3.877h7.806v-9.357h-3.1v-4.653h3.1v-3.154a4.657,4.657,0,0,1,4.652-4.652h4.7v4.652h-4.7v3.154h4.7l-.774,4.653h-3.93v9.357h6.256a3.882,3.882,0,0,0,3.877-3.877v-18.715A3.882,3.882,0,0,0-584.919,2398.914Z" transform="translate(607.512 -2398.914)" fill="#F3F4F6" clip-rule="evenodd"/>
        </clipPath>
        <clipPath id="b-path">
            <rect width="692.567" height="680.662" fill="#F3F4F6"/>
        </clipPath>
        <path d="M-584.919,2398.914h-18.715a3.883,3.883,0,0,0-3.878,3.878v18.715a3.883,3.883,0,0,0,3.878,3.877h7.806v-9.357h-3.1v-4.653h3.1v-3.154a4.657,4.657,0,0,1,4.652-4.652h4.7v4.652h-4.7v3.154h4.7l-.774,4.653h-3.93v9.357h6.256a3.882,3.882,0,0,0,3.877-3.877v-18.715A3.882,3.882,0,0,0-584.919,2398.914Z" transform="translate(607.512 -2398.914)" fill="#F3F4F6" fill-rule="evenodd"/>
        <g clip-path="url(#a-path)">
            <g transform="translate(-44.242 -85.082)">
                <rect width="692.567" height="680.662" fill="#F3F4F6"/>
                <g clip-path="url(#b-path)">
                    <rect width="43.486" height="43.487" transform="translate(35.734 76.575)" fill="#F3F4F6"/>
                </g>
            </g>
        </g>
    </g>
    <g id="tg" viewBox="0 0 29 25">
        <path d="M26.3294 0.210834L1.35478 10.0483C-0.400715 10.7702 -0.388248 11.776 1.03535 12.2238L7.63628 14.3387L22.7608 4.50817C23.2559 4.08381 23.8912 4.58119 23.5744 4.9339L11.375 16.2001L11.4052 16.2235V24.9973C11.6532 25.0091 11.9005 24.9638 12.1284 24.8649C12.3564 24.7661 12.5589 24.6163 12.7204 24.4269L16.8268 20.3362L22.1326 24.3607C23.3546 25.0496 24.2463 24.6955 24.5535 23.1896L28.9324 2.00334C29.3782 0.157104 27.5034 -0.337526 26.3294 0.210834Z" fill="#FFFFFF"/>
    </g>
    <style>
        svg>g {display:none}
        :target {display: inline}
    </style>
</svg>