<svg width="0" height="0" xmlns="http://www.w3.org/2000/svg">
    <symbol id="play" viewBox="0 0 32 22">
        <path d="M20.967 0.490143H11.0345C8.23925 0.493515 5.55974 1.60185 3.5831 3.57207C1.60647 5.54229 0.494397 8.21355 0.490753 11C0.494397 13.7863 1.60644 16.4575 3.5831 18.4276C5.55976 20.3976 8.23934 21.5057 11.0345 21.5089H20.967C23.7619 21.5057 26.4412 20.3975 28.4174 18.4274C30.3936 16.4572 31.505 13.7861 31.5079 11C31.5047 8.2139 30.3935 5.54278 28.4174 3.57254C26.4413 1.60229 23.7619 0.493775 20.967 0.490143ZM12.7065 16.9357V4.70447L21.8587 10.8186L12.7065 16.9357Z" stroke-linecap="round" stroke-linejoin="round"/>
    </symbol>
    <symbol id="str" viewBox="0 0 13 22">
        <path d="M6.73471 21.4532L6.73471 0"/>
        <path d="M12.6466 15.1669L6.50054 21.2936L0.354254 15.1669"/>
    </symbol>
    <symbol id="str-double" viewBox="0 0 26 42">
        <path d="M14.6262 14.3692L0.721649 28.0063L14.6262 41.6446"/>
        <path d="M11.3728 27.6294L25.2773 13.9913L11.3728 0.352051"/>
    </symbol>
    <symbol id="a" viewBox="0 0 27 23">
        <path d="M-4748.945,244.971h-13.382l-6.692-11.589,6.692-11.59h13.382l6.691,11.59Zm-12.22-2.015h11.056l5.528-9.574-5.528-9.575h-11.055l-5.528,9.575Z" transform="translate(4769.02 -221.792)"/><rect width="2.015" height="9.984" transform="translate(12.375 4.328)"/><rect width="2.015" height="2.009" transform="translate(12.375 16.842)"/>
    </symbol>
    <symbol id="b" viewBox="0 0 27 23">
        <path d="M-4792.44,240.532h-13.383l-6.691-11.589,6.691-11.59h13.383l6.691,11.59Zm-12.22-2.015h11.056l5.527-9.574-5.528-9.575h-11.056l-5.527,9.575Z" transform="translate(4812.515 -217.353)"/><path d="M-4796.033,221.894h-7.89v1.831h7.015l1.43,1.345v1.654l-1.43,1.345h-2.811l-.845.739v2.545h2.013V229.9h2.519l2.566-2.376v-3.253Z" transform="translate(4812.579 -217.318)"/><rect width="2.285" height="2.376" transform="translate(11.835 15.498)"/>
    </symbol>
    <symbol id="logo" viewBox="0 0 43 43">
        <path d="M5510.057-965.387a21.358,21.358,0,0,0-21.333,21.334,21.357,21.357,0,0,0,21.333,21.334,21.357,21.357,0,0,0,21.333-21.334A21.358,21.358,0,0,0,5510.057-965.387Zm-11.173,34.815a17.466,17.466,0,0,1-6.337-13.481,17.493,17.493,0,0,1,15.478-17.391l.5-.058-1.014,1.76.479,1.8-4.312,1.155-2.1,3.641,2.395,4.15v2.033l1.816,1.047-1.914,7.143-1.448,1.448-1.3,4.836-2.067,2.067Zm11.173,4.029a17.5,17.5,0,0,1-8.757-2.344l-.219-.127,1.85-3.186,2.713-2.714.588-2.188,4.646-4.645,1.5,2.6-1.178,4.4-.565.566-.9,3.345.4,1.485h.45l1-1,.9-3.344,1.932-1.931,2.181,3.777h1.371l2.942-2.943-.517-1.934-3.335,3.335-1.785-3.093,1.211-1.209v-6.089l-.754-2.81,1.454-1.453v-5.191l-1.187-2.056-3.937-2.273.378-1.412-.671-2.5.37.044a17.5,17.5,0,0,1,15.434,17.387A17.529,17.529,0,0,1,5510.057-926.543Z" transform="translate(-5488.723 965.387)"/>
    </symbol>
</svg>