<svg width="0" height="0" xmlns="http://www.w3.org/2000/svg">
    <symbol id="f" viewBox="0 0 47 17">
        <path d="M-2955.365,1769.361l-3.59,3.335v7.093h-3.522v-10.212h-3.458l-10.734,10.965v2.794h10.427v3.259h3.765v-3.259h3.522v.14l3.59,3.336h6.448l3.591-3.336V1772.7l-3.591-3.335Zm-10.878,10.427h-4.664l4.664-4.795Zm17.042,2.252-1.3,1.224h-3.279l-1.3-1.224v-7.907l1.3-1.224h3.279l1.3,1.224Z" transform="translate(2976.67 -1769.361)"/>
        <path d="M-2929.3,1776.669v-4.345h-3.548v4.345h-4.345v3.548h4.345v4.344h3.548v-4.344h4.345v-3.548Z" transform="translate(2971.917 -1769.718)"/>
    </symbol>
    <symbol id="fa" viewBox="0 0 68 17">
        <path d="M-2858.3,1769.606h-3.458l-10.734,10.965v2.794h10.428v3.259h3.764v-3.259h4.7v-3.547h-4.7Zm-8.428,10.212,4.664-4.795v4.795Z" transform="translate(2872.487 -1769.391)"/>
        <path d="M-2848.757,1769.361l-3.591,3.335v10.78l3.591,3.336h6.447l3.59-3.336V1772.7l-3.59-3.335Zm6.165,4.772v7.907l-1.3,1.224h-3.279l-1.3-1.224v-7.907l1.3-1.224h3.279Z" transform="translate(2870.062 -1769.361)"/>
        <path d="M-2825.119,1772.324h-3.548v4.345h-4.345v3.548h4.345v4.344h3.548v-4.344h4.344v-3.548h-4.344Z" transform="translate(2867.734 -1769.718)"/>
        <g transform="translate(49.07 0.215)">
            <path d="M-2808.8,1769.606l-7.9,17.018h4.283l1.956-4.346h6.65l1.955,4.346h4.284l-7.9-17.018Zm-.072,9.124,1.736-3.772,1.736,3.772Z" transform="translate(2816.699 -1769.606)"/>
        </g>
    </symbol>
    <symbol id="fb" viewBox="0 0 66 17">
        <path d="M-2758.044,1769.361l-3.591,3.335v7.093h-3.523v-10.212h-3.458l-10.736,10.965v2.794h10.427v3.259h3.766v-3.259h3.523v.14l3.591,3.336h6.447l3.591-3.336V1772.7l-3.591-3.335Zm-10.879,10.427h-4.662l4.662-4.795Zm17.043,2.252-1.3,1.224h-3.28l-1.3-1.224v-7.907l1.3-1.224h3.28l1.3,1.224Z" transform="translate(2779.351 -1769.361)"/>
        <path d="M-2731.982,1772.324h-3.548v4.345h-4.344v3.548h4.344v4.344h3.548v-4.344h4.344v-3.548h-4.344Z" transform="translate(2774.596 -1769.718)"/>
        <path d="M-2709.238,1775.472h-7.366v-2.318h9.547v-3.548h-13.423v17.018h11.242l3.376-3.117v-4.918Zm-.5,6.594-1.081,1.01h-5.787v-4.056h5.787l1.081,1.01Z" transform="translate(2772.261 -1769.391)"/>
    </symbol>
    <symbol id="lm" viewBox="0 0 39 17">
        <path d="M-2664.873,1782.044l-1.328,1.25h-1.849v3.548h3.432l3.563-3.31.748-10.377h4.52v13.469h3.873v-17.018h-12.054Z" transform="translate(2668.049 -1769.606)"/>
        <path d="M-2629.505,1769.606l-5.938,8.454-5.938-8.454h-3.439v17.018h3.874v-9.775l4.273,6.081h2.461l4.273-6.081v9.775h3.874v-17.018Z" transform="translate(2665.252 -1769.606)"/>
    </symbol>
    <symbol id="ln" viewBox="0 0 35 17">
        <path d="M-2591.742,1782.044l-1.327,1.25h-1.85v3.548h3.433l3.563-3.31.747-10.377h4.521v13.469h3.873v-17.018h-12.054Z" transform="translate(2594.919 -1769.606)"/>
        <path d="M-2561.057,1769.606v6.736h-6.759v-6.736h-3.874v17.018h3.874v-6.734h6.759v6.734h3.874v-17.018Z" transform="translate(2592.122 -1769.606)"/>
    </symbol>
    <symbol id="kch" viewBox="0 0 31 17">
        <g transform="translate(4070.025 -218.314)">
            <path d="M-4054.06,218.314h-4.693l-4.921,6.781h-2.451v-6.781h-3.9v17.132h3.9v-6.779h2.682l5.139,6.779h4.7l-6.715-8.79Z" transform="translate(0 0)"/>
            <path d="M-4049.895,218.314v8.093h-6.276l-.978-.908v-7.185h-3.9v8.639l3.289,3.026h7.865v5.467h3.9V218.314Z" transform="translate(7.382 0)"/>
        </g>
    </symbol>
</svg>