<svg width="0" height="0" xmlns="http://www.w3.org/2000/svg">
    <symbol id="a" viewBox="0 0 32 26">
        <g transform="translate(4951.834 144.518)">
            <path d="M-4930.362-122.218l-3.713,5.524-3.7-5.51-1.282,2.927-.24.549,2.567,3.82h5.315l2.565-3.817-.243-.563Z" transform="translate(-2.004 -3.566)"/>
            <path d="M-4945.776-134.371l-3.4-5.062,4.937,1.6,1.3-2.94-5.255-1.7-3.642,4.832,4.528,6.737Z" transform="translate(0 -0.326)"/>
            <path d="M-4918.661-139.434l-3.4,5.062,1.533,3.46,4.527-6.736-3.642-4.832-5.255,1.7,1.3,2.94Z" transform="translate(-4.307 -0.326)"/>
            <path d="M-4927.248-132.28l-2.269-5.125-1.3-2.94-1.848-4.173h-5.319l-1.848,4.173-1.3,2.94-2.268,5.125-1.533,3.46-2.21,4.989h4.582l.387-.885,1.521-3.477.483-1.106.539-1.231.538-1.232,1.909-4.363,1.29-2.948.573-1.308.574,1.307,1.3,2.945,3,6.829h0l.039.092.021.047.017.039h0l.393.894,1.527,3.469.4.92h4.537l-2.21-4.989Z" transform="translate(-0.748)"/>
            <path d="M-4935.247-124.979l1.229,3.454,1.228-3.454,3.454-1.229-3.453-1.227-1.228-3.454-1.229,3.454-3.452,1.229Z" transform="translate(-2.1 -2.179)"/></g>
    </symbol>
    <symbol id="b" viewBox="0 0 27 27">
        <g transform="translate(5181.034 166.45)">
            <path d="M-5168.9-155.955l-3.257,3.258-.771-.771h-3.824l2.683,2.683h3.825l3-3-.387-.511Z" transform="translate(4.625 11.336)"/>
            <path d="M-5172.929-163.767l.771-.771,2.988,2.987,1.019-1.375.608-.821-2.7-2.7h-3.825l-2.683,2.683h3.824Z" transform="translate(4.625 0)"/>
            <path d="M-5170.517-160.368l3.211,3.211-2.962,2.962,1.657,2.168,3.218-3.218v-3.824l-3.484-3.484Z" transform="translate(11.36 4.208)"/>
            <path d="M-5181.033-154.333l5.24,5.24v-3.825l-3.328-3.328,3.328-3.328V-163.4l-5.24,5.24Z" transform="translate(0 3.296)"/>
            <path d="M-5164.192-150.977l-3.586-4.695,3.336-4.447,1.639-2.186,1.392-1.855h-4.244l-1.2,1.624-4.163,5.616h-3v-7.239h-3.5v17.474h3.5v-7.239h3.371l4.057,5.348,1.436,1.892h4.242l-1.622-2.123Z" transform="translate(3.801 2.473)"/>
        </g>
    </symbol>
    <symbol id="c" viewBox="0 0 27 21">
        <g transform="translate(5037.74 165.975)">
            <path d="M-5035.541-162.024h5.024l1.209-2.729h-6.233l-2.2,4.344,4.061,5.528,1.272-2.876Z"/>
            <path d="M-5021.477-150.851l-2.929,3.988-2.929-3.989-.767,1.772-.489,1.13,1.985,2.7h4.4l1.984-2.7-.489-1.13Z"/>
            <path d="M-5019.5-164.753l1.208,2.729h5.024l-3.134,4.268,1.274,2.876,4.06-5.528-2.2-4.344Z"/>
            <path d="M-5017.837-155.806l-2.754-6.218-1.208-2.729-.542-1.222h-4.13l-.541,1.222-1.208,2.729-2.754,6.218-1.274,2.875-1.336,3.018h3.556l1.253-2.9.583-1.346h7.572l.582,1.347,1.254,2.9h3.556l-1.337-3.017Zm-9.093-1.1,2.206-5.113.318-.739.319.739,2.205,5.113Z"/>
        </g>
    </symbol>
</svg>