<svg xmlns="http://www.w3.org/2000/svg" width="43.63" height="68.42" viewBox="0 0 43.63 68.42"><g transform="translate(-1093.716 -290.068)"><path d="M1136.356,341.713l-5.873,5.873-3.3-5.709,2.447-2.447v-4.087l.858-.858v-6.136l-1.867-6.968,2.81-2.81V307.977l-3.021-5.232-6.863-3.962.535-2-1.188-4.434-2.283-2.283h-5.193l-2.378,4.119,1.006,3.754-7.708,2.065-4.786,8.288,4.806,8.325v4.162l3.507,2.025-3.647,13.61-2.859,2.859-2.558,9.546-4.84,4.84.459,1.714-.711,2.653.8.459,2.6-1.5,2.394-.642,3.661-6.342,5.458-5.458,1.216-4.539,1.5-2.589,1.712-.459,5.547-5.548,3.3,5.709-1.729,1.729-1.479,5.518-1.115,1.114-1.839,6.863.865,1.5v1.928h1.516l.8-1.379,1.441-.832,1.772-6.615,3.45-3.45,4.439,7.689h1.562l5.775-5.775Zm-24.8-19.329-2.776-1.6v-2.615l3.081,3.081Zm-1.768-19.264-2.705-1.562,5.538-1.484.572,2.134Zm4.919-10.843h2.993l1.218,1.218.652,2.431-2.671.716-.8-2.969Zm4.7,5.979-.85,3.172-1.2.695v-3.316Zm-2.107,31.326-1.176-.315,1.741-3.017,2.182.585Zm3.069-26.381.592-2.209,5.838,3.37,2.429,4.207v4.418l-4.046-7.008Zm4.408,22.032,2.046-2.046,1.461,5.452v2.669Z" fill="#2a313c"/></g></svg>