<svg xmlns="http://www.w3.org/2000/svg" width="504" height="28.673" viewBox="0 0 504 28.673">
	<path d="M137.48,434.064h5.352v8.656h10.576v-8.656h5.352V456.1h-5.352v-8.718H142.832V456.1H137.48Z" transform="translate(-137.48 -427.735)" fill="#2a313c"/>
	<path d="M167.151,451.5V438.66l4.6-4.6h13.411l4.594,4.6V451.5l-4.594,4.6H171.746Zm15.361.031,1.889-1.888v-9.128l-1.889-1.889h-8.12l-1.888,1.889v9.128l1.888,1.888Z" transform="translate(-140.773 -427.735)" fill="#2a313c"/>
	<path d="M211.791,449.9H201.4l-4.154-4.155V434.064H202.6v9.758l1.415,1.417h7.776V434.064h5.351V456.1h-5.351Z" transform="translate(-144.114 -427.735)" fill="#2a313c"/>
	<path d="M226.069,434.064h5.352v8.656H242v-8.656h5.351V456.1H242v-8.718H231.421V456.1h-5.352Z" transform="translate(-147.313 -427.735)" fill="#2a313c"/>
	<path d="M270.08,434.064l8.657,20.46V456.1h-5.194l-1.762-4.47H260.731l-1.795,4.47H253.9v-1.573l8.688-20.46Zm-7.523,13h7.4l-3.3-8.341h-.725Z" transform="translate(-150.403 -427.735)" fill="#2a313c"/>
	<path d="M284.847,454.524l3.935-6.233-3.432-3.4v-6.736l4.091-4.092h16.59V456.1H300.68v-6.925h-6.328L290.04,456.1h-5.193ZM300.68,444.8v-6.359h-8.31l-1.669,1.638v3.085l1.669,1.637Z" transform="translate(-153.838 -427.735)" fill="#2a313c"/>
	<path d="M324.857,454.524l7.492-9.853-6.861-9.034v-1.574h5.288l4.974,6.924h.535l5-6.924h5.1v1.574l-6.861,9.034,7.492,9.853V456.1H341.76l-5.634-7.806h-.535l-5.6,7.806h-5.131Z" transform="translate(-158.279 -427.735)" fill="#2a313c"/>
	<path d="M352.547,451.5V438.66l4.6-4.6h13.409l4.6,4.6V451.5l-4.6,4.6H357.143Zm15.361.031,1.889-1.888v-9.128l-1.889-1.889h-8.121l-1.889,1.889v9.128l1.889,1.888Z" transform="translate(-161.352 -427.735)" fill="#2a313c"/>
	<path d="M383.706,434.064h5.351v8.562h3.9l6.138-8.562h5.29V435.7l-6.9,9.129,7.524,9.631V456.1h-5.476l-6.484-8.814h-4V456.1h-5.351Z" transform="translate(-164.811 -427.735)" fill="#2a313c"/>
	<path d="M411.642,434.064h5.351v8.562h3.9l6.139-8.562h5.288V435.7l-6.893,9.129,7.523,9.631V456.1h-5.477l-6.484-8.814h-4V456.1h-5.351Z" transform="translate(-167.912 -427.735)" fill="#2a313c"/>
	<path d="M439.578,434.064h19.39v4.564H444.929v4.249h10.577V447.1H444.929v4.438h14.355V456.1H439.578Z" transform="translate(-171.013 -427.735)" fill="#2a313c"/>
	<path d="M497.2,434.064h5.352v8.656h10.576v-8.656h5.351V456.1h-5.351v-8.718H502.555V456.1H497.2Z" transform="translate(-177.409 -427.735)" fill="#2a313c"/>
	<path d="M541.214,434.064l8.657,20.46V456.1h-5.194l-1.762-4.47H531.865l-1.795,4.47h-5.036v-1.573l8.688-20.46Zm-7.523,13h7.4l-3.3-8.341h-.724Z" transform="translate(-180.498 -427.735)" fill="#2a313c"/>
	<path d="M555.981,454.524l3.935-6.233-3.431-3.4v-6.736l4.09-4.092h16.59V456.1h-5.351v-6.925h-6.328l-4.312,6.925h-5.193Zm15.833-9.727v-6.359H563.5l-1.669,1.638v3.085L563.5,444.8Z" transform="translate(-183.933 -427.735)" fill="#2a313c"/>
	<path d="M658.874,434.064h17.88v4.564H664.225V456.1h-5.351Z" transform="translate(-195.355 -427.735)" fill="#2a313c"/>
	<path d="M692.652,434.064l8.656,20.46V456.1h-5.193l-1.763-4.47H683.3l-1.795,4.47h-5.036v-1.573l8.688-20.46Zm-7.524,13h7.4l-3.3-8.341H688.5Z" transform="translate(-197.308 -427.735)" fill="#2a313c"/>
	<path d="M619.063,434.062V456.1H613.7v-17.47h-7.338l-1.988,14.229-3.565,3.55h-5.686V451.34h3.3l.9-.9,2.313-16.38Z" transform="translate(-188.278 -427.735)" fill="#2a313c"/>
	<path d="M475.058,426.945v4.218h6.047l2.946-4.218Z" transform="translate(-174.951 -426.945)" fill="#2a313c"/>
	<path d="M482.443,434.062l-9.882,14.112h-.385V434.062h-5.352V456.1h5.661l9.882-14.112h.385V456.1H488.1V434.062Z" transform="translate(-174.037 -427.735)" fill="#2a313c"/>
	<path d="M644.113,434.063l-9.882,14.112h-.385V434.063h-5.352V456.1h5.661l9.882-14.112h.385V456.1h5.352V434.063Z" transform="translate(-191.983 -427.735)" fill="#2a313c"/>
</svg>