<svg xmlns="http://www.w3.org/2000/svg" width="28" height="17" viewBox="0 0 28 17">
    <path d="M-2994.651-96.152v-2.18c0-.327.008-.662-.01-.991a1.974,1.974,0,0,0-.108-.519.592.592,0,0,0-.484-.4,2.262,2.262,0,0,0-.383-.031h-4.643a1.725,1.725,0,0,0-.238.011.708.708,0,0,0-.652.761.707.707,0,0,0,.125.351,4.874,4.874,0,0,0,.307.412,3.305,3.305,0,0,1,.665,1.314,4.271,4.271,0,0,1,.125,1v4.312c0,.142,0,.282-.009.423a3.109,3.109,0,0,1-.083.522.4.4,0,0,1-.461.328h0a.855.855,0,0,1-.365-.109,2.387,2.387,0,0,1-.413-.3,6.908,6.908,0,0,1-.989-1.13,22.129,22.129,0,0,1-1.953-3.316,30.916,30.916,0,0,1-1.394-3.352,4.487,4.487,0,0,0-.307-.685.99.99,0,0,0-.8-.523,1.931,1.931,0,0,0-.237-.017h-3.193a1.764,1.764,0,0,0-.489.073.661.661,0,0,0-.5.614,1.638,1.638,0,0,0,.013.456c.065.341.133.685.228,1.019a21.292,21.292,0,0,0,1.254,3.27,34.7,34.7,0,0,0,2.472,4.373,25.329,25.329,0,0,0,1.832,2.521,13.219,13.219,0,0,0,4.647,3.569,9.231,9.231,0,0,0,4.682.823,2.512,2.512,0,0,0,.872-.211.767.767,0,0,0,.446-.569,2.461,2.461,0,0,0,.035-.436v-2.678a3.672,3.672,0,0,1,.042-.567.544.544,0,0,1,.564-.519,1.5,1.5,0,0,1,.807.125,5.224,5.224,0,0,1,.69.377,11.8,11.8,0,0,1,1.938,1.65c.533.545,1.04,1.121,1.564,1.678.244.258.492.512.753.75a1.658,1.658,0,0,0,1.192.436c.49-.008.981,0,1.469,0,.507,0,1.015.008,1.526,0a2.391,2.391,0,0,0,.6-.078.763.763,0,0,0,.579-.88,2.343,2.343,0,0,0-.122-.5,4.835,4.835,0,0,0-.654-1.146,28.338,28.338,0,0,0-2.653-3.135c-.386-.4-.79-.785-1.173-1.188a3.11,3.11,0,0,1-.381-.513.688.688,0,0,1-.022-.719,4.436,4.436,0,0,1,.281-.47c1.017-1.469,2.011-2.952,2.908-4.5a13.277,13.277,0,0,0,1.022-2.031,4.007,4.007,0,0,0,.209-.8.624.624,0,0,0-.477-.739l-.043-.008a2.469,2.469,0,0,0-.545-.057c-.981-.007-1.962,0-2.936,0a2.653,2.653,0,0,0-.383.025,1.249,1.249,0,0,0-.944.655,2.322,2.322,0,0,0-.1.217q-.583,1.347-1.29,2.635a21.989,21.989,0,0,1-1.993,3.053,6.964,6.964,0,0,1-1.288,1.3,1.181,1.181,0,0,1-.545.241.377.377,0,0,1-.41-.182,1.293,1.293,0,0,1-.143-.371,2.1,2.1,0,0,1-.034-.42Q-2994.654-94.64-2994.651-96.152Z" transform="translate(3011.147 100.277)"/><path d="M-2994.651-96.152v3.029a1.922,1.922,0,0,0,.034.42,1.248,1.248,0,0,0,.142.371.378.378,0,0,0,.41.182,1.2,1.2,0,0,0,.545-.241,6.966,6.966,0,0,0,1.287-1.3,21.984,21.984,0,0,0,1.993-3.052q.709-1.284,1.291-2.635c.031-.072.064-.146.1-.218a1.249,1.249,0,0,1,.945-.654,2.646,2.646,0,0,1,.384-.025h2.935a2.478,2.478,0,0,1,.545.057.623.623,0,0,1,.527.7l-.008.041a3.935,3.935,0,0,1-.208.8,13.293,13.293,0,0,1-1.021,2.031c-.9,1.546-1.892,3.028-2.908,4.5a4.369,4.369,0,0,0-.281.471.689.689,0,0,0,.022.719,3.115,3.115,0,0,0,.381.513c.384.4.787.787,1.172,1.188a28.475,28.475,0,0,1,2.654,3.135,4.869,4.869,0,0,1,.654,1.146,2.268,2.268,0,0,1,.122.5.764.764,0,0,1-.579.88,2.45,2.45,0,0,1-.6.078c-.509.011-1.016,0-1.526,0-.49,0-.981-.007-1.469,0a1.657,1.657,0,0,1-1.191-.436c-.261-.238-.51-.493-.753-.751-.524-.556-1.031-1.128-1.564-1.677a11.918,11.918,0,0,0-1.938-1.651,5.561,5.561,0,0,0-.69-.377,1.52,1.52,0,0,0-.806-.125.545.545,0,0,0-.565.519,3.681,3.681,0,0,0-.042.567v2.678a2.687,2.687,0,0,1-.035.436.762.762,0,0,1-.446.569,2.463,2.463,0,0,1-.872.211,9.22,9.22,0,0,1-4.682-.822,13.23,13.23,0,0,1-4.647-3.569,25.422,25.422,0,0,1-1.833-2.521,34.768,34.768,0,0,1-2.472-4.373,21.292,21.292,0,0,1-1.253-3.27c-.1-.335-.164-.678-.228-1.019a1.585,1.585,0,0,1-.013-.456.661.661,0,0,1,.5-.613,1.762,1.762,0,0,1,.489-.073c1.064-.007,2.129,0,3.193,0a1.943,1.943,0,0,1,.237.017.991.991,0,0,1,.8.523,4.656,4.656,0,0,1,.306.685,30.584,30.584,0,0,0,1.394,3.352,22.138,22.138,0,0,0,1.952,3.316,6.888,6.888,0,0,0,.989,1.13,2.426,2.426,0,0,0,.413.3.882.882,0,0,0,.364.109.4.4,0,0,0,.463-.324v0a3.277,3.277,0,0,0,.083-.522c.013-.14.008-.281.008-.423v-4.312a4.3,4.3,0,0,0-.125-1,3.292,3.292,0,0,0-.665-1.314,4.886,4.886,0,0,1-.306-.412.707.707,0,0,1,.176-.987.7.7,0,0,1,.351-.125c.079-.008.158-.011.238-.011h4.643a2.162,2.162,0,0,1,.384.031.591.591,0,0,1,.484.4,2.037,2.037,0,0,1,.109.519c.016.327.009.661.009.991Q-2994.65-97.243-2994.651-96.152Z" transform="translate(3011.147 100.277)" fill="#FFFFFF"/>
</svg>