<svg xmlns="http://www.w3.org/2000/svg" width="15" height="27" viewBox="0 0 15 27">
       <path d="M-2955.446-91.371a6.661,6.661,0,0,0,6.609-6.7,6.662,6.662,0,0,0-6.609-6.7,6.664,6.664,0,0,0-6.612,6.7A6.662,6.662,0,0,0-2955.446-91.371Zm0-9.472a2.756,2.756,0,0,1,2.736,2.772,2.758,2.758,0,0,1-2.736,2.774,2.761,2.761,0,0,1-2.739-2.774A2.759,2.759,0,0,1-2955.446-100.842Z" transform="translate(2962.866 104.77)" fill="#FFFFFF"/>
	   <path d="M-2952.706-86.484a12.33,12.33,0,0,0,3.837-1.612,1.979,1.979,0,0,0,.607-2.707,1.92,1.92,0,0,0-2.639-.637l-.031.02a8.3,8.3,0,0,1-8.9,0,1.918,1.918,0,0,0-2.648.584l-.021.033a1.98,1.98,0,0,0,.605,2.707,12.347,12.347,0,0,0,3.839,1.612l-3.7,3.747a1.981,1.981,0,0,0,0,2.774,1.921,1.921,0,0,0,1.369.573,1.922,1.922,0,0,0,1.371-.573l3.63-3.681,3.634,3.681a1.916,1.916,0,0,0,2.711.027l.027-.027a1.98,1.98,0,0,0,0-2.774Z" transform="translate(2962.799 105.945)" fill="#FFFFFF"/>
</svg>