<svg xmlns="http://www.w3.org/2000/svg" width="24" height="24" viewBox="0 0 24 24">
        <path d="M-2912.577-103.7a11.9,11.9,0,0,0-11.9,11.9,11.837,11.837,0,0,0,1.666,6.072l-2.083,6.25,6.783-1.784a11.851,11.851,0,0,0,5.538,1.367,11.9,11.9,0,0,0,11.9-11.9A11.9,11.9,0,0,0-2912.577-103.7Zm6.712,15.749c-.26.9-.591,2.048-.759,2.628-.348-.031-.692-.072-1.032-.128a13.689,13.689,0,0,1-11.179-10.816,13.237,13.237,0,0,1-.215-1.574l2.63-.837,1.042-.33,1.933,3.224-1.774,1.854a11.046,11.046,0,0,0,4.613,4.7l1.837-1.854,3.276,1.844Z" transform="translate(2924.898 103.699)" fill="#FFFFFF"/>
</svg>