<svg width="0" height="0" xmlns="http://www.w3.org/2000/svg">
    <symbol id="loop" viewBox="0 0 18.756 20.116">
        <g transform="translate(1 1)">
            <ellipse cx="6.73" cy="6.73" rx="6.73" ry="6.73" transform="translate(0 0)" stroke-miterlimit="10" stroke-width="2"/>
            <line x2="3.588" y2="3.588" transform="translate(13.461 14.821)" stroke-miterlimit="10" stroke-width="2"/>
        </g>
    </symbol>
    <symbol id="broadcast" viewBox="0 0 26 26">
        <circle cx="13" cy="13" r="12" fill="none" stroke="#fff" stroke-width="2"/>
        <circle cx="5" cy="5" r="5" transform="translate(8 8)" fill="#fff"/>
    </symbol>
    <symbol id="broadcast-big" viewBox="0 0 28 28">
        <circle cx="14" cy="14" r="12.5" fill="none" stroke-width="3"/>
        <circle cx="6" cy="6" r="6" transform="translate(8 8)" stroke-width="1"/>
    </symbol>
    <symbol id="heart" viewBox="0 0 13 12">
        <path d="M-1781.673,784.41v-.027a3.486,3.486,0,0,0-3.485-3.486,3.507,3.507,0,0,0-2.912,1.548,3.5,3.5,0,0,0-2.911-1.548,3.486,3.486,0,0,0-3.485,3.486v.027h-.014c0,2.708,2.638,5.458,4.861,7.345.507.433,1.159.916,1.548,1.193,1.433-1.019,6.41-4.818,6.41-8.538Zm-6.4-1.943s0,.007,0,.011a.015.015,0,0,1,0-.011s0-.006,0-.01S-1788.066,782.464-1788.069,782.466Zm0,3.832a.015.015,0,0,1,0-.011.01.01,0,0,1,0,.011s0,.006,0,.01S-1788.071,786.3-1788.069,786.3Z" transform="translate(1794.479 -780.897)"/>
    </symbol>
    <symbol id="str-next" viewBox="0 0 23 14">
        <g transform="translate(0 0.707)">
            <line x1="21.5" transform="translate(0 5.906)" stroke-width="2"/>
            <path d="M2622.2,3157.8l6.14,6.14-6.14,6.14" transform="translate(-2607 -3157.8)" stroke-width="2"/>
        </g>
    </symbol>
    <symbol id="rss" viewBox="0 0 14 14">
        <g transform="translate(3036.416 -1239.273)">
            <path d="M-3026.8,1253.916h-2.525a7.1,7.1,0,0,0-7.09-7.089V1244.3A9.626,9.626,0,0,1-3026.8,1253.916Z"/>
            <path d="M-3021.773,1253.916h-2.525a12.131,12.131,0,0,0-12.118-12.118v-2.525A14.66,14.66,0,0,1-3021.773,1253.916Z"/>
            <path d="M-3034.343,1249.769a2.074,2.074,0,0,1,2.074,2.074,2.073,2.073,0,0,1-2.074,2.073,2.073,2.073,0,0,1-2.073-2.073A2.074,2.074,0,0,1-3034.343,1249.769Z" fill-rule="evenodd"/>
        </g>
    </symbol>
    <symbol id="more-star" viewBox="0 0 26 26">
        <path d="M-3323.143,955.094l2.275,4.6,4.268-2.843-.328,5.118,5.118-.328-2.843,4.268,4.6,2.275-4.6,2.274,2.843,4.268-5.118-.328.328,5.118-4.268-2.843-2.275,4.6-2.275-4.6-4.268,2.843.329-5.118-5.118.328,2.844-4.268-4.6-2.274,4.6-2.275-2.844-4.268,5.118.328-.329-5.118,4.268,2.843Z" transform="translate(3336.228 -955.094)"/>
    </symbol>
    <symbol id="photo" viewBox="0 0 18 14">
        <path d="M-4475.991,853.421h-.027a2.17,2.17,0,0,1-1.922-1.163l-.174-.331a2.163,2.163,0,0,0-1.92-1.163h-5.579a2.165,2.165,0,0,0-1.951,1.221l-.1.214a2.169,2.169,0,0,1-1.951,1.221,2.173,2.173,0,0,0-2.171,2.162l-.03,7a2.171,2.171,0,0,0,2.17,2.181h13.627a2.17,2.17,0,0,0,2.169-2.162l.033-7A2.173,2.173,0,0,0-4475.991,853.421Zm-6.83,8.158a3.143,3.143,0,0,1-3.142-3.143,3.142,3.142,0,0,1,3.142-3.143,3.14,3.14,0,0,1,3.138,3.143A3.14,3.14,0,0,1-4482.821,861.58Z" transform="translate(4491.822 -850.765)"/>
    </symbol>
    <symbol id="video" viewBox="0 0 39 32">
        <path d="M34.678,31.588H4a4,4,0,0,1-4-4V4A4,4,0,0,1,4,0H34.678a4,4,0,0,1,4,4V27.589A4,4,0,0,1,34.678,31.588ZM13.57,6.945V24.663L28.041,15.8Z"/>
    </symbol>
    <symbol id="star" viewBox="0 0 26 25">
        <path d="M-2958.271,1191.876l3.892,8.23,9.03,1.158-6.625,6.245,1.689,8.946-7.987-4.371-7.987,4.371,1.689-8.946-6.625-6.245,9.03-1.158Z" transform="translate(2971.193 -1191.876)"/>
    </symbol>
    <symbol id="two-three" viewBox="0 0 27 19">
        <g transform="translate(3336.655 -1024.103)">
            <path d="M-3311.57,1024.1h-22.989a1.984,1.984,0,0,0-2.1,1.844v15.576a1.984,1.984,0,0,0,2.1,1.844h22.989a1.983,1.983,0,0,0,2.1-1.844v-15.576A1.982,1.982,0,0,0-3311.57,1024.1Zm-14.3,14.178h-7.136v-1.675l3.517-3.08c.264-.238.487-.456.673-.656a2.553,2.553,0,0,0,.425-.6,1.513,1.513,0,0,0,.145-.661,1.3,1.3,0,0,0-.173-.685,1.18,1.18,0,0,0-.481-.44,1.524,1.524,0,0,0-.7-.155,1.465,1.465,0,0,0-.7.163,1.134,1.134,0,0,0-.468.469,1.523,1.523,0,0,0-.168.743h-2.208a3.172,3.172,0,0,1,.443-1.7,2.935,2.935,0,0,1,1.244-1.1,4.249,4.249,0,0,1,1.867-.388,4.6,4.6,0,0,1,1.906.366,2.94,2.94,0,0,1,1.254,1.025,2.651,2.651,0,0,1,.446,1.523,2.856,2.856,0,0,1-.222,1.092,4.416,4.416,0,0,1-.793,1.2,17.061,17.061,0,0,1-1.621,1.566l-1.153,1.064v.062h3.907Zm3.683-1.691a1.3,1.3,0,0,1-.447.443,1.141,1.141,0,0,1-.6.164,1.184,1.184,0,0,1-.867-.357,1.159,1.159,0,0,1-.357-.866,1.137,1.137,0,0,1,.357-.854,1.184,1.184,0,0,1,.867-.357,1.191,1.191,0,0,1,.851.357,1.158,1.158,0,0,1,.373.854A1.173,1.173,0,0,1-3322.189,1036.59Zm0-4.679a1.316,1.316,0,0,1-.447.443,1.153,1.153,0,0,1-.6.164,1.186,1.186,0,0,1-.867-.358,1.156,1.156,0,0,1-.357-.866,1.138,1.138,0,0,1,.357-.854,1.189,1.189,0,0,1,.867-.355,1.2,1.2,0,0,1,.851.355,1.159,1.159,0,0,1,.373.854A1.173,1.173,0,0,1-3322.189,1031.911Zm8.719,5.115a3.282,3.282,0,0,1-1.366,1.017,5.1,5.1,0,0,1-2,.369,4.755,4.755,0,0,1-1.952-.378,3.257,3.257,0,0,1-1.341-1.048,2.594,2.594,0,0,1-.5-1.539h2.344a.955.955,0,0,0,.2.558,1.234,1.234,0,0,0,.513.38,1.875,1.875,0,0,0,.738.136,1.714,1.714,0,0,0,.732-.148,1.208,1.208,0,0,0,.5-.409,1.021,1.021,0,0,0,.174-.6.96.96,0,0,0-.192-.6,1.268,1.268,0,0,0-.559-.409,2.227,2.227,0,0,0-.849-.147h-.937v-1.656h.938a1.886,1.886,0,0,0,.756-.141,1.188,1.188,0,0,0,.51-.4.962.962,0,0,0,.179-.591,1,1,0,0,0-.153-.571,1.05,1.05,0,0,0-.437-.384,1.45,1.45,0,0,0-.647-.137,1.727,1.727,0,0,0-.7.137,1.189,1.189,0,0,0-.5.385.989.989,0,0,0-.193.58h-2.228a2.583,2.583,0,0,1,.481-1.519,3.163,3.163,0,0,1,1.283-1.029,4.4,4.4,0,0,1,1.852-.372,4.315,4.315,0,0,1,1.822.362,3,3,0,0,1,1.225.986,2.4,2.4,0,0,1,.438,1.41,1.8,1.8,0,0,1-.529,1.343,2.386,2.386,0,0,1-1.372.649v.075a2.7,2.7,0,0,1,1.691.725,2.033,2.033,0,0,1,.569,1.483A2.394,2.394,0,0,1-3313.47,1037.026Z" transform="translate(0 0)"/>
        </g>
    </symbol>
    <symbol id="match-icon1" viewBox="0 0 43 30">
        <g transform="translate(4393.293 -1072.446)">
            <path d="M-4353.615,1072.452h-36.364a3.135,3.135,0,0,0-3.314,2.915v24.638a3.135,3.135,0,0,0,3.314,2.917h36.364a3.137,3.137,0,0,0,3.314-2.917v-24.638A3.136,3.136,0,0,0-4353.615,1072.452Zm-15.624,25.915h-5.117v-11.856h5.117Zm0-16.05h-5.117V1077.2h5.117Z"/>
        </g>
    </symbol>
    <symbol id="match-icon2" viewBox="0 0 37 39">
        <g transform="translate(4320.913 -1068.275)">
            <path d="M-4293.441,1071.933l-5.3-1.357-.623-2.3h-6.926l-.623,2.3-5.3,1.357v3.094h18.763Z"/>
            <path d="M-4320.913,1077.19V1107.1h28.75l8.326-8.325V1077.19C-4283.837,1077-4320.913,1077.19-4320.913,1077.19Zm9.966,23.413-4.754-4.754,2.122-2.121,2.632,2.633,5.274-5.274,2.121,2.121Zm0-9.812-4.754-4.754,2.122-2.121,2.632,2.633,5.274-5.273,2.121,2.121Zm21.626,7.547h-12.5v-3h12.5Zm0-9.811h-12.5v-3h12.5Z"/>
        </g>
    </symbol>
    <symbol id="enter" viewBox="0 0 45 19">
        <g transform="translate(-1012 -5405.612)">
            <path d="M-2680,5393.333v10.388h42.667" transform="translate(3693 12.279)"/>
            <path d="M3485.333,445.333l7.712,7.471-7.712,7.471" transform="translate(-2437.463 4963.247)"/>
        </g>
    </symbol>
    <symbol id="cookies" viewBox="0 0 49 49">
        <g transform="translate(0 12.769) rotate(-19)">
            <path d="M19.643,38.1A19.644,19.644,0,0,1,3.631,7.077,19.7,19.7,0,0,1,12.911,0c0,.063,0,.13,0,.217a9.2,9.2,0,0,0,2.712,6.548,9.2,9.2,0,0,0,6.548,2.712,9.238,9.238,0,0,0,3.185-.563,9.233,9.233,0,0,0,2.708-1.553c0,.05,0,.1,0,.151a8.7,8.7,0,0,0,4.682,7.719,5.333,5.333,0,0,0,5.818,8.527A19.538,19.538,0,0,1,35.9,29.489,19.6,19.6,0,0,1,19.643,38.1ZM14.778,26.935a2.277,2.277,0,1,0,2.277,2.277A2.28,2.28,0,0,0,14.778,26.935Zm11.054-4.366a3.086,3.086,0,1,0,3.086,3.086A3.09,3.09,0,0,0,25.832,22.569Zm-10.681-10.6A4.338,4.338,0,1,0,19.489,16.3,4.343,4.343,0,0,0,15.152,11.965Z"/>
            <ellipse cx="2.089" cy="2.846" rx="2.089" ry="2.846" transform="translate(19.064 0.131)"/>
            <ellipse cx="2.534" cy="2.089" rx="2.534" ry="2.089" transform="translate(37.309 14.608) rotate(9)"/>
            <ellipse cx="2.846" cy="2.089" rx="2.846" ry="2.089" transform="matrix(0.974, -0.225, 0.225, 0.974, 35.358, 1.861)"/>
        </g>
    </symbol>
    <symbol id="point-big" viewBox="0 0 26 42">
        <path d="M-4558.134,848.448a12.609,12.609,0,0,1,9.26,3.821,12.671,12.671,0,0,1,3.82,9.312q0,5.494-3.246,12.663a63.752,63.752,0,0,1-6.592,11.667l-3.242,4.394q-.524-.628-1.413-1.83t-3.139-4.657a78.181,78.181,0,0,1-3.978-6.8,51.849,51.849,0,0,1-3.14-7.692,25.511,25.511,0,0,1-1.411-7.8,12.607,12.607,0,0,1,3.819-9.26A12.611,12.611,0,0,1-4558.134,848.448Zm0,20.3a6.851,6.851,0,0,0,5.023-2.093,6.85,6.85,0,0,0,2.091-5.022,6.682,6.682,0,0,0-2.091-4.971,6.944,6.944,0,0,0-5.023-2.041,6.768,6.768,0,0,0-4.971,2.041,6.77,6.77,0,0,0-2.041,4.971,6.942,6.942,0,0,0,2.041,5.022A6.679,6.679,0,0,0-4558.134,868.749Z" transform="translate(4571.214 -848.448)"/>
    </symbol>
    <symbol id="bell" viewBox="0 0 52 47">
        <path d="M-1730.41,1637.395c6.39-2.951,12.529-4.521,16.735-4.521a13.368,13.368,0,0,1,1.676.1c.267.033.52.077.763.128l-1.3-2.806-1.039-.644-4.05-2.514-1.9-1.177-1.932-4.183a14.285,14.285,0,0,0-1.893-2.966,14.589,14.589,0,0,0-12.11-5.43,14.712,14.712,0,0,0-2.215.264l-.271-.586a3.373,3.373,0,0,0-4.492-1.631,3.372,3.372,0,0,0-1.67,4.476l.271.587a14.6,14.6,0,0,0-1.637,1.514,14.589,14.589,0,0,0-3.718,12.74,14.318,14.318,0,0,0,1.03,3.366l1.932,4.182-.335,2.208-.713,4.714-.184,1.209,1.311,2.839c.126-.236.267-.475.427-.719C-1743.433,1645.064-1737.717,1640.77-1730.41,1637.395Z" transform="translate(1761.558 -1604.85)"/>
        <path d="M-1727.413,1655.159c-4.614,1.933-9.13,3.135-12.262,3.249-.162.006-.324.013-.478.013a6.212,6.212,0,0,1-1.832-.216,6.626,6.626,0,0,0-1.037,1.749,2.022,2.022,0,0,0-.1.369,7.615,7.615,0,0,0,2.967.486c3.337,0,8.233-1.182,13.512-3.382a4,4,0,0,1-.775-2.018C-1727.423,1655.324-1727.41,1655.244-1727.413,1655.159Z" transform="translate(1760.268 -1613.825)"/>
        <path d="M-1707.507,1641.466a7.281,7.281,0,0,1-1.345,1.885,20.125,20.125,0,0,1-2.013,1.889,36.941,36.941,0,0,1-3.518,2.549,4,4,0,0,0-2.471-.742c-.072,0-.143-.01-.216,0a3.986,3.986,0,0,0-.756.145l-2.106-3.081q-1.127.426-2.268.915l2.256,3.3.077.112.042.063a4.022,4.022,0,0,0-.9,2.785c0,.046-.005.091,0,.138a4.006,4.006,0,0,0,.838,2.112,3.878,3.878,0,0,0,.324.352,4.023,4.023,0,0,0,.485.422,4,4,0,0,0,2.5.773c.077,0,.152.01.231,0,.032,0,.061-.014.093-.018a4.008,4.008,0,0,0,2.878-1.756,4,4,0,0,0,.689-2.541c0-.022,0-.043,0-.065a4.115,4.115,0,0,0-.111-.576,3.9,3.9,0,0,0-.128-.434c4.231-2.754,7.114-5.588,7.772-7.717a2.03,2.03,0,0,0-.358-.17A6.64,6.64,0,0,0-1707.507,1641.466Z" transform="translate(1756.006 -1611.035)"/>
        <rect width="5.567" height="2.389" transform="matrix(0.756, -0.655, 0.655, 0.756, 46.095, 16.795)"/>
        <rect width="2.389" height="8.438" transform="translate(0 17.167) rotate(-74.577)"/>
        <rect width="2.389" height="4.354" transform="matrix(0.966, -0.258, 0.258, 0.966, 26.09, 0.615)"/>
        <rect width="6.272" height="2.388" transform="matrix(0.984, -0.179, 0.179, 0.984, 4.872, 36.157)"/>
    </symbol>
    <symbol id="warning" viewBox="0 0 27 24">
        <path d="M19.662 1H7.33606L1.1731 11.5L7.33606 22H19.662L25.825 11.5L19.662 1Z"/>
        <path d="M13.5 4.29492V14.2029"/>
        <path d="M13.5 16.714V18.708"/>
    </symbol>
    <symbol id="date" viewBox="0 0 25 22">
        <path d="M0.00488281 19.4302C0.00488281 20.1105 0.283309 20.7628 0.778818 21.2438C1.27433 21.7248 1.94625 21.995 2.647 21.995H22.3527C23.0534 21.995 23.7253 21.7248 24.2208 21.2438C24.7164 20.7628 24.9948 20.1105 24.9948 19.4302V7.61698H0.00488281V19.4302ZM16.8119 9.50784H21.1234V13.6921H16.8119V9.50784ZM10.3447 9.50784H14.6562V13.6921H10.3447V9.50784ZM10.3447 15.7298H14.6562V19.9141H10.3447V15.7298ZM3.87727 9.50784H8.18874V13.6921H3.87727V9.50784ZM3.87727 15.7298H8.18874V19.9141H3.87727V15.7298Z"/>
        <path d="M22.9764 2.24535H20.423V3.69928C20.4227 4.00441 20.2977 4.29696 20.0753 4.51263C19.8529 4.72829 19.5514 4.8494 19.2371 4.8494H19.1565C19.0008 4.84952 18.8465 4.81984 18.7026 4.76209C18.5587 4.70435 18.4281 4.61968 18.318 4.51286C18.2079 4.40605 18.1204 4.27923 18.0607 4.13962C18.0011 4.00001 17.9706 3.85041 17.9706 3.69928V2.24535H7.01918V3.69928C7.01891 4.00441 6.89387 4.29696 6.67151 4.51263C6.44915 4.72829 6.1476 4.8494 5.83327 4.8494H5.75368C5.59795 4.84952 5.44374 4.81982 5.29981 4.76209C5.15589 4.70436 5.02491 4.61967 4.9147 4.51286C4.80448 4.40606 4.71717 4.27923 4.65746 4.13962C4.59774 4.00001 4.56691 3.85045 4.56678 3.69928V2.24535H2.01336C1.47803 2.24535 0.964521 2.45181 0.585981 2.81927C0.207441 3.18673 -0.00512695 3.68513 -0.00512695 4.2048V6.00441H24.9858V4.2048C24.9858 3.68666 24.7744 3.18958 24.3979 2.82238C24.0213 2.45517 23.5101 2.24768 22.9764 2.24535Z"/>
        <path d="M20.423 1.14708C20.423 0.841519 20.2979 0.548487 20.0753 0.332423C19.8527 0.116358 19.5508 -0.00500488 19.2361 -0.00500488H19.1552C18.9994 -0.00500494 18.8451 0.024804 18.7011 0.0827155C18.5572 0.140627 18.4266 0.225485 18.3165 0.332482C18.2064 0.439479 18.1191 0.56649 18.0595 0.706266C18 0.846042 17.9692 0.995828 17.9693 1.14708V2.24433H20.422L20.423 1.14708Z"/>
        <path d="M7.02041 1.14708C7.02041 0.841519 6.89532 0.548487 6.67274 0.332423C6.45016 0.116358 6.14829 -0.00500488 5.83351 -0.00500488H5.75368C5.4389 -0.00500488 5.13703 0.116358 4.91445 0.332423C4.69187 0.548487 4.56678 0.841519 4.56678 1.14708V2.24433H7.01942L7.02041 1.14708Z"/>
    </symbol>
    <symbol id="att" viewBox="0 0 24 21" fill="none">
        <g clip-path="url(#clip0)">
            <path d="M17.4773 0.912918H6.52092L1.04272 10.4986L6.52092 20.0843H17.4773L22.9555 10.4986L17.4773 0.912918Z" stroke="#586C78" stroke-width="2" stroke-miterlimit="10"/>
            <path d="M12 3.92093V12.9662" stroke="#586C78" stroke-width="2" stroke-miterlimit="10"/>
            <path d="M12 15.2577V17.0781" stroke="#586C78" stroke-width="2" stroke-miterlimit="10"/>
        </g>
        <defs>
            <clipPath id="clip0">
                <rect width="24" height="21" fill="white"/>
            </clipPath>
        </defs>
    </symbol>
    <symbol id="letter" viewBox="0 0 73 49">
        <path d="M30.9859 2.72693L24.3093 26.2738L63.5426 36.7346L70.2192 13.1878L30.9859 2.72693ZM30.9859 2.72693L45.2457 24.5056L69.8396 13.0857M26.1763 26.52L41.0118 18.6561M61.5435 35.9329L52.9392 21.8196M55.683 33.8623L31.5315 45.5716M35.4604 33.8623L11.3089 45.5716M13.7232 36.2045L1.64795 42.0596M56.8487 40.8881L44.7734 46.7432M20.9688 24.6732L8.89349 30.5283M29.4223 10.7585L5.27084 22.4677" stroke-width="3" stroke-miterlimit="10"/>
    </symbol>
    <symbol id="video-play" viewBox="0 0 93 76">
        <g transform="translate(1.5 1.5)"><path d="M68.375,85.755H51.935a36.625,36.625,0,1,1,0-73.25H68.375a36.625,36.625,0,1,1,0,73.25ZM49,33.778V64.527L74.113,49.152Z" transform="translate(-15.311 -12.505)" stroke-miterlimit="10" stroke-width="3"/></g>
    </symbol>
    <symbol id="protocol" viewBox="0 0 18 26">
        <g transform="translate(5967.951 48.863)">
            <path d="M-5963.74-42.644h-3.21v18.9h11.075l4.523-4.523v-14.38h-3.486" stroke-miterlimit="10" stroke-width="2"/>
            <path d="M-5957.309-23.86v-5.858h5.3" stroke-miterlimit="10" stroke-width="2"/>
            <path d="M-5953.834-45.128l-2.7-.91-.417-1.825h-4.4l-.417,1.825-2.7.91v2.479h10.635Z" stroke-miterlimit="10" stroke-width="2"/>
            <path d="M-5963.433-36.307l3.352,3.068,5.557-5.274" stroke-miterlimit="10" stroke-width="2"/>
        </g>
    </symbol>
</svg>