<svg width="0" height="0" xmlns="http://www.w3.org/2000/svg">
    <symbol id="ekp" viewBox="0 0 33 15">
        <path d="M-3144.9,986.891h-28.134a2.427,2.427,0,0,0-2.564,2.256V999.97a2.425,2.425,0,0,0,2.564,2.256h28.134a2.429,2.429,0,0,0,2.566-2.256V989.147A2.429,2.429,0,0,0-3144.9,986.891Zm-20.944,8.564h-2.42v2.416h-1.792v-2.416h-2.418v-1.792h2.418v-2.418h1.792v2.418h2.42Zm9.2,1.943-1.943,1.8h-5.955v-1.79h5.146l.779-.734v-1.223h-4.353v-1.792h4.353v-1.225l-.779-.734h-5.146v-1.792h5.955l1.943,1.807Zm8.821,1.8-2.843-3.746h-1.619V999.2h-1.975v-9.288h1.975v3.75h1.493l2.72-3.75h2.365l-3.392,4.523,3.642,4.765Z" transform="translate(3175.598 -986.891)"/>
    </symbol>
    <symbol id="download" viewBox="0 0 19 18">
        <path d="M14.6802 7.3178L13.0546 5.6035L10.7198 8.06691V0.000976562H8.42139V8.21777L5.94269 5.6035L4.31805 7.3178L9.49851 12.7838L14.6802 7.3178Z"/>
        <path d="M16.7005 6.57073V15.5708H2.29842V6.57073H0V17.9959H18.9989V6.57073H16.7005Z"/>
    </symbol>
    <symbol id="book" viewBox="0 0 26 24">
        <g clip-path="url(#clip0)">
            <path d="M7.72577 19.3558L13.6291 22.2977L24.4124 12.1944" stroke-width="2" stroke-miterlimit="10"/>
            <path d="M2.20019 10.5706L12.6398 1.07799L24.414 6.51062L13.7657 16.6888L2.02288 10.9923C2.02288 10.9923 1.98367 11.0534 1.92374 11.1648C1.55086 11.8467 1.34115 12.6089 1.31188 13.3892C1.20478 14.5661 1.5397 15.7407 2.2491 16.6751L4.60264 17.9292" stroke-width="2" stroke-miterlimit="10"/>
            <path d="M17.8291 7.56767L15.4751 9.71541L10.4877 7.30205L12.7757 5.13971L17.8291 7.56767Z" stroke-width="2" stroke-miterlimit="10"/>
            <path d="M4.02271 14.6734L10.6566 17.8014" stroke-width="2" stroke-miterlimit="10"/>
            <path d="M5.48708 15.5278C5.12037 19.2171 1.53729 20.097 1.53729 20.097L3.67727 22.9822C3.67727 22.9822 8.7809 21.8313 8.7809 16.9754" stroke-width="2" stroke-miterlimit="10"/>
            <path d="M13.6007 15.9477C13.6007 15.9477 10.7642 18.6567 13.875 22.0631" stroke-width="2" stroke-miterlimit="10"/>
            <path d="M24.2879 6.52533C24.2879 6.52533 21.4518 9.52279 24.5634 13.2961" stroke-width="2" stroke-miterlimit="10"/>
        </g>
        <defs>
            <clipPath id="clip0">
                <rect width="26" height="24" fill="white"/>
            </clipPath>
        </defs>
    </symbol>
</svg>