<svg xmlns="http://www.w3.org/2000/svg" width="28.666" height="73.455" viewBox="0 0 28.666 73.455"><g transform="translate(0 73.455) rotate(-90)"><path d="M5.426,5.426l3.532-.947L5.426,3.532,4.479,0,3.532,3.532,0,4.479l3.532.947.947,3.532Z" transform="translate(32.249)" fill="#b5bac3"/><path d="M4.34,4.34l2.826-.757L4.34,2.826,3.583,0,2.826,2.826,0,3.583l2.826.757.757,2.826Z" transform="translate(42.102 0.896)" fill="#b5bac3"/><path d="M3.255,3.255l2.119-.568L3.255,2.119,2.687,0,2.119,2.119,0,2.687l2.119.568.568,2.119Z" transform="translate(51.956 1.792)" fill="#b5bac3"/><path d="M2.17,2.17l1.413-.379L2.17,1.413,1.792,0,1.413,1.413,0,1.792l1.413.379.379,1.413Z" transform="translate(61.81 2.687)" fill="#b5bac3"/><path d="M1.085,1.085,1.792.9,1.085.706.9,0,.706.706,0,.9l.706.189L.9,1.792Z" transform="translate(71.664 3.583)" fill="#b5bac3"/><path d="M5.426,5.426l3.532-.947L5.426,3.532,4.479,0,3.532,3.532,0,4.479l3.532.947.947,3.532Z" transform="translate(32.249 9.854)" fill="#b5bac3"/><path d="M4.34,4.34l2.826-.757L4.34,2.826,3.583,0,2.826,2.826,0,3.583l2.826.757.757,2.826Z" transform="translate(42.102 10.75)" fill="#b5bac3"/><path d="M3.255,3.255l2.119-.568L3.255,2.119,2.687,0,2.119,2.119,0,2.687l2.119.568.568,2.119Z" transform="translate(51.956 11.645)" fill="#b5bac3"/><path d="M2.17,2.17l1.413-.379L2.17,1.413,1.792,0,1.413,1.413,0,1.792l1.413.379.379,1.413Z" transform="translate(61.81 12.541)" fill="#b5bac3"/><path d="M1.085,1.085,1.792.9,1.085.706.9,0,.706.706,0,.9l.706.189L.9,1.792Z" transform="translate(71.664 13.437)" fill="#b5bac3"/><path d="M5.426,5.426l3.532-.947L5.426,3.532,4.479,0,3.532,3.532,0,4.479l3.532.947.947,3.532Z" transform="translate(32.249 19.708)" fill="#b5bac3"/><path d="M4.34,4.34l2.826-.757L4.34,2.826,3.583,0,2.826,2.826,0,3.583l2.826.757.757,2.826Z" transform="translate(42.102 20.603)" fill="#b5bac3"/><path d="M3.255,3.255l2.119-.568L3.255,2.119,2.687,0,2.119,2.119,0,2.687l2.119.568.568,2.119Z" transform="translate(51.956 21.499)" fill="#b5bac3"/><path d="M2.17,2.17l1.413-.379L2.17,1.413,1.792,0,1.413,1.413,0,1.792l1.413.379.379,1.413Z" transform="translate(61.81 22.395)" fill="#b5bac3"/><path d="M1.085,1.085,1.792.9,1.085.706.9,0,.706.706,0,.9l.706.189L.9,1.792Z" transform="translate(71.664 23.291)" fill="#b5bac3"/><path d="M2.826,4.34,0,3.583l2.826-.757L3.583,0,4.34,2.826l2.826.757L4.34,4.34,3.583,7.166Z" transform="translate(24.187 0.896)" fill="#b5bac3"/><path d="M2.119,3.255,0,2.687l2.119-.568L2.687,0l.568,2.119,2.119.568-2.119.568L2.687,5.375Z" transform="translate(16.124 1.792)" fill="#b5bac3"/><path d="M1.413,2.17,0,1.792l1.413-.379L1.792,0,2.17,1.413l1.413.379L2.17,2.17,1.792,3.583Z" transform="translate(8.062 2.687)" fill="#b5bac3"/><path d="M.706,1.085,0,.9.706.706.9,0l.189.706L1.792.9l-.706.189L.9,1.792Z" transform="translate(0 3.583)" fill="#b5bac3"/><path d="M2.826,4.34,0,3.583l2.826-.757L3.583,0,4.34,2.826l2.826.757L4.34,4.34,3.583,7.166Z" transform="translate(24.187 10.75)" fill="#b5bac3"/><path d="M2.119,3.255,0,2.687l2.119-.568L2.687,0l.568,2.119,2.119.568-2.119.568L2.687,5.375Z" transform="translate(16.124 11.645)" fill="#b5bac3"/><path d="M1.413,2.17,0,1.792l1.413-.379L1.792,0,2.17,1.413l1.413.379L2.17,2.17,1.792,3.583Z" transform="translate(8.062 12.541)" fill="#b5bac3"/><path d="M.706,1.085,0,.9.706.706.9,0l.189.706L1.792.9l-.706.189L.9,1.792Z" transform="translate(0 13.437)" fill="#b5bac3"/><path d="M2.826,4.34,0,3.583l2.826-.757L3.583,0,4.34,2.826l2.826.757L4.34,4.34,3.583,7.166Z" transform="translate(24.187 20.603)" fill="#b5bac3"/><path d="M2.119,3.255,0,2.687l2.119-.568L2.687,0l.568,2.119,2.119.568-2.119.568L2.687,5.375Z" transform="translate(16.124 21.499)" fill="#b5bac3"/><path d="M1.413,2.17,0,1.792l1.413-.379L1.792,0,2.17,1.413l1.413.379L2.17,2.17,1.792,3.583Z" transform="translate(8.062 22.395)" fill="#b5bac3"/><path d="M.706,1.085,0,.9.706.706.9,0l.189.706L1.792.9l-.706.189L.9,1.792Z" transform="translate(0 23.291)" fill="#b5bac3"/></g></svg>